G04 #@! TF.FileFunction,Copper,L1,Top,Signal*
%FSLAX46Y46*%
G04 Gerber Fmt 4.6, Leading zero omitted, Abs format (unit mm)*
G04 Created by KiCad (PCBNEW (after 2015-mar-04 BZR unknown)-product) date 4/2/2015 5:06:05 PM*
%MOMM*%
G01*
G04 APERTURE LIST*
%ADD10C,0.100000*%
%ADD11C,1.524000*%
%ADD12O,1.524000X2.540000*%
%ADD13C,3.937000*%
%ADD14C,0.600000*%
%ADD15C,0.400000*%
%ADD16C,0.254000*%
G04 APERTURE END LIST*
D10*
D11*
X85090000Y-39370000D03*
X85090000Y-36830000D03*
X87630000Y-36830000D03*
X87630000Y-39370000D03*
X82550000Y-39370000D03*
X82550000Y-36830000D03*
X80010000Y-36830000D03*
X80010000Y-39370000D03*
X92710000Y-49630000D03*
X92710000Y-44550000D03*
X92710000Y-47090000D03*
X92710000Y-52170000D03*
X90170000Y-49630000D03*
X90170000Y-52170000D03*
X90170000Y-47090000D03*
X90170000Y-44550000D03*
X127100000Y-83820000D03*
X129540000Y-83820000D03*
X132080000Y-83820000D03*
X134620000Y-83820000D03*
X170180000Y-73660000D03*
X170180000Y-71120000D03*
X170180000Y-68580000D03*
X170180000Y-66040000D03*
X170180000Y-66040000D03*
X170180000Y-68580000D03*
X170180000Y-71120000D03*
X170180000Y-73660000D03*
X160020000Y-72620000D03*
X160020000Y-67540000D03*
X165100000Y-68580000D03*
X165100000Y-71120000D03*
X115500000Y-60960000D03*
X115500000Y-39940000D03*
X162560000Y-39940000D03*
X162560000Y-60960000D03*
X110510000Y-68580000D03*
X110510000Y-71120000D03*
X110510000Y-73660000D03*
X110510000Y-76200000D03*
X110510000Y-78740000D03*
X144780000Y-83820000D03*
X142240000Y-83820000D03*
X139700000Y-83820000D03*
X78740000Y-71120000D03*
X78740000Y-68580000D03*
X78740000Y-66040000D03*
X100330000Y-41910000D03*
X100330000Y-39370000D03*
X105410000Y-39370000D03*
X105410000Y-41910000D03*
X102870000Y-39370000D03*
X102870000Y-41910000D03*
X107950000Y-41910000D03*
X107950000Y-39370000D03*
X172720000Y-78740000D03*
X170180000Y-78740000D03*
X172720000Y-76200000D03*
X170180000Y-76200000D03*
X172720000Y-73660000D03*
X170180000Y-73660000D03*
X172720000Y-71120000D03*
X170180000Y-71120000D03*
X172720000Y-68580000D03*
X170180000Y-68580000D03*
X172720000Y-66040000D03*
X170180000Y-66040000D03*
X172720000Y-63500000D03*
X170180000Y-63500000D03*
X172720000Y-60960000D03*
X170180000Y-60960000D03*
X172720000Y-58420000D03*
X170180000Y-58420000D03*
X172720000Y-55880000D03*
X170180000Y-55880000D03*
D12*
X144780000Y-35560000D03*
X147320000Y-35560000D03*
X149860000Y-35560000D03*
X152400000Y-35560000D03*
X154940000Y-35560000D03*
X157480000Y-35560000D03*
X160020000Y-35560000D03*
X162560000Y-35560000D03*
X167640000Y-83820000D03*
X165100000Y-83820000D03*
X162560000Y-83820000D03*
X160020000Y-83820000D03*
X149860000Y-83820000D03*
X152400000Y-83820000D03*
X154940000Y-83820000D03*
X157480000Y-83820000D03*
X121920000Y-83820000D03*
X119380000Y-83820000D03*
X116840000Y-83820000D03*
X111760000Y-83820000D03*
X109220000Y-83820000D03*
X139700000Y-35560000D03*
X137160000Y-35560000D03*
X134620000Y-35560000D03*
X132080000Y-35560000D03*
X129540000Y-35560000D03*
X127000000Y-35560000D03*
X124460000Y-35560000D03*
X121920000Y-35560000D03*
X117856000Y-35560000D03*
X115316000Y-35560000D03*
X112776000Y-35560000D03*
X110236000Y-35560000D03*
X107696000Y-35560000D03*
X105156000Y-35560000D03*
X102616000Y-35560000D03*
X100076000Y-35560000D03*
X114300000Y-83820000D03*
D13*
X172720000Y-83820000D03*
X166370000Y-35560000D03*
X91440000Y-35560000D03*
X90170000Y-83820000D03*
D11*
X170180000Y-38100000D03*
X172720000Y-38100000D03*
X170180000Y-40640000D03*
X172720000Y-40640000D03*
X170180000Y-43180000D03*
X172720000Y-43180000D03*
X170180000Y-45720000D03*
X172720000Y-45720000D03*
X170180000Y-35560000D03*
X172720000Y-35560000D03*
X172720000Y-48260000D03*
X170180000Y-48260000D03*
X170180000Y-50800000D03*
X172720000Y-50800000D03*
X170180000Y-53340000D03*
X172720000Y-53340000D03*
X170180000Y-55880000D03*
X172720000Y-55880000D03*
X170180000Y-58420000D03*
X172720000Y-58420000D03*
X170180000Y-60960000D03*
X172720000Y-60960000D03*
X170180000Y-63500000D03*
X172720000Y-63500000D03*
X170180000Y-66040000D03*
X172720000Y-66040000D03*
X170180000Y-68580000D03*
X172720000Y-68580000D03*
X170180000Y-71120000D03*
X172720000Y-71120000D03*
X170180000Y-73660000D03*
X172720000Y-73660000D03*
X170180000Y-76200000D03*
X172720000Y-76200000D03*
X170180000Y-78740000D03*
X172720000Y-78740000D03*
D14*
X133350000Y-41910000D03*
X132080000Y-48260000D03*
X114300000Y-43180000D03*
X119380000Y-41910000D03*
X129540000Y-44450000D03*
X134620000Y-74930000D03*
X127000000Y-44450000D03*
X132080000Y-74930000D03*
X124460000Y-44450000D03*
X129540000Y-74930000D03*
X121920000Y-44450000D03*
X127000000Y-74930000D03*
X167640000Y-77470000D03*
X102870000Y-73660000D03*
D15*
X133350000Y-46990000D02*
X133350000Y-41910000D01*
X132080000Y-48260000D02*
X133350000Y-46990000D01*
X97790000Y-49530000D02*
X92810000Y-49530000D01*
X92810000Y-49530000D02*
X92710000Y-49630000D01*
X97790000Y-49530000D02*
X95250000Y-46990000D01*
X95250000Y-46990000D02*
X92810000Y-46990000D01*
X92810000Y-46990000D02*
X92710000Y-47090000D01*
X97790000Y-49530000D02*
X97790000Y-46990000D01*
X95350000Y-44550000D02*
X92710000Y-44550000D01*
X97790000Y-46990000D02*
X95350000Y-44550000D01*
X92760000Y-44500000D02*
X92710000Y-44550000D01*
X92710000Y-52170000D02*
X95150000Y-52170000D01*
X95150000Y-52170000D02*
X97790000Y-49530000D01*
X97790000Y-49530000D02*
X97690000Y-49630000D01*
X97690000Y-49630000D02*
X97790000Y-49630000D01*
X115570000Y-43180000D02*
X115570000Y-48260000D01*
X98960000Y-50800000D02*
X97790000Y-49630000D01*
X113030000Y-50800000D02*
X98960000Y-50800000D01*
X115570000Y-48260000D02*
X113030000Y-50800000D01*
X118110000Y-43180000D02*
X115570000Y-43180000D01*
X115570000Y-43180000D02*
X114300000Y-43180000D01*
X119380000Y-41910000D02*
X118110000Y-43180000D01*
X129540000Y-69850000D02*
X129540000Y-44450000D01*
X134620000Y-74930000D02*
X129540000Y-69850000D01*
X127000000Y-69850000D02*
X127000000Y-44450000D01*
X132080000Y-74930000D02*
X127000000Y-69850000D01*
X124460000Y-69850000D02*
X124460000Y-44450000D01*
X129540000Y-74930000D02*
X124460000Y-69850000D01*
X121920000Y-69850000D02*
X121920000Y-44450000D01*
X127000000Y-74930000D02*
X121920000Y-69850000D01*
X106680000Y-77470000D02*
X167640000Y-77470000D01*
X102870000Y-73660000D02*
X106680000Y-77470000D01*
D16*
G36*
X173863000Y-81475586D02*
X173240140Y-81216953D01*
X172204404Y-81216049D01*
X171247162Y-81611573D01*
X170514147Y-82343310D01*
X170116953Y-83299860D01*
X170116049Y-84335596D01*
X170511573Y-85292838D01*
X170893068Y-85675000D01*
X168078993Y-85675000D01*
X168174609Y-85655981D01*
X168627828Y-85353149D01*
X168930660Y-84899930D01*
X169037000Y-84365321D01*
X169037000Y-83274679D01*
X168930660Y-82740070D01*
X168627828Y-82286851D01*
X168575162Y-82251660D01*
X168575162Y-77284833D01*
X168433117Y-76941057D01*
X168170327Y-76677808D01*
X167826799Y-76535162D01*
X167454833Y-76534838D01*
X167212421Y-76635000D01*
X166509144Y-76635000D01*
X166509144Y-71327698D01*
X166497242Y-71089903D01*
X166497242Y-68303339D01*
X166285010Y-67789697D01*
X165892370Y-67396371D01*
X165379100Y-67183243D01*
X164823339Y-67182758D01*
X164309697Y-67394990D01*
X163969144Y-67734949D01*
X163969144Y-61167698D01*
X163957242Y-60929903D01*
X163957242Y-39663339D01*
X163745010Y-39149697D01*
X163352370Y-38756371D01*
X162839100Y-38543243D01*
X162283339Y-38542758D01*
X161769697Y-38754990D01*
X161376371Y-39147630D01*
X161163243Y-39660900D01*
X161162758Y-40216661D01*
X161374990Y-40730303D01*
X161767630Y-41123629D01*
X162280900Y-41336757D01*
X162836661Y-41337242D01*
X163350303Y-41125010D01*
X163743629Y-40732370D01*
X163956757Y-40219100D01*
X163957242Y-39663339D01*
X163957242Y-60929903D01*
X163941362Y-60612632D01*
X163782397Y-60228857D01*
X163540213Y-60159392D01*
X163360608Y-60338997D01*
X163360608Y-59979787D01*
X163291143Y-59737603D01*
X162767698Y-59550856D01*
X162212632Y-59578638D01*
X161828857Y-59737603D01*
X161759392Y-59979787D01*
X162560000Y-60780395D01*
X163360608Y-59979787D01*
X163360608Y-60338997D01*
X162739605Y-60960000D01*
X163540213Y-61760608D01*
X163782397Y-61691143D01*
X163969144Y-61167698D01*
X163969144Y-67734949D01*
X163916371Y-67787630D01*
X163703243Y-68300900D01*
X163702758Y-68856661D01*
X163914990Y-69370303D01*
X164307630Y-69763629D01*
X164499727Y-69843394D01*
X164368857Y-69897603D01*
X164299392Y-70139787D01*
X165100000Y-70940395D01*
X165900608Y-70139787D01*
X165831143Y-69897603D01*
X165690682Y-69847491D01*
X165890303Y-69765010D01*
X166283629Y-69372370D01*
X166496757Y-68859100D01*
X166497242Y-68303339D01*
X166497242Y-71089903D01*
X166481362Y-70772632D01*
X166322397Y-70388857D01*
X166080213Y-70319392D01*
X165279605Y-71120000D01*
X166080213Y-71920608D01*
X166322397Y-71851143D01*
X166509144Y-71327698D01*
X166509144Y-76635000D01*
X165900608Y-76635000D01*
X165900608Y-72100213D01*
X165100000Y-71299605D01*
X164920395Y-71479210D01*
X164920395Y-71120000D01*
X164119787Y-70319392D01*
X163877603Y-70388857D01*
X163690856Y-70912302D01*
X163718638Y-71467368D01*
X163877603Y-71851143D01*
X164119787Y-71920608D01*
X164920395Y-71120000D01*
X164920395Y-71479210D01*
X164299392Y-72100213D01*
X164368857Y-72342397D01*
X164892302Y-72529144D01*
X165447368Y-72501362D01*
X165831143Y-72342397D01*
X165900608Y-72100213D01*
X165900608Y-76635000D01*
X163360608Y-76635000D01*
X163360608Y-61940213D01*
X162560000Y-61139605D01*
X162380395Y-61319210D01*
X162380395Y-60960000D01*
X161579787Y-60159392D01*
X161337603Y-60228857D01*
X161150856Y-60752302D01*
X161178638Y-61307368D01*
X161337603Y-61691143D01*
X161579787Y-61760608D01*
X162380395Y-60960000D01*
X162380395Y-61319210D01*
X161759392Y-61940213D01*
X161828857Y-62182397D01*
X162352302Y-62369144D01*
X162907368Y-62341362D01*
X163291143Y-62182397D01*
X163360608Y-61940213D01*
X163360608Y-76635000D01*
X161417242Y-76635000D01*
X161417242Y-72343339D01*
X161417242Y-67263339D01*
X161205010Y-66749697D01*
X160812370Y-66356371D01*
X160299100Y-66143243D01*
X159743339Y-66142758D01*
X159229697Y-66354990D01*
X158836371Y-66747630D01*
X158623243Y-67260900D01*
X158622758Y-67816661D01*
X158834990Y-68330303D01*
X159227630Y-68723629D01*
X159740900Y-68936757D01*
X160296661Y-68937242D01*
X160810303Y-68725010D01*
X161203629Y-68332370D01*
X161416757Y-67819100D01*
X161417242Y-67263339D01*
X161417242Y-72343339D01*
X161205010Y-71829697D01*
X160812370Y-71436371D01*
X160299100Y-71223243D01*
X159743339Y-71222758D01*
X159229697Y-71434990D01*
X158836371Y-71827630D01*
X158623243Y-72340900D01*
X158622758Y-72896661D01*
X158834990Y-73410303D01*
X159227630Y-73803629D01*
X159740900Y-74016757D01*
X160296661Y-74017242D01*
X160810303Y-73805010D01*
X161203629Y-73412370D01*
X161416757Y-72899100D01*
X161417242Y-72343339D01*
X161417242Y-76635000D01*
X153884806Y-76635000D01*
X153884806Y-58420000D01*
X153616496Y-57071115D01*
X152852414Y-55927586D01*
X151708885Y-55163504D01*
X150360000Y-54895194D01*
X149011115Y-55163504D01*
X147867586Y-55927586D01*
X147103504Y-57071115D01*
X146835194Y-58420000D01*
X147103504Y-59768885D01*
X147867586Y-60912414D01*
X149011115Y-61676496D01*
X150360000Y-61944806D01*
X151708885Y-61676496D01*
X152852414Y-60912414D01*
X153616496Y-59768885D01*
X153884806Y-58420000D01*
X153884806Y-76635000D01*
X144195000Y-76635000D01*
X144195000Y-62230000D01*
X144195000Y-54610000D01*
X144142857Y-54347862D01*
X143994368Y-54125632D01*
X143772138Y-53977143D01*
X143510000Y-53925000D01*
X138430000Y-53925000D01*
X138167862Y-53977143D01*
X137945632Y-54125632D01*
X137797143Y-54347862D01*
X137745000Y-54610000D01*
X137745000Y-62230000D01*
X137797143Y-62492138D01*
X137945632Y-62714368D01*
X138167862Y-62862857D01*
X138430000Y-62915000D01*
X142240000Y-62915000D01*
X143510000Y-62915000D01*
X143772138Y-62862857D01*
X143994368Y-62714368D01*
X144142857Y-62492138D01*
X144195000Y-62230000D01*
X144195000Y-76635000D01*
X135555162Y-76635000D01*
X135555162Y-74744833D01*
X135413117Y-74401057D01*
X135150327Y-74137808D01*
X134908089Y-74037221D01*
X134285162Y-73414294D01*
X134285162Y-41724833D01*
X134143117Y-41381057D01*
X133880327Y-41117808D01*
X133536799Y-40975162D01*
X133164833Y-40974838D01*
X132821057Y-41116883D01*
X132557808Y-41379673D01*
X132415162Y-41723201D01*
X132414838Y-42095167D01*
X132515000Y-42337578D01*
X132515000Y-46644132D01*
X131791666Y-47367465D01*
X131551057Y-47466883D01*
X131287808Y-47729673D01*
X131145162Y-48073201D01*
X131144838Y-48445167D01*
X131286883Y-48788943D01*
X131549673Y-49052192D01*
X131893201Y-49194838D01*
X132265167Y-49195162D01*
X132608943Y-49053117D01*
X132872192Y-48790327D01*
X132972778Y-48548089D01*
X133940434Y-47580434D01*
X134121439Y-47309541D01*
X134121439Y-47309540D01*
X134185000Y-46990000D01*
X134185000Y-42337234D01*
X134284838Y-42096799D01*
X134285162Y-41724833D01*
X134285162Y-73414294D01*
X130375000Y-69504132D01*
X130375000Y-44877234D01*
X130474838Y-44636799D01*
X130475162Y-44264833D01*
X130333117Y-43921057D01*
X130070327Y-43657808D01*
X129726799Y-43515162D01*
X129354833Y-43514838D01*
X129011057Y-43656883D01*
X128747808Y-43919673D01*
X128605162Y-44263201D01*
X128604838Y-44635167D01*
X128705000Y-44877578D01*
X128705000Y-69850000D01*
X128768561Y-70169541D01*
X128949566Y-70440434D01*
X133727465Y-75218333D01*
X133826883Y-75458943D01*
X134089673Y-75722192D01*
X134433201Y-75864838D01*
X134805167Y-75865162D01*
X135148943Y-75723117D01*
X135412192Y-75460327D01*
X135554838Y-75116799D01*
X135555162Y-74744833D01*
X135555162Y-76635000D01*
X133015162Y-76635000D01*
X133015162Y-74744833D01*
X132873117Y-74401057D01*
X132610327Y-74137808D01*
X132368089Y-74037221D01*
X127835000Y-69504132D01*
X127835000Y-44877234D01*
X127934838Y-44636799D01*
X127935162Y-44264833D01*
X127793117Y-43921057D01*
X127530327Y-43657808D01*
X127186799Y-43515162D01*
X126814833Y-43514838D01*
X126471057Y-43656883D01*
X126207808Y-43919673D01*
X126065162Y-44263201D01*
X126064838Y-44635167D01*
X126165000Y-44877578D01*
X126165000Y-69850000D01*
X126228561Y-70169541D01*
X126409566Y-70440434D01*
X131187465Y-75218333D01*
X131286883Y-75458943D01*
X131549673Y-75722192D01*
X131893201Y-75864838D01*
X132265167Y-75865162D01*
X132608943Y-75723117D01*
X132872192Y-75460327D01*
X133014838Y-75116799D01*
X133015162Y-74744833D01*
X133015162Y-76635000D01*
X130475162Y-76635000D01*
X130475162Y-74744833D01*
X130333117Y-74401057D01*
X130070327Y-74137808D01*
X129828089Y-74037221D01*
X125295000Y-69504132D01*
X125295000Y-44877234D01*
X125394838Y-44636799D01*
X125395162Y-44264833D01*
X125253117Y-43921057D01*
X124990327Y-43657808D01*
X124646799Y-43515162D01*
X124274833Y-43514838D01*
X123931057Y-43656883D01*
X123667808Y-43919673D01*
X123525162Y-44263201D01*
X123524838Y-44635167D01*
X123625000Y-44877578D01*
X123625000Y-69850000D01*
X123688561Y-70169541D01*
X123869566Y-70440434D01*
X128647465Y-75218333D01*
X128746883Y-75458943D01*
X129009673Y-75722192D01*
X129353201Y-75864838D01*
X129725167Y-75865162D01*
X130068943Y-75723117D01*
X130332192Y-75460327D01*
X130474838Y-75116799D01*
X130475162Y-74744833D01*
X130475162Y-76635000D01*
X127935162Y-76635000D01*
X127935162Y-74744833D01*
X127793117Y-74401057D01*
X127530327Y-74137808D01*
X127288089Y-74037221D01*
X122755000Y-69504132D01*
X122755000Y-44877234D01*
X122854838Y-44636799D01*
X122855162Y-44264833D01*
X122713117Y-43921057D01*
X122450327Y-43657808D01*
X122106799Y-43515162D01*
X121734833Y-43514838D01*
X121391057Y-43656883D01*
X121127808Y-43919673D01*
X120985162Y-44263201D01*
X120984838Y-44635167D01*
X121085000Y-44877578D01*
X121085000Y-69850000D01*
X121148561Y-70169541D01*
X121329566Y-70440434D01*
X126107465Y-75218333D01*
X126206883Y-75458943D01*
X126469673Y-75722192D01*
X126813201Y-75864838D01*
X127185167Y-75865162D01*
X127528943Y-75723117D01*
X127792192Y-75460327D01*
X127934838Y-75116799D01*
X127935162Y-74744833D01*
X127935162Y-76635000D01*
X120315162Y-76635000D01*
X120315162Y-41724833D01*
X120173117Y-41381057D01*
X119910327Y-41117808D01*
X119566799Y-40975162D01*
X119194833Y-40974838D01*
X118851057Y-41116883D01*
X118587808Y-41379673D01*
X118487221Y-41621910D01*
X117764132Y-42345000D01*
X116897242Y-42345000D01*
X116897242Y-39663339D01*
X116685010Y-39149697D01*
X116292370Y-38756371D01*
X115779100Y-38543243D01*
X115223339Y-38542758D01*
X114709697Y-38754990D01*
X114316371Y-39147630D01*
X114103243Y-39660900D01*
X114102758Y-40216661D01*
X114314990Y-40730303D01*
X114707630Y-41123629D01*
X115220900Y-41336757D01*
X115776661Y-41337242D01*
X116290303Y-41125010D01*
X116683629Y-40732370D01*
X116896757Y-40219100D01*
X116897242Y-39663339D01*
X116897242Y-42345000D01*
X115570000Y-42345000D01*
X114727234Y-42345000D01*
X114486799Y-42245162D01*
X114114833Y-42244838D01*
X113771057Y-42386883D01*
X113507808Y-42649673D01*
X113365162Y-42993201D01*
X113364838Y-43365167D01*
X113506883Y-43708943D01*
X113769673Y-43972192D01*
X114113201Y-44114838D01*
X114485167Y-44115162D01*
X114727578Y-44015000D01*
X114735000Y-44015000D01*
X114735000Y-47914132D01*
X112684132Y-49965000D01*
X109347242Y-49965000D01*
X109347242Y-41633339D01*
X109135010Y-41119697D01*
X108742370Y-40726371D01*
X108534487Y-40640050D01*
X108740303Y-40555010D01*
X109133629Y-40162370D01*
X109346757Y-39649100D01*
X109347242Y-39093339D01*
X109135010Y-38579697D01*
X108742370Y-38186371D01*
X108229100Y-37973243D01*
X107673339Y-37972758D01*
X107159697Y-38184990D01*
X106766371Y-38577630D01*
X106680050Y-38785512D01*
X106595010Y-38579697D01*
X106202370Y-38186371D01*
X105689100Y-37973243D01*
X105133339Y-37972758D01*
X104619697Y-38184990D01*
X104226371Y-38577630D01*
X104140050Y-38785512D01*
X104055010Y-38579697D01*
X103662370Y-38186371D01*
X103149100Y-37973243D01*
X102593339Y-37972758D01*
X102079697Y-38184990D01*
X101686371Y-38577630D01*
X101600050Y-38785512D01*
X101515010Y-38579697D01*
X101122370Y-38186371D01*
X100609100Y-37973243D01*
X100053339Y-37972758D01*
X99539697Y-38184990D01*
X99146371Y-38577630D01*
X98933243Y-39090900D01*
X98932758Y-39646661D01*
X99144990Y-40160303D01*
X99537630Y-40553629D01*
X99745512Y-40639949D01*
X99539697Y-40724990D01*
X99146371Y-41117630D01*
X98933243Y-41630900D01*
X98932758Y-42186661D01*
X99144990Y-42700303D01*
X99537630Y-43093629D01*
X100050900Y-43306757D01*
X100606661Y-43307242D01*
X101120303Y-43095010D01*
X101513629Y-42702370D01*
X101599949Y-42494487D01*
X101684990Y-42700303D01*
X102077630Y-43093629D01*
X102590900Y-43306757D01*
X103146661Y-43307242D01*
X103660303Y-43095010D01*
X104053629Y-42702370D01*
X104139949Y-42494487D01*
X104224990Y-42700303D01*
X104617630Y-43093629D01*
X105130900Y-43306757D01*
X105686661Y-43307242D01*
X106200303Y-43095010D01*
X106593629Y-42702370D01*
X106679949Y-42494487D01*
X106764990Y-42700303D01*
X107157630Y-43093629D01*
X107670900Y-43306757D01*
X108226661Y-43307242D01*
X108740303Y-43095010D01*
X109133629Y-42702370D01*
X109346757Y-42189100D01*
X109347242Y-41633339D01*
X109347242Y-49965000D01*
X99305868Y-49965000D01*
X98625000Y-49284132D01*
X98625000Y-46990000D01*
X98561439Y-46670460D01*
X98561439Y-46670459D01*
X98380434Y-46399566D01*
X95940434Y-43959566D01*
X95669541Y-43778561D01*
X95350000Y-43715000D01*
X93850390Y-43715000D01*
X93502370Y-43366371D01*
X92989100Y-43153243D01*
X92433339Y-43152758D01*
X91919697Y-43364990D01*
X91526371Y-43757630D01*
X91440050Y-43965512D01*
X91355010Y-43759697D01*
X90962370Y-43366371D01*
X90449100Y-43153243D01*
X89893339Y-43152758D01*
X89379697Y-43364990D01*
X89027242Y-43716830D01*
X89027242Y-39093339D01*
X88815010Y-38579697D01*
X88422370Y-38186371D01*
X88230272Y-38106605D01*
X88361143Y-38052397D01*
X88430608Y-37810213D01*
X87630000Y-37009605D01*
X87450395Y-37189210D01*
X87450395Y-36830000D01*
X86649787Y-36029392D01*
X86407603Y-36098857D01*
X86363547Y-36222344D01*
X86312397Y-36098857D01*
X86070213Y-36029392D01*
X85890608Y-36208997D01*
X85890608Y-35849787D01*
X85821143Y-35607603D01*
X85297698Y-35420856D01*
X84742632Y-35448638D01*
X84358857Y-35607603D01*
X84289392Y-35849787D01*
X85090000Y-36650395D01*
X85890608Y-35849787D01*
X85890608Y-36208997D01*
X85269605Y-36830000D01*
X86070213Y-37630608D01*
X86312397Y-37561143D01*
X86356452Y-37437655D01*
X86407603Y-37561143D01*
X86649787Y-37630608D01*
X87450395Y-36830000D01*
X87450395Y-37189210D01*
X86829392Y-37810213D01*
X86898857Y-38052397D01*
X87039317Y-38102508D01*
X86839697Y-38184990D01*
X86446371Y-38577630D01*
X86360050Y-38785512D01*
X86275010Y-38579697D01*
X85882370Y-38186371D01*
X85690272Y-38106605D01*
X85821143Y-38052397D01*
X85890608Y-37810213D01*
X85090000Y-37009605D01*
X84910395Y-37189210D01*
X84910395Y-36830000D01*
X84109787Y-36029392D01*
X83867603Y-36098857D01*
X83823547Y-36222344D01*
X83772397Y-36098857D01*
X83530213Y-36029392D01*
X83350608Y-36208997D01*
X83350608Y-35849787D01*
X83281143Y-35607603D01*
X82757698Y-35420856D01*
X82202632Y-35448638D01*
X81818857Y-35607603D01*
X81749392Y-35849787D01*
X82550000Y-36650395D01*
X83350608Y-35849787D01*
X83350608Y-36208997D01*
X82729605Y-36830000D01*
X83530213Y-37630608D01*
X83772397Y-37561143D01*
X83816452Y-37437655D01*
X83867603Y-37561143D01*
X84109787Y-37630608D01*
X84910395Y-36830000D01*
X84910395Y-37189210D01*
X84289392Y-37810213D01*
X84358857Y-38052397D01*
X84499317Y-38102508D01*
X84299697Y-38184990D01*
X83906371Y-38577630D01*
X83820050Y-38785512D01*
X83735010Y-38579697D01*
X83342370Y-38186371D01*
X83150272Y-38106605D01*
X83281143Y-38052397D01*
X83350608Y-37810213D01*
X82550000Y-37009605D01*
X82370395Y-37189210D01*
X82370395Y-36830000D01*
X81569787Y-36029392D01*
X81327603Y-36098857D01*
X81283547Y-36222344D01*
X81232397Y-36098857D01*
X80990213Y-36029392D01*
X80810608Y-36208997D01*
X80810608Y-35849787D01*
X80741143Y-35607603D01*
X80217698Y-35420856D01*
X79662632Y-35448638D01*
X79278857Y-35607603D01*
X79209392Y-35849787D01*
X80010000Y-36650395D01*
X80810608Y-35849787D01*
X80810608Y-36208997D01*
X80189605Y-36830000D01*
X80990213Y-37630608D01*
X81232397Y-37561143D01*
X81276452Y-37437655D01*
X81327603Y-37561143D01*
X81569787Y-37630608D01*
X82370395Y-36830000D01*
X82370395Y-37189210D01*
X81749392Y-37810213D01*
X81818857Y-38052397D01*
X81959317Y-38102508D01*
X81759697Y-38184990D01*
X81366371Y-38577630D01*
X81280050Y-38785512D01*
X81195010Y-38579697D01*
X80802370Y-38186371D01*
X80610272Y-38106605D01*
X80741143Y-38052397D01*
X80810608Y-37810213D01*
X80010000Y-37009605D01*
X79830395Y-37189210D01*
X79830395Y-36830000D01*
X79029787Y-36029392D01*
X78787603Y-36098857D01*
X78600856Y-36622302D01*
X78628638Y-37177368D01*
X78787603Y-37561143D01*
X79029787Y-37630608D01*
X79830395Y-36830000D01*
X79830395Y-37189210D01*
X79209392Y-37810213D01*
X79278857Y-38052397D01*
X79419317Y-38102508D01*
X79219697Y-38184990D01*
X78826371Y-38577630D01*
X78613243Y-39090900D01*
X78612758Y-39646661D01*
X78824990Y-40160303D01*
X79217630Y-40553629D01*
X79730900Y-40766757D01*
X80286661Y-40767242D01*
X80800303Y-40555010D01*
X81193629Y-40162370D01*
X81279949Y-39954487D01*
X81364990Y-40160303D01*
X81757630Y-40553629D01*
X82270900Y-40766757D01*
X82826661Y-40767242D01*
X83340303Y-40555010D01*
X83733629Y-40162370D01*
X83819949Y-39954487D01*
X83904990Y-40160303D01*
X84297630Y-40553629D01*
X84810900Y-40766757D01*
X85366661Y-40767242D01*
X85880303Y-40555010D01*
X86273629Y-40162370D01*
X86359949Y-39954487D01*
X86444990Y-40160303D01*
X86837630Y-40553629D01*
X87350900Y-40766757D01*
X87906661Y-40767242D01*
X88420303Y-40555010D01*
X88813629Y-40162370D01*
X89026757Y-39649100D01*
X89027242Y-39093339D01*
X89027242Y-43716830D01*
X88986371Y-43757630D01*
X88773243Y-44270900D01*
X88772758Y-44826661D01*
X88984990Y-45340303D01*
X89377630Y-45733629D01*
X89585512Y-45819949D01*
X89379697Y-45904990D01*
X88986371Y-46297630D01*
X88773243Y-46810900D01*
X88772758Y-47366661D01*
X88984990Y-47880303D01*
X89377630Y-48273629D01*
X89585512Y-48359949D01*
X89379697Y-48444990D01*
X88986371Y-48837630D01*
X88773243Y-49350900D01*
X88772758Y-49906661D01*
X88984990Y-50420303D01*
X89377630Y-50813629D01*
X89585512Y-50899949D01*
X89379697Y-50984990D01*
X88986371Y-51377630D01*
X88773243Y-51890900D01*
X88772758Y-52446661D01*
X88984990Y-52960303D01*
X89377630Y-53353629D01*
X89890900Y-53566757D01*
X90446661Y-53567242D01*
X90960303Y-53355010D01*
X91353629Y-52962370D01*
X91439949Y-52754487D01*
X91524990Y-52960303D01*
X91917630Y-53353629D01*
X92430900Y-53566757D01*
X92986661Y-53567242D01*
X93500303Y-53355010D01*
X93850924Y-53005000D01*
X95150000Y-53005000D01*
X95469540Y-52941439D01*
X95469541Y-52941439D01*
X95740434Y-52760434D01*
X97740000Y-50760868D01*
X98369566Y-51390434D01*
X98640459Y-51571439D01*
X98640460Y-51571439D01*
X98960000Y-51635000D01*
X113030000Y-51635000D01*
X113349540Y-51571439D01*
X113349541Y-51571439D01*
X113620434Y-51390434D01*
X116160434Y-48850434D01*
X116341439Y-48579541D01*
X116341439Y-48579540D01*
X116404999Y-48260000D01*
X116405000Y-48260000D01*
X116405000Y-44015000D01*
X118110000Y-44015000D01*
X118429540Y-43951439D01*
X118429541Y-43951439D01*
X118700434Y-43770434D01*
X119668333Y-42802534D01*
X119908943Y-42703117D01*
X120172192Y-42440327D01*
X120314838Y-42096799D01*
X120315162Y-41724833D01*
X120315162Y-76635000D01*
X116897242Y-76635000D01*
X116897242Y-60683339D01*
X116685010Y-60169697D01*
X116292370Y-59776371D01*
X115779100Y-59563243D01*
X115223339Y-59562758D01*
X114709697Y-59774990D01*
X114316371Y-60167630D01*
X114103243Y-60680900D01*
X114102758Y-61236661D01*
X114314990Y-61750303D01*
X114707630Y-62143629D01*
X115220900Y-62356757D01*
X115776661Y-62357242D01*
X116290303Y-62145010D01*
X116683629Y-61752370D01*
X116896757Y-61239100D01*
X116897242Y-60683339D01*
X116897242Y-76635000D01*
X111842021Y-76635000D01*
X111906757Y-76479100D01*
X111907242Y-75923339D01*
X111695010Y-75409697D01*
X111302370Y-75016371D01*
X111094487Y-74930050D01*
X111300303Y-74845010D01*
X111693629Y-74452370D01*
X111906757Y-73939100D01*
X111907242Y-73383339D01*
X111695010Y-72869697D01*
X111302370Y-72476371D01*
X111094487Y-72390050D01*
X111300303Y-72305010D01*
X111693629Y-71912370D01*
X111906757Y-71399100D01*
X111907242Y-70843339D01*
X111695010Y-70329697D01*
X111302370Y-69936371D01*
X111094487Y-69850050D01*
X111300303Y-69765010D01*
X111693629Y-69372370D01*
X111906757Y-68859100D01*
X111907242Y-68303339D01*
X111695010Y-67789697D01*
X111302370Y-67396371D01*
X110789100Y-67183243D01*
X110233339Y-67182758D01*
X109719697Y-67394990D01*
X109326371Y-67787630D01*
X109113243Y-68300900D01*
X109112758Y-68856661D01*
X109324990Y-69370303D01*
X109717630Y-69763629D01*
X109925512Y-69849949D01*
X109719697Y-69934990D01*
X109326371Y-70327630D01*
X109113243Y-70840900D01*
X109112758Y-71396661D01*
X109324990Y-71910303D01*
X109717630Y-72303629D01*
X109925512Y-72389949D01*
X109719697Y-72474990D01*
X109326371Y-72867630D01*
X109113243Y-73380900D01*
X109112758Y-73936661D01*
X109324990Y-74450303D01*
X109717630Y-74843629D01*
X109925512Y-74929949D01*
X109719697Y-75014990D01*
X109326371Y-75407630D01*
X109113243Y-75920900D01*
X109112758Y-76476661D01*
X109178182Y-76635000D01*
X107025868Y-76635000D01*
X103762534Y-73371666D01*
X103663117Y-73131057D01*
X103400327Y-72867808D01*
X103056799Y-72725162D01*
X102684833Y-72724838D01*
X102341057Y-72866883D01*
X102077808Y-73129673D01*
X101935162Y-73473201D01*
X101934838Y-73845167D01*
X102076883Y-74188943D01*
X102339673Y-74452192D01*
X102581910Y-74552778D01*
X106089566Y-78060434D01*
X106360459Y-78241439D01*
X106360460Y-78241440D01*
X106680000Y-78305000D01*
X109181949Y-78305000D01*
X109100856Y-78532302D01*
X109128638Y-79087368D01*
X109287603Y-79471143D01*
X109529787Y-79540608D01*
X110330395Y-78740000D01*
X110316252Y-78725857D01*
X110495857Y-78546252D01*
X110510000Y-78560395D01*
X110524142Y-78546252D01*
X110703747Y-78725857D01*
X110689605Y-78740000D01*
X111490213Y-79540608D01*
X111732397Y-79471143D01*
X111919144Y-78947698D01*
X111891362Y-78392632D01*
X111855063Y-78305000D01*
X167212765Y-78305000D01*
X167453201Y-78404838D01*
X167825167Y-78405162D01*
X168168943Y-78263117D01*
X168432192Y-78000327D01*
X168574838Y-77656799D01*
X168575162Y-77284833D01*
X168575162Y-82251660D01*
X168174609Y-81984019D01*
X167640000Y-81877679D01*
X167105391Y-81984019D01*
X166652172Y-82286851D01*
X166370000Y-82709150D01*
X166087828Y-82286851D01*
X165634609Y-81984019D01*
X165100000Y-81877679D01*
X164565391Y-81984019D01*
X164112172Y-82286851D01*
X163830000Y-82709150D01*
X163547828Y-82286851D01*
X163094609Y-81984019D01*
X162560000Y-81877679D01*
X162025391Y-81984019D01*
X161572172Y-82286851D01*
X161290000Y-82709150D01*
X161007828Y-82286851D01*
X160554609Y-81984019D01*
X160020000Y-81877679D01*
X159485391Y-81984019D01*
X159032172Y-82286851D01*
X158750000Y-82709150D01*
X158467828Y-82286851D01*
X158014609Y-81984019D01*
X157480000Y-81877679D01*
X156945391Y-81984019D01*
X156492172Y-82286851D01*
X156210000Y-82709150D01*
X155927828Y-82286851D01*
X155474609Y-81984019D01*
X154940000Y-81877679D01*
X154405391Y-81984019D01*
X153952172Y-82286851D01*
X153670000Y-82709150D01*
X153387828Y-82286851D01*
X152934609Y-81984019D01*
X152400000Y-81877679D01*
X151865391Y-81984019D01*
X151412172Y-82286851D01*
X151130000Y-82709150D01*
X150847828Y-82286851D01*
X150394609Y-81984019D01*
X149860000Y-81877679D01*
X149325391Y-81984019D01*
X148872172Y-82286851D01*
X148569340Y-82740070D01*
X148463000Y-83274679D01*
X148463000Y-84365321D01*
X148569340Y-84899930D01*
X148872172Y-85353149D01*
X149325391Y-85655981D01*
X149421006Y-85675000D01*
X146177242Y-85675000D01*
X146177242Y-83543339D01*
X145965010Y-83029697D01*
X145572370Y-82636371D01*
X145059100Y-82423243D01*
X144503339Y-82422758D01*
X143989697Y-82634990D01*
X143596371Y-83027630D01*
X143516605Y-83219727D01*
X143462397Y-83088857D01*
X143220213Y-83019392D01*
X143040608Y-83198997D01*
X143040608Y-82839787D01*
X142971143Y-82597603D01*
X142447698Y-82410856D01*
X141892632Y-82438638D01*
X141508857Y-82597603D01*
X141439392Y-82839787D01*
X142240000Y-83640395D01*
X143040608Y-82839787D01*
X143040608Y-83198997D01*
X142419605Y-83820000D01*
X143220213Y-84620608D01*
X143462397Y-84551143D01*
X143512508Y-84410682D01*
X143594990Y-84610303D01*
X143987630Y-85003629D01*
X144500900Y-85216757D01*
X145056661Y-85217242D01*
X145570303Y-85005010D01*
X145963629Y-84612370D01*
X146176757Y-84099100D01*
X146177242Y-83543339D01*
X146177242Y-85675000D01*
X143040608Y-85675000D01*
X143040608Y-84800213D01*
X142240000Y-83999605D01*
X142060395Y-84179210D01*
X142060395Y-83820000D01*
X141259787Y-83019392D01*
X141017603Y-83088857D01*
X140967491Y-83229317D01*
X140885010Y-83029697D01*
X140492370Y-82636371D01*
X139979100Y-82423243D01*
X139423339Y-82422758D01*
X138909697Y-82634990D01*
X138516371Y-83027630D01*
X138303243Y-83540900D01*
X138302758Y-84096661D01*
X138514990Y-84610303D01*
X138907630Y-85003629D01*
X139420900Y-85216757D01*
X139976661Y-85217242D01*
X140490303Y-85005010D01*
X140883629Y-84612370D01*
X140963394Y-84420272D01*
X141017603Y-84551143D01*
X141259787Y-84620608D01*
X142060395Y-83820000D01*
X142060395Y-84179210D01*
X141439392Y-84800213D01*
X141508857Y-85042397D01*
X142032302Y-85229144D01*
X142587368Y-85201362D01*
X142971143Y-85042397D01*
X143040608Y-84800213D01*
X143040608Y-85675000D01*
X136017242Y-85675000D01*
X136017242Y-83543339D01*
X135805010Y-83029697D01*
X135412370Y-82636371D01*
X134899100Y-82423243D01*
X134343339Y-82422758D01*
X133829697Y-82634990D01*
X133436371Y-83027630D01*
X133350050Y-83235512D01*
X133265010Y-83029697D01*
X132872370Y-82636371D01*
X132359100Y-82423243D01*
X131803339Y-82422758D01*
X131289697Y-82634990D01*
X130896371Y-83027630D01*
X130810050Y-83235512D01*
X130725010Y-83029697D01*
X130332370Y-82636371D01*
X129819100Y-82423243D01*
X129263339Y-82422758D01*
X128749697Y-82634990D01*
X128356371Y-83027630D01*
X128320174Y-83114801D01*
X128285010Y-83029697D01*
X127892370Y-82636371D01*
X127379100Y-82423243D01*
X126823339Y-82422758D01*
X126309697Y-82634990D01*
X125916371Y-83027630D01*
X125703243Y-83540900D01*
X125702758Y-84096661D01*
X125914990Y-84610303D01*
X126307630Y-85003629D01*
X126820900Y-85216757D01*
X127376661Y-85217242D01*
X127890303Y-85005010D01*
X128283629Y-84612370D01*
X128319825Y-84525198D01*
X128354990Y-84610303D01*
X128747630Y-85003629D01*
X129260900Y-85216757D01*
X129816661Y-85217242D01*
X130330303Y-85005010D01*
X130723629Y-84612370D01*
X130809949Y-84404487D01*
X130894990Y-84610303D01*
X131287630Y-85003629D01*
X131800900Y-85216757D01*
X132356661Y-85217242D01*
X132870303Y-85005010D01*
X133263629Y-84612370D01*
X133349949Y-84404487D01*
X133434990Y-84610303D01*
X133827630Y-85003629D01*
X134340900Y-85216757D01*
X134896661Y-85217242D01*
X135410303Y-85005010D01*
X135803629Y-84612370D01*
X136016757Y-84099100D01*
X136017242Y-83543339D01*
X136017242Y-85675000D01*
X122358993Y-85675000D01*
X122454609Y-85655981D01*
X122907828Y-85353149D01*
X123210660Y-84899930D01*
X123317000Y-84365321D01*
X123317000Y-83274679D01*
X123210660Y-82740070D01*
X122907828Y-82286851D01*
X122454609Y-81984019D01*
X121920000Y-81877679D01*
X121385391Y-81984019D01*
X120932172Y-82286851D01*
X120650000Y-82709150D01*
X120367828Y-82286851D01*
X119914609Y-81984019D01*
X119380000Y-81877679D01*
X118845391Y-81984019D01*
X118392172Y-82286851D01*
X118110000Y-82709150D01*
X117827828Y-82286851D01*
X117374609Y-81984019D01*
X116840000Y-81877679D01*
X116305391Y-81984019D01*
X115852172Y-82286851D01*
X115560670Y-82723113D01*
X115542059Y-82660059D01*
X115198026Y-82234370D01*
X114717277Y-81972740D01*
X114643070Y-81957780D01*
X114427000Y-82080280D01*
X114427000Y-83693000D01*
X114447000Y-83693000D01*
X114447000Y-83947000D01*
X114427000Y-83947000D01*
X114427000Y-83967000D01*
X114173000Y-83967000D01*
X114173000Y-83947000D01*
X114153000Y-83947000D01*
X114153000Y-83693000D01*
X114173000Y-83693000D01*
X114173000Y-82080280D01*
X113956930Y-81957780D01*
X113882723Y-81972740D01*
X113401974Y-82234370D01*
X113057941Y-82660059D01*
X113039329Y-82723113D01*
X112747828Y-82286851D01*
X112294609Y-81984019D01*
X111760000Y-81877679D01*
X111310608Y-81967068D01*
X111310608Y-79720213D01*
X110510000Y-78919605D01*
X109709392Y-79720213D01*
X109778857Y-79962397D01*
X110302302Y-80149144D01*
X110857368Y-80121362D01*
X111241143Y-79962397D01*
X111310608Y-79720213D01*
X111310608Y-81967068D01*
X111225391Y-81984019D01*
X110772172Y-82286851D01*
X110490000Y-82709150D01*
X110207828Y-82286851D01*
X109754609Y-81984019D01*
X109220000Y-81877679D01*
X108685391Y-81984019D01*
X108232172Y-82286851D01*
X107929340Y-82740070D01*
X107823000Y-83274679D01*
X107823000Y-84365321D01*
X107929340Y-84899930D01*
X108232172Y-85353149D01*
X108685391Y-85655981D01*
X108781006Y-85675000D01*
X107664806Y-85675000D01*
X107664806Y-81280000D01*
X107396496Y-79931115D01*
X106632414Y-78787586D01*
X105488885Y-78023504D01*
X104140000Y-77755194D01*
X102791115Y-78023504D01*
X101647586Y-78787586D01*
X100883504Y-79931115D01*
X100615194Y-81280000D01*
X100883504Y-82628885D01*
X101647586Y-83772414D01*
X102791115Y-84536496D01*
X104140000Y-84804806D01*
X105488885Y-84536496D01*
X106632414Y-83772414D01*
X107396496Y-82628885D01*
X107664806Y-81280000D01*
X107664806Y-85675000D01*
X100044806Y-85675000D01*
X100044806Y-81280000D01*
X99776496Y-79931115D01*
X99012414Y-78787586D01*
X97868885Y-78023504D01*
X96520000Y-77755194D01*
X95171115Y-78023504D01*
X94027586Y-78787586D01*
X93263504Y-79931115D01*
X92995194Y-81280000D01*
X93263504Y-82628885D01*
X94027586Y-83772414D01*
X95171115Y-84536496D01*
X96520000Y-84804806D01*
X97868885Y-84536496D01*
X99012414Y-83772414D01*
X99776496Y-82628885D01*
X100044806Y-81280000D01*
X100044806Y-85675000D01*
X91996882Y-85675000D01*
X92375853Y-85296690D01*
X92773047Y-84340140D01*
X92773951Y-83304404D01*
X92378427Y-82347162D01*
X91646690Y-81614147D01*
X90690140Y-81216953D01*
X89654404Y-81216049D01*
X89585000Y-81244726D01*
X89585000Y-73660000D01*
X89532857Y-73397862D01*
X89384368Y-73175632D01*
X89162138Y-73027143D01*
X88900000Y-72975000D01*
X80149144Y-72975000D01*
X80149144Y-68787698D01*
X80137242Y-68549903D01*
X80137242Y-65763339D01*
X79925010Y-65249697D01*
X79532370Y-64856371D01*
X79019100Y-64643243D01*
X78463339Y-64642758D01*
X77949697Y-64854990D01*
X77556371Y-65247630D01*
X77343243Y-65760900D01*
X77342758Y-66316661D01*
X77554990Y-66830303D01*
X77947630Y-67223629D01*
X78139727Y-67303394D01*
X78008857Y-67357603D01*
X77939392Y-67599787D01*
X78740000Y-68400395D01*
X79540608Y-67599787D01*
X79471143Y-67357603D01*
X79330682Y-67307491D01*
X79530303Y-67225010D01*
X79923629Y-66832370D01*
X80136757Y-66319100D01*
X80137242Y-65763339D01*
X80137242Y-68549903D01*
X80121362Y-68232632D01*
X79962397Y-67848857D01*
X79720213Y-67779392D01*
X78919605Y-68580000D01*
X79720213Y-69380608D01*
X79962397Y-69311143D01*
X80149144Y-68787698D01*
X80149144Y-72975000D01*
X80137242Y-72975000D01*
X80137242Y-70843339D01*
X79925010Y-70329697D01*
X79532370Y-69936371D01*
X79340272Y-69856605D01*
X79471143Y-69802397D01*
X79540608Y-69560213D01*
X78740000Y-68759605D01*
X78560395Y-68939210D01*
X78560395Y-68580000D01*
X77759787Y-67779392D01*
X77517603Y-67848857D01*
X77330856Y-68372302D01*
X77358638Y-68927368D01*
X77517603Y-69311143D01*
X77759787Y-69380608D01*
X78560395Y-68580000D01*
X78560395Y-68939210D01*
X77939392Y-69560213D01*
X78008857Y-69802397D01*
X78149317Y-69852508D01*
X77949697Y-69934990D01*
X77556371Y-70327630D01*
X77343243Y-70840900D01*
X77342758Y-71396661D01*
X77554990Y-71910303D01*
X77947630Y-72303629D01*
X78460900Y-72516757D01*
X79016661Y-72517242D01*
X79530303Y-72305010D01*
X79923629Y-71912370D01*
X80136757Y-71399100D01*
X80137242Y-70843339D01*
X80137242Y-72975000D01*
X76885000Y-72975000D01*
X76885000Y-55295000D01*
X86360000Y-55295000D01*
X86622138Y-55242857D01*
X86844368Y-55094368D01*
X86992857Y-54872138D01*
X87045000Y-54610000D01*
X87045000Y-41910000D01*
X86992857Y-41647862D01*
X86844368Y-41425632D01*
X86622138Y-41277143D01*
X86360000Y-41225000D01*
X76885000Y-41225000D01*
X76885000Y-33705000D01*
X89613117Y-33705000D01*
X89234147Y-34083310D01*
X88836953Y-35039860D01*
X88836049Y-36075596D01*
X88844754Y-36096664D01*
X88610213Y-36029392D01*
X88430608Y-36208997D01*
X88430608Y-35849787D01*
X88361143Y-35607603D01*
X87837698Y-35420856D01*
X87282632Y-35448638D01*
X86898857Y-35607603D01*
X86829392Y-35849787D01*
X87630000Y-36650395D01*
X88430608Y-35849787D01*
X88430608Y-36208997D01*
X87809605Y-36830000D01*
X88610213Y-37630608D01*
X88852397Y-37561143D01*
X89039144Y-37037698D01*
X89012344Y-36502264D01*
X89231573Y-37032838D01*
X89963310Y-37765853D01*
X90919860Y-38163047D01*
X91955596Y-38163951D01*
X92912838Y-37768427D01*
X93645853Y-37036690D01*
X94043047Y-36080140D01*
X94043951Y-35044404D01*
X93648427Y-34087162D01*
X93266931Y-33705000D01*
X99637006Y-33705000D01*
X99541391Y-33724019D01*
X99088172Y-34026851D01*
X98785340Y-34480070D01*
X98679000Y-35014679D01*
X98679000Y-36105321D01*
X98785340Y-36639930D01*
X99088172Y-37093149D01*
X99541391Y-37395981D01*
X100076000Y-37502321D01*
X100610609Y-37395981D01*
X101063828Y-37093149D01*
X101346000Y-36670849D01*
X101628172Y-37093149D01*
X102081391Y-37395981D01*
X102616000Y-37502321D01*
X103150609Y-37395981D01*
X103603828Y-37093149D01*
X103886000Y-36670849D01*
X104168172Y-37093149D01*
X104621391Y-37395981D01*
X105156000Y-37502321D01*
X105690609Y-37395981D01*
X106143828Y-37093149D01*
X106426000Y-36670849D01*
X106708172Y-37093149D01*
X107161391Y-37395981D01*
X107696000Y-37502321D01*
X108230609Y-37395981D01*
X108683828Y-37093149D01*
X108966000Y-36670849D01*
X109248172Y-37093149D01*
X109701391Y-37395981D01*
X110236000Y-37502321D01*
X110770609Y-37395981D01*
X111223828Y-37093149D01*
X111506000Y-36670849D01*
X111788172Y-37093149D01*
X112241391Y-37395981D01*
X112776000Y-37502321D01*
X113310609Y-37395981D01*
X113763828Y-37093149D01*
X114046000Y-36670849D01*
X114328172Y-37093149D01*
X114781391Y-37395981D01*
X115316000Y-37502321D01*
X115850609Y-37395981D01*
X116303828Y-37093149D01*
X116586000Y-36670849D01*
X116868172Y-37093149D01*
X117321391Y-37395981D01*
X117856000Y-37502321D01*
X118390609Y-37395981D01*
X118843828Y-37093149D01*
X119146660Y-36639930D01*
X119253000Y-36105321D01*
X119253000Y-35014679D01*
X119146660Y-34480070D01*
X118843828Y-34026851D01*
X118390609Y-33724019D01*
X118294993Y-33705000D01*
X121481006Y-33705000D01*
X121385391Y-33724019D01*
X120932172Y-34026851D01*
X120629340Y-34480070D01*
X120523000Y-35014679D01*
X120523000Y-36105321D01*
X120629340Y-36639930D01*
X120932172Y-37093149D01*
X121385391Y-37395981D01*
X121920000Y-37502321D01*
X122454609Y-37395981D01*
X122907828Y-37093149D01*
X123190000Y-36670849D01*
X123472172Y-37093149D01*
X123925391Y-37395981D01*
X124460000Y-37502321D01*
X124994609Y-37395981D01*
X125447828Y-37093149D01*
X125730000Y-36670849D01*
X126012172Y-37093149D01*
X126465391Y-37395981D01*
X127000000Y-37502321D01*
X127534609Y-37395981D01*
X127987828Y-37093149D01*
X128270000Y-36670849D01*
X128552172Y-37093149D01*
X129005391Y-37395981D01*
X129540000Y-37502321D01*
X130074609Y-37395981D01*
X130527828Y-37093149D01*
X130810000Y-36670849D01*
X131092172Y-37093149D01*
X131545391Y-37395981D01*
X132080000Y-37502321D01*
X132614609Y-37395981D01*
X133067828Y-37093149D01*
X133350000Y-36670849D01*
X133632172Y-37093149D01*
X134085391Y-37395981D01*
X134620000Y-37502321D01*
X135154609Y-37395981D01*
X135607828Y-37093149D01*
X135890000Y-36670849D01*
X136172172Y-37093149D01*
X136625391Y-37395981D01*
X137160000Y-37502321D01*
X137694609Y-37395981D01*
X138147828Y-37093149D01*
X138430000Y-36670849D01*
X138712172Y-37093149D01*
X139165391Y-37395981D01*
X139700000Y-37502321D01*
X140234609Y-37395981D01*
X140687828Y-37093149D01*
X140990660Y-36639930D01*
X141097000Y-36105321D01*
X141097000Y-35014679D01*
X140990660Y-34480070D01*
X140687828Y-34026851D01*
X140234609Y-33724019D01*
X140138993Y-33705000D01*
X144341006Y-33705000D01*
X144245391Y-33724019D01*
X143792172Y-34026851D01*
X143489340Y-34480070D01*
X143383000Y-35014679D01*
X143383000Y-36105321D01*
X143489340Y-36639930D01*
X143792172Y-37093149D01*
X144245391Y-37395981D01*
X144780000Y-37502321D01*
X145314609Y-37395981D01*
X145767828Y-37093149D01*
X146050000Y-36670849D01*
X146332172Y-37093149D01*
X146785391Y-37395981D01*
X147320000Y-37502321D01*
X147854609Y-37395981D01*
X148307828Y-37093149D01*
X148590000Y-36670849D01*
X148872172Y-37093149D01*
X149325391Y-37395981D01*
X149860000Y-37502321D01*
X150394609Y-37395981D01*
X150847828Y-37093149D01*
X151130000Y-36670849D01*
X151412172Y-37093149D01*
X151865391Y-37395981D01*
X152400000Y-37502321D01*
X152934609Y-37395981D01*
X153387828Y-37093149D01*
X153670000Y-36670849D01*
X153952172Y-37093149D01*
X154405391Y-37395981D01*
X154940000Y-37502321D01*
X155474609Y-37395981D01*
X155927828Y-37093149D01*
X156210000Y-36670849D01*
X156492172Y-37093149D01*
X156945391Y-37395981D01*
X157480000Y-37502321D01*
X158014609Y-37395981D01*
X158467828Y-37093149D01*
X158750000Y-36670849D01*
X159032172Y-37093149D01*
X159485391Y-37395981D01*
X160020000Y-37502321D01*
X160554609Y-37395981D01*
X161007828Y-37093149D01*
X161290000Y-36670849D01*
X161572172Y-37093149D01*
X162025391Y-37395981D01*
X162560000Y-37502321D01*
X163094609Y-37395981D01*
X163547828Y-37093149D01*
X163850660Y-36639930D01*
X163898938Y-36397214D01*
X164161573Y-37032838D01*
X164893310Y-37765853D01*
X165849860Y-38163047D01*
X166885596Y-38163951D01*
X167842838Y-37768427D01*
X168575853Y-37036690D01*
X168928093Y-36188400D01*
X168994990Y-36350303D01*
X169387630Y-36743629D01*
X169595512Y-36829949D01*
X169389697Y-36914990D01*
X168996371Y-37307630D01*
X168783243Y-37820900D01*
X168782758Y-38376661D01*
X168994990Y-38890303D01*
X169387630Y-39283629D01*
X169595512Y-39369949D01*
X169389697Y-39454990D01*
X168996371Y-39847630D01*
X168783243Y-40360900D01*
X168782758Y-40916661D01*
X168994990Y-41430303D01*
X169387630Y-41823629D01*
X169595512Y-41909949D01*
X169389697Y-41994990D01*
X168996371Y-42387630D01*
X168783243Y-42900900D01*
X168782758Y-43456661D01*
X168994990Y-43970303D01*
X169387630Y-44363629D01*
X169595512Y-44449949D01*
X169389697Y-44534990D01*
X168996371Y-44927630D01*
X168783243Y-45440900D01*
X168782758Y-45996661D01*
X168994990Y-46510303D01*
X169387630Y-46903629D01*
X169595512Y-46989949D01*
X169389697Y-47074990D01*
X168996371Y-47467630D01*
X168783243Y-47980900D01*
X168782758Y-48536661D01*
X168994990Y-49050303D01*
X169387630Y-49443629D01*
X169595512Y-49529949D01*
X169389697Y-49614990D01*
X168996371Y-50007630D01*
X168783243Y-50520900D01*
X168782758Y-51076661D01*
X168994990Y-51590303D01*
X169387630Y-51983629D01*
X169595512Y-52069949D01*
X169389697Y-52154990D01*
X168996371Y-52547630D01*
X168783243Y-53060900D01*
X168782758Y-53616661D01*
X168994990Y-54130303D01*
X169387630Y-54523629D01*
X169595512Y-54609949D01*
X169389697Y-54694990D01*
X168996371Y-55087630D01*
X168783243Y-55600900D01*
X168782758Y-56156661D01*
X168994990Y-56670303D01*
X169387630Y-57063629D01*
X169595512Y-57149949D01*
X169389697Y-57234990D01*
X168996371Y-57627630D01*
X168783243Y-58140900D01*
X168782758Y-58696661D01*
X168994990Y-59210303D01*
X169387630Y-59603629D01*
X169595512Y-59689949D01*
X169389697Y-59774990D01*
X168996371Y-60167630D01*
X168783243Y-60680900D01*
X168782758Y-61236661D01*
X168994990Y-61750303D01*
X169387630Y-62143629D01*
X169595512Y-62229949D01*
X169389697Y-62314990D01*
X168996371Y-62707630D01*
X168783243Y-63220900D01*
X168782758Y-63776661D01*
X168994990Y-64290303D01*
X169387630Y-64683629D01*
X169595512Y-64769949D01*
X169389697Y-64854990D01*
X168996371Y-65247630D01*
X168783243Y-65760900D01*
X168782758Y-66316661D01*
X168994990Y-66830303D01*
X169387630Y-67223629D01*
X169595512Y-67309949D01*
X169389697Y-67394990D01*
X168996371Y-67787630D01*
X168783243Y-68300900D01*
X168782758Y-68856661D01*
X168994990Y-69370303D01*
X169387630Y-69763629D01*
X169595512Y-69849949D01*
X169389697Y-69934990D01*
X168996371Y-70327630D01*
X168783243Y-70840900D01*
X168782758Y-71396661D01*
X168994990Y-71910303D01*
X169387630Y-72303629D01*
X169595512Y-72389949D01*
X169389697Y-72474990D01*
X168996371Y-72867630D01*
X168783243Y-73380900D01*
X168782758Y-73936661D01*
X168994990Y-74450303D01*
X169387630Y-74843629D01*
X169595512Y-74929949D01*
X169389697Y-75014990D01*
X168996371Y-75407630D01*
X168783243Y-75920900D01*
X168782758Y-76476661D01*
X168994990Y-76990303D01*
X169387630Y-77383629D01*
X169595512Y-77469949D01*
X169389697Y-77554990D01*
X168996371Y-77947630D01*
X168783243Y-78460900D01*
X168782758Y-79016661D01*
X168994990Y-79530303D01*
X169387630Y-79923629D01*
X169900900Y-80136757D01*
X170456661Y-80137242D01*
X170970303Y-79925010D01*
X171363629Y-79532370D01*
X171449949Y-79324487D01*
X171534990Y-79530303D01*
X171927630Y-79923629D01*
X172440900Y-80136757D01*
X172996661Y-80137242D01*
X173510303Y-79925010D01*
X173863000Y-79572928D01*
X173863000Y-81475586D01*
X173863000Y-81475586D01*
G37*
X173863000Y-81475586D02*
X173240140Y-81216953D01*
X172204404Y-81216049D01*
X171247162Y-81611573D01*
X170514147Y-82343310D01*
X170116953Y-83299860D01*
X170116049Y-84335596D01*
X170511573Y-85292838D01*
X170893068Y-85675000D01*
X168078993Y-85675000D01*
X168174609Y-85655981D01*
X168627828Y-85353149D01*
X168930660Y-84899930D01*
X169037000Y-84365321D01*
X169037000Y-83274679D01*
X168930660Y-82740070D01*
X168627828Y-82286851D01*
X168575162Y-82251660D01*
X168575162Y-77284833D01*
X168433117Y-76941057D01*
X168170327Y-76677808D01*
X167826799Y-76535162D01*
X167454833Y-76534838D01*
X167212421Y-76635000D01*
X166509144Y-76635000D01*
X166509144Y-71327698D01*
X166497242Y-71089903D01*
X166497242Y-68303339D01*
X166285010Y-67789697D01*
X165892370Y-67396371D01*
X165379100Y-67183243D01*
X164823339Y-67182758D01*
X164309697Y-67394990D01*
X163969144Y-67734949D01*
X163969144Y-61167698D01*
X163957242Y-60929903D01*
X163957242Y-39663339D01*
X163745010Y-39149697D01*
X163352370Y-38756371D01*
X162839100Y-38543243D01*
X162283339Y-38542758D01*
X161769697Y-38754990D01*
X161376371Y-39147630D01*
X161163243Y-39660900D01*
X161162758Y-40216661D01*
X161374990Y-40730303D01*
X161767630Y-41123629D01*
X162280900Y-41336757D01*
X162836661Y-41337242D01*
X163350303Y-41125010D01*
X163743629Y-40732370D01*
X163956757Y-40219100D01*
X163957242Y-39663339D01*
X163957242Y-60929903D01*
X163941362Y-60612632D01*
X163782397Y-60228857D01*
X163540213Y-60159392D01*
X163360608Y-60338997D01*
X163360608Y-59979787D01*
X163291143Y-59737603D01*
X162767698Y-59550856D01*
X162212632Y-59578638D01*
X161828857Y-59737603D01*
X161759392Y-59979787D01*
X162560000Y-60780395D01*
X163360608Y-59979787D01*
X163360608Y-60338997D01*
X162739605Y-60960000D01*
X163540213Y-61760608D01*
X163782397Y-61691143D01*
X163969144Y-61167698D01*
X163969144Y-67734949D01*
X163916371Y-67787630D01*
X163703243Y-68300900D01*
X163702758Y-68856661D01*
X163914990Y-69370303D01*
X164307630Y-69763629D01*
X164499727Y-69843394D01*
X164368857Y-69897603D01*
X164299392Y-70139787D01*
X165100000Y-70940395D01*
X165900608Y-70139787D01*
X165831143Y-69897603D01*
X165690682Y-69847491D01*
X165890303Y-69765010D01*
X166283629Y-69372370D01*
X166496757Y-68859100D01*
X166497242Y-68303339D01*
X166497242Y-71089903D01*
X166481362Y-70772632D01*
X166322397Y-70388857D01*
X166080213Y-70319392D01*
X165279605Y-71120000D01*
X166080213Y-71920608D01*
X166322397Y-71851143D01*
X166509144Y-71327698D01*
X166509144Y-76635000D01*
X165900608Y-76635000D01*
X165900608Y-72100213D01*
X165100000Y-71299605D01*
X164920395Y-71479210D01*
X164920395Y-71120000D01*
X164119787Y-70319392D01*
X163877603Y-70388857D01*
X163690856Y-70912302D01*
X163718638Y-71467368D01*
X163877603Y-71851143D01*
X164119787Y-71920608D01*
X164920395Y-71120000D01*
X164920395Y-71479210D01*
X164299392Y-72100213D01*
X164368857Y-72342397D01*
X164892302Y-72529144D01*
X165447368Y-72501362D01*
X165831143Y-72342397D01*
X165900608Y-72100213D01*
X165900608Y-76635000D01*
X163360608Y-76635000D01*
X163360608Y-61940213D01*
X162560000Y-61139605D01*
X162380395Y-61319210D01*
X162380395Y-60960000D01*
X161579787Y-60159392D01*
X161337603Y-60228857D01*
X161150856Y-60752302D01*
X161178638Y-61307368D01*
X161337603Y-61691143D01*
X161579787Y-61760608D01*
X162380395Y-60960000D01*
X162380395Y-61319210D01*
X161759392Y-61940213D01*
X161828857Y-62182397D01*
X162352302Y-62369144D01*
X162907368Y-62341362D01*
X163291143Y-62182397D01*
X163360608Y-61940213D01*
X163360608Y-76635000D01*
X161417242Y-76635000D01*
X161417242Y-72343339D01*
X161417242Y-67263339D01*
X161205010Y-66749697D01*
X160812370Y-66356371D01*
X160299100Y-66143243D01*
X159743339Y-66142758D01*
X159229697Y-66354990D01*
X158836371Y-66747630D01*
X158623243Y-67260900D01*
X158622758Y-67816661D01*
X158834990Y-68330303D01*
X159227630Y-68723629D01*
X159740900Y-68936757D01*
X160296661Y-68937242D01*
X160810303Y-68725010D01*
X161203629Y-68332370D01*
X161416757Y-67819100D01*
X161417242Y-67263339D01*
X161417242Y-72343339D01*
X161205010Y-71829697D01*
X160812370Y-71436371D01*
X160299100Y-71223243D01*
X159743339Y-71222758D01*
X159229697Y-71434990D01*
X158836371Y-71827630D01*
X158623243Y-72340900D01*
X158622758Y-72896661D01*
X158834990Y-73410303D01*
X159227630Y-73803629D01*
X159740900Y-74016757D01*
X160296661Y-74017242D01*
X160810303Y-73805010D01*
X161203629Y-73412370D01*
X161416757Y-72899100D01*
X161417242Y-72343339D01*
X161417242Y-76635000D01*
X153884806Y-76635000D01*
X153884806Y-58420000D01*
X153616496Y-57071115D01*
X152852414Y-55927586D01*
X151708885Y-55163504D01*
X150360000Y-54895194D01*
X149011115Y-55163504D01*
X147867586Y-55927586D01*
X147103504Y-57071115D01*
X146835194Y-58420000D01*
X147103504Y-59768885D01*
X147867586Y-60912414D01*
X149011115Y-61676496D01*
X150360000Y-61944806D01*
X151708885Y-61676496D01*
X152852414Y-60912414D01*
X153616496Y-59768885D01*
X153884806Y-58420000D01*
X153884806Y-76635000D01*
X144195000Y-76635000D01*
X144195000Y-62230000D01*
X144195000Y-54610000D01*
X144142857Y-54347862D01*
X143994368Y-54125632D01*
X143772138Y-53977143D01*
X143510000Y-53925000D01*
X138430000Y-53925000D01*
X138167862Y-53977143D01*
X137945632Y-54125632D01*
X137797143Y-54347862D01*
X137745000Y-54610000D01*
X137745000Y-62230000D01*
X137797143Y-62492138D01*
X137945632Y-62714368D01*
X138167862Y-62862857D01*
X138430000Y-62915000D01*
X142240000Y-62915000D01*
X143510000Y-62915000D01*
X143772138Y-62862857D01*
X143994368Y-62714368D01*
X144142857Y-62492138D01*
X144195000Y-62230000D01*
X144195000Y-76635000D01*
X135555162Y-76635000D01*
X135555162Y-74744833D01*
X135413117Y-74401057D01*
X135150327Y-74137808D01*
X134908089Y-74037221D01*
X134285162Y-73414294D01*
X134285162Y-41724833D01*
X134143117Y-41381057D01*
X133880327Y-41117808D01*
X133536799Y-40975162D01*
X133164833Y-40974838D01*
X132821057Y-41116883D01*
X132557808Y-41379673D01*
X132415162Y-41723201D01*
X132414838Y-42095167D01*
X132515000Y-42337578D01*
X132515000Y-46644132D01*
X131791666Y-47367465D01*
X131551057Y-47466883D01*
X131287808Y-47729673D01*
X131145162Y-48073201D01*
X131144838Y-48445167D01*
X131286883Y-48788943D01*
X131549673Y-49052192D01*
X131893201Y-49194838D01*
X132265167Y-49195162D01*
X132608943Y-49053117D01*
X132872192Y-48790327D01*
X132972778Y-48548089D01*
X133940434Y-47580434D01*
X134121439Y-47309541D01*
X134121439Y-47309540D01*
X134185000Y-46990000D01*
X134185000Y-42337234D01*
X134284838Y-42096799D01*
X134285162Y-41724833D01*
X134285162Y-73414294D01*
X130375000Y-69504132D01*
X130375000Y-44877234D01*
X130474838Y-44636799D01*
X130475162Y-44264833D01*
X130333117Y-43921057D01*
X130070327Y-43657808D01*
X129726799Y-43515162D01*
X129354833Y-43514838D01*
X129011057Y-43656883D01*
X128747808Y-43919673D01*
X128605162Y-44263201D01*
X128604838Y-44635167D01*
X128705000Y-44877578D01*
X128705000Y-69850000D01*
X128768561Y-70169541D01*
X128949566Y-70440434D01*
X133727465Y-75218333D01*
X133826883Y-75458943D01*
X134089673Y-75722192D01*
X134433201Y-75864838D01*
X134805167Y-75865162D01*
X135148943Y-75723117D01*
X135412192Y-75460327D01*
X135554838Y-75116799D01*
X135555162Y-74744833D01*
X135555162Y-76635000D01*
X133015162Y-76635000D01*
X133015162Y-74744833D01*
X132873117Y-74401057D01*
X132610327Y-74137808D01*
X132368089Y-74037221D01*
X127835000Y-69504132D01*
X127835000Y-44877234D01*
X127934838Y-44636799D01*
X127935162Y-44264833D01*
X127793117Y-43921057D01*
X127530327Y-43657808D01*
X127186799Y-43515162D01*
X126814833Y-43514838D01*
X126471057Y-43656883D01*
X126207808Y-43919673D01*
X126065162Y-44263201D01*
X126064838Y-44635167D01*
X126165000Y-44877578D01*
X126165000Y-69850000D01*
X126228561Y-70169541D01*
X126409566Y-70440434D01*
X131187465Y-75218333D01*
X131286883Y-75458943D01*
X131549673Y-75722192D01*
X131893201Y-75864838D01*
X132265167Y-75865162D01*
X132608943Y-75723117D01*
X132872192Y-75460327D01*
X133014838Y-75116799D01*
X133015162Y-74744833D01*
X133015162Y-76635000D01*
X130475162Y-76635000D01*
X130475162Y-74744833D01*
X130333117Y-74401057D01*
X130070327Y-74137808D01*
X129828089Y-74037221D01*
X125295000Y-69504132D01*
X125295000Y-44877234D01*
X125394838Y-44636799D01*
X125395162Y-44264833D01*
X125253117Y-43921057D01*
X124990327Y-43657808D01*
X124646799Y-43515162D01*
X124274833Y-43514838D01*
X123931057Y-43656883D01*
X123667808Y-43919673D01*
X123525162Y-44263201D01*
X123524838Y-44635167D01*
X123625000Y-44877578D01*
X123625000Y-69850000D01*
X123688561Y-70169541D01*
X123869566Y-70440434D01*
X128647465Y-75218333D01*
X128746883Y-75458943D01*
X129009673Y-75722192D01*
X129353201Y-75864838D01*
X129725167Y-75865162D01*
X130068943Y-75723117D01*
X130332192Y-75460327D01*
X130474838Y-75116799D01*
X130475162Y-74744833D01*
X130475162Y-76635000D01*
X127935162Y-76635000D01*
X127935162Y-74744833D01*
X127793117Y-74401057D01*
X127530327Y-74137808D01*
X127288089Y-74037221D01*
X122755000Y-69504132D01*
X122755000Y-44877234D01*
X122854838Y-44636799D01*
X122855162Y-44264833D01*
X122713117Y-43921057D01*
X122450327Y-43657808D01*
X122106799Y-43515162D01*
X121734833Y-43514838D01*
X121391057Y-43656883D01*
X121127808Y-43919673D01*
X120985162Y-44263201D01*
X120984838Y-44635167D01*
X121085000Y-44877578D01*
X121085000Y-69850000D01*
X121148561Y-70169541D01*
X121329566Y-70440434D01*
X126107465Y-75218333D01*
X126206883Y-75458943D01*
X126469673Y-75722192D01*
X126813201Y-75864838D01*
X127185167Y-75865162D01*
X127528943Y-75723117D01*
X127792192Y-75460327D01*
X127934838Y-75116799D01*
X127935162Y-74744833D01*
X127935162Y-76635000D01*
X120315162Y-76635000D01*
X120315162Y-41724833D01*
X120173117Y-41381057D01*
X119910327Y-41117808D01*
X119566799Y-40975162D01*
X119194833Y-40974838D01*
X118851057Y-41116883D01*
X118587808Y-41379673D01*
X118487221Y-41621910D01*
X117764132Y-42345000D01*
X116897242Y-42345000D01*
X116897242Y-39663339D01*
X116685010Y-39149697D01*
X116292370Y-38756371D01*
X115779100Y-38543243D01*
X115223339Y-38542758D01*
X114709697Y-38754990D01*
X114316371Y-39147630D01*
X114103243Y-39660900D01*
X114102758Y-40216661D01*
X114314990Y-40730303D01*
X114707630Y-41123629D01*
X115220900Y-41336757D01*
X115776661Y-41337242D01*
X116290303Y-41125010D01*
X116683629Y-40732370D01*
X116896757Y-40219100D01*
X116897242Y-39663339D01*
X116897242Y-42345000D01*
X115570000Y-42345000D01*
X114727234Y-42345000D01*
X114486799Y-42245162D01*
X114114833Y-42244838D01*
X113771057Y-42386883D01*
X113507808Y-42649673D01*
X113365162Y-42993201D01*
X113364838Y-43365167D01*
X113506883Y-43708943D01*
X113769673Y-43972192D01*
X114113201Y-44114838D01*
X114485167Y-44115162D01*
X114727578Y-44015000D01*
X114735000Y-44015000D01*
X114735000Y-47914132D01*
X112684132Y-49965000D01*
X109347242Y-49965000D01*
X109347242Y-41633339D01*
X109135010Y-41119697D01*
X108742370Y-40726371D01*
X108534487Y-40640050D01*
X108740303Y-40555010D01*
X109133629Y-40162370D01*
X109346757Y-39649100D01*
X109347242Y-39093339D01*
X109135010Y-38579697D01*
X108742370Y-38186371D01*
X108229100Y-37973243D01*
X107673339Y-37972758D01*
X107159697Y-38184990D01*
X106766371Y-38577630D01*
X106680050Y-38785512D01*
X106595010Y-38579697D01*
X106202370Y-38186371D01*
X105689100Y-37973243D01*
X105133339Y-37972758D01*
X104619697Y-38184990D01*
X104226371Y-38577630D01*
X104140050Y-38785512D01*
X104055010Y-38579697D01*
X103662370Y-38186371D01*
X103149100Y-37973243D01*
X102593339Y-37972758D01*
X102079697Y-38184990D01*
X101686371Y-38577630D01*
X101600050Y-38785512D01*
X101515010Y-38579697D01*
X101122370Y-38186371D01*
X100609100Y-37973243D01*
X100053339Y-37972758D01*
X99539697Y-38184990D01*
X99146371Y-38577630D01*
X98933243Y-39090900D01*
X98932758Y-39646661D01*
X99144990Y-40160303D01*
X99537630Y-40553629D01*
X99745512Y-40639949D01*
X99539697Y-40724990D01*
X99146371Y-41117630D01*
X98933243Y-41630900D01*
X98932758Y-42186661D01*
X99144990Y-42700303D01*
X99537630Y-43093629D01*
X100050900Y-43306757D01*
X100606661Y-43307242D01*
X101120303Y-43095010D01*
X101513629Y-42702370D01*
X101599949Y-42494487D01*
X101684990Y-42700303D01*
X102077630Y-43093629D01*
X102590900Y-43306757D01*
X103146661Y-43307242D01*
X103660303Y-43095010D01*
X104053629Y-42702370D01*
X104139949Y-42494487D01*
X104224990Y-42700303D01*
X104617630Y-43093629D01*
X105130900Y-43306757D01*
X105686661Y-43307242D01*
X106200303Y-43095010D01*
X106593629Y-42702370D01*
X106679949Y-42494487D01*
X106764990Y-42700303D01*
X107157630Y-43093629D01*
X107670900Y-43306757D01*
X108226661Y-43307242D01*
X108740303Y-43095010D01*
X109133629Y-42702370D01*
X109346757Y-42189100D01*
X109347242Y-41633339D01*
X109347242Y-49965000D01*
X99305868Y-49965000D01*
X98625000Y-49284132D01*
X98625000Y-46990000D01*
X98561439Y-46670460D01*
X98561439Y-46670459D01*
X98380434Y-46399566D01*
X95940434Y-43959566D01*
X95669541Y-43778561D01*
X95350000Y-43715000D01*
X93850390Y-43715000D01*
X93502370Y-43366371D01*
X92989100Y-43153243D01*
X92433339Y-43152758D01*
X91919697Y-43364990D01*
X91526371Y-43757630D01*
X91440050Y-43965512D01*
X91355010Y-43759697D01*
X90962370Y-43366371D01*
X90449100Y-43153243D01*
X89893339Y-43152758D01*
X89379697Y-43364990D01*
X89027242Y-43716830D01*
X89027242Y-39093339D01*
X88815010Y-38579697D01*
X88422370Y-38186371D01*
X88230272Y-38106605D01*
X88361143Y-38052397D01*
X88430608Y-37810213D01*
X87630000Y-37009605D01*
X87450395Y-37189210D01*
X87450395Y-36830000D01*
X86649787Y-36029392D01*
X86407603Y-36098857D01*
X86363547Y-36222344D01*
X86312397Y-36098857D01*
X86070213Y-36029392D01*
X85890608Y-36208997D01*
X85890608Y-35849787D01*
X85821143Y-35607603D01*
X85297698Y-35420856D01*
X84742632Y-35448638D01*
X84358857Y-35607603D01*
X84289392Y-35849787D01*
X85090000Y-36650395D01*
X85890608Y-35849787D01*
X85890608Y-36208997D01*
X85269605Y-36830000D01*
X86070213Y-37630608D01*
X86312397Y-37561143D01*
X86356452Y-37437655D01*
X86407603Y-37561143D01*
X86649787Y-37630608D01*
X87450395Y-36830000D01*
X87450395Y-37189210D01*
X86829392Y-37810213D01*
X86898857Y-38052397D01*
X87039317Y-38102508D01*
X86839697Y-38184990D01*
X86446371Y-38577630D01*
X86360050Y-38785512D01*
X86275010Y-38579697D01*
X85882370Y-38186371D01*
X85690272Y-38106605D01*
X85821143Y-38052397D01*
X85890608Y-37810213D01*
X85090000Y-37009605D01*
X84910395Y-37189210D01*
X84910395Y-36830000D01*
X84109787Y-36029392D01*
X83867603Y-36098857D01*
X83823547Y-36222344D01*
X83772397Y-36098857D01*
X83530213Y-36029392D01*
X83350608Y-36208997D01*
X83350608Y-35849787D01*
X83281143Y-35607603D01*
X82757698Y-35420856D01*
X82202632Y-35448638D01*
X81818857Y-35607603D01*
X81749392Y-35849787D01*
X82550000Y-36650395D01*
X83350608Y-35849787D01*
X83350608Y-36208997D01*
X82729605Y-36830000D01*
X83530213Y-37630608D01*
X83772397Y-37561143D01*
X83816452Y-37437655D01*
X83867603Y-37561143D01*
X84109787Y-37630608D01*
X84910395Y-36830000D01*
X84910395Y-37189210D01*
X84289392Y-37810213D01*
X84358857Y-38052397D01*
X84499317Y-38102508D01*
X84299697Y-38184990D01*
X83906371Y-38577630D01*
X83820050Y-38785512D01*
X83735010Y-38579697D01*
X83342370Y-38186371D01*
X83150272Y-38106605D01*
X83281143Y-38052397D01*
X83350608Y-37810213D01*
X82550000Y-37009605D01*
X82370395Y-37189210D01*
X82370395Y-36830000D01*
X81569787Y-36029392D01*
X81327603Y-36098857D01*
X81283547Y-36222344D01*
X81232397Y-36098857D01*
X80990213Y-36029392D01*
X80810608Y-36208997D01*
X80810608Y-35849787D01*
X80741143Y-35607603D01*
X80217698Y-35420856D01*
X79662632Y-35448638D01*
X79278857Y-35607603D01*
X79209392Y-35849787D01*
X80010000Y-36650395D01*
X80810608Y-35849787D01*
X80810608Y-36208997D01*
X80189605Y-36830000D01*
X80990213Y-37630608D01*
X81232397Y-37561143D01*
X81276452Y-37437655D01*
X81327603Y-37561143D01*
X81569787Y-37630608D01*
X82370395Y-36830000D01*
X82370395Y-37189210D01*
X81749392Y-37810213D01*
X81818857Y-38052397D01*
X81959317Y-38102508D01*
X81759697Y-38184990D01*
X81366371Y-38577630D01*
X81280050Y-38785512D01*
X81195010Y-38579697D01*
X80802370Y-38186371D01*
X80610272Y-38106605D01*
X80741143Y-38052397D01*
X80810608Y-37810213D01*
X80010000Y-37009605D01*
X79830395Y-37189210D01*
X79830395Y-36830000D01*
X79029787Y-36029392D01*
X78787603Y-36098857D01*
X78600856Y-36622302D01*
X78628638Y-37177368D01*
X78787603Y-37561143D01*
X79029787Y-37630608D01*
X79830395Y-36830000D01*
X79830395Y-37189210D01*
X79209392Y-37810213D01*
X79278857Y-38052397D01*
X79419317Y-38102508D01*
X79219697Y-38184990D01*
X78826371Y-38577630D01*
X78613243Y-39090900D01*
X78612758Y-39646661D01*
X78824990Y-40160303D01*
X79217630Y-40553629D01*
X79730900Y-40766757D01*
X80286661Y-40767242D01*
X80800303Y-40555010D01*
X81193629Y-40162370D01*
X81279949Y-39954487D01*
X81364990Y-40160303D01*
X81757630Y-40553629D01*
X82270900Y-40766757D01*
X82826661Y-40767242D01*
X83340303Y-40555010D01*
X83733629Y-40162370D01*
X83819949Y-39954487D01*
X83904990Y-40160303D01*
X84297630Y-40553629D01*
X84810900Y-40766757D01*
X85366661Y-40767242D01*
X85880303Y-40555010D01*
X86273629Y-40162370D01*
X86359949Y-39954487D01*
X86444990Y-40160303D01*
X86837630Y-40553629D01*
X87350900Y-40766757D01*
X87906661Y-40767242D01*
X88420303Y-40555010D01*
X88813629Y-40162370D01*
X89026757Y-39649100D01*
X89027242Y-39093339D01*
X89027242Y-43716830D01*
X88986371Y-43757630D01*
X88773243Y-44270900D01*
X88772758Y-44826661D01*
X88984990Y-45340303D01*
X89377630Y-45733629D01*
X89585512Y-45819949D01*
X89379697Y-45904990D01*
X88986371Y-46297630D01*
X88773243Y-46810900D01*
X88772758Y-47366661D01*
X88984990Y-47880303D01*
X89377630Y-48273629D01*
X89585512Y-48359949D01*
X89379697Y-48444990D01*
X88986371Y-48837630D01*
X88773243Y-49350900D01*
X88772758Y-49906661D01*
X88984990Y-50420303D01*
X89377630Y-50813629D01*
X89585512Y-50899949D01*
X89379697Y-50984990D01*
X88986371Y-51377630D01*
X88773243Y-51890900D01*
X88772758Y-52446661D01*
X88984990Y-52960303D01*
X89377630Y-53353629D01*
X89890900Y-53566757D01*
X90446661Y-53567242D01*
X90960303Y-53355010D01*
X91353629Y-52962370D01*
X91439949Y-52754487D01*
X91524990Y-52960303D01*
X91917630Y-53353629D01*
X92430900Y-53566757D01*
X92986661Y-53567242D01*
X93500303Y-53355010D01*
X93850924Y-53005000D01*
X95150000Y-53005000D01*
X95469540Y-52941439D01*
X95469541Y-52941439D01*
X95740434Y-52760434D01*
X97740000Y-50760868D01*
X98369566Y-51390434D01*
X98640459Y-51571439D01*
X98640460Y-51571439D01*
X98960000Y-51635000D01*
X113030000Y-51635000D01*
X113349540Y-51571439D01*
X113349541Y-51571439D01*
X113620434Y-51390434D01*
X116160434Y-48850434D01*
X116341439Y-48579541D01*
X116341439Y-48579540D01*
X116404999Y-48260000D01*
X116405000Y-48260000D01*
X116405000Y-44015000D01*
X118110000Y-44015000D01*
X118429540Y-43951439D01*
X118429541Y-43951439D01*
X118700434Y-43770434D01*
X119668333Y-42802534D01*
X119908943Y-42703117D01*
X120172192Y-42440327D01*
X120314838Y-42096799D01*
X120315162Y-41724833D01*
X120315162Y-76635000D01*
X116897242Y-76635000D01*
X116897242Y-60683339D01*
X116685010Y-60169697D01*
X116292370Y-59776371D01*
X115779100Y-59563243D01*
X115223339Y-59562758D01*
X114709697Y-59774990D01*
X114316371Y-60167630D01*
X114103243Y-60680900D01*
X114102758Y-61236661D01*
X114314990Y-61750303D01*
X114707630Y-62143629D01*
X115220900Y-62356757D01*
X115776661Y-62357242D01*
X116290303Y-62145010D01*
X116683629Y-61752370D01*
X116896757Y-61239100D01*
X116897242Y-60683339D01*
X116897242Y-76635000D01*
X111842021Y-76635000D01*
X111906757Y-76479100D01*
X111907242Y-75923339D01*
X111695010Y-75409697D01*
X111302370Y-75016371D01*
X111094487Y-74930050D01*
X111300303Y-74845010D01*
X111693629Y-74452370D01*
X111906757Y-73939100D01*
X111907242Y-73383339D01*
X111695010Y-72869697D01*
X111302370Y-72476371D01*
X111094487Y-72390050D01*
X111300303Y-72305010D01*
X111693629Y-71912370D01*
X111906757Y-71399100D01*
X111907242Y-70843339D01*
X111695010Y-70329697D01*
X111302370Y-69936371D01*
X111094487Y-69850050D01*
X111300303Y-69765010D01*
X111693629Y-69372370D01*
X111906757Y-68859100D01*
X111907242Y-68303339D01*
X111695010Y-67789697D01*
X111302370Y-67396371D01*
X110789100Y-67183243D01*
X110233339Y-67182758D01*
X109719697Y-67394990D01*
X109326371Y-67787630D01*
X109113243Y-68300900D01*
X109112758Y-68856661D01*
X109324990Y-69370303D01*
X109717630Y-69763629D01*
X109925512Y-69849949D01*
X109719697Y-69934990D01*
X109326371Y-70327630D01*
X109113243Y-70840900D01*
X109112758Y-71396661D01*
X109324990Y-71910303D01*
X109717630Y-72303629D01*
X109925512Y-72389949D01*
X109719697Y-72474990D01*
X109326371Y-72867630D01*
X109113243Y-73380900D01*
X109112758Y-73936661D01*
X109324990Y-74450303D01*
X109717630Y-74843629D01*
X109925512Y-74929949D01*
X109719697Y-75014990D01*
X109326371Y-75407630D01*
X109113243Y-75920900D01*
X109112758Y-76476661D01*
X109178182Y-76635000D01*
X107025868Y-76635000D01*
X103762534Y-73371666D01*
X103663117Y-73131057D01*
X103400327Y-72867808D01*
X103056799Y-72725162D01*
X102684833Y-72724838D01*
X102341057Y-72866883D01*
X102077808Y-73129673D01*
X101935162Y-73473201D01*
X101934838Y-73845167D01*
X102076883Y-74188943D01*
X102339673Y-74452192D01*
X102581910Y-74552778D01*
X106089566Y-78060434D01*
X106360459Y-78241439D01*
X106360460Y-78241440D01*
X106680000Y-78305000D01*
X109181949Y-78305000D01*
X109100856Y-78532302D01*
X109128638Y-79087368D01*
X109287603Y-79471143D01*
X109529787Y-79540608D01*
X110330395Y-78740000D01*
X110316252Y-78725857D01*
X110495857Y-78546252D01*
X110510000Y-78560395D01*
X110524142Y-78546252D01*
X110703747Y-78725857D01*
X110689605Y-78740000D01*
X111490213Y-79540608D01*
X111732397Y-79471143D01*
X111919144Y-78947698D01*
X111891362Y-78392632D01*
X111855063Y-78305000D01*
X167212765Y-78305000D01*
X167453201Y-78404838D01*
X167825167Y-78405162D01*
X168168943Y-78263117D01*
X168432192Y-78000327D01*
X168574838Y-77656799D01*
X168575162Y-77284833D01*
X168575162Y-82251660D01*
X168174609Y-81984019D01*
X167640000Y-81877679D01*
X167105391Y-81984019D01*
X166652172Y-82286851D01*
X166370000Y-82709150D01*
X166087828Y-82286851D01*
X165634609Y-81984019D01*
X165100000Y-81877679D01*
X164565391Y-81984019D01*
X164112172Y-82286851D01*
X163830000Y-82709150D01*
X163547828Y-82286851D01*
X163094609Y-81984019D01*
X162560000Y-81877679D01*
X162025391Y-81984019D01*
X161572172Y-82286851D01*
X161290000Y-82709150D01*
X161007828Y-82286851D01*
X160554609Y-81984019D01*
X160020000Y-81877679D01*
X159485391Y-81984019D01*
X159032172Y-82286851D01*
X158750000Y-82709150D01*
X158467828Y-82286851D01*
X158014609Y-81984019D01*
X157480000Y-81877679D01*
X156945391Y-81984019D01*
X156492172Y-82286851D01*
X156210000Y-82709150D01*
X155927828Y-82286851D01*
X155474609Y-81984019D01*
X154940000Y-81877679D01*
X154405391Y-81984019D01*
X153952172Y-82286851D01*
X153670000Y-82709150D01*
X153387828Y-82286851D01*
X152934609Y-81984019D01*
X152400000Y-81877679D01*
X151865391Y-81984019D01*
X151412172Y-82286851D01*
X151130000Y-82709150D01*
X150847828Y-82286851D01*
X150394609Y-81984019D01*
X149860000Y-81877679D01*
X149325391Y-81984019D01*
X148872172Y-82286851D01*
X148569340Y-82740070D01*
X148463000Y-83274679D01*
X148463000Y-84365321D01*
X148569340Y-84899930D01*
X148872172Y-85353149D01*
X149325391Y-85655981D01*
X149421006Y-85675000D01*
X146177242Y-85675000D01*
X146177242Y-83543339D01*
X145965010Y-83029697D01*
X145572370Y-82636371D01*
X145059100Y-82423243D01*
X144503339Y-82422758D01*
X143989697Y-82634990D01*
X143596371Y-83027630D01*
X143516605Y-83219727D01*
X143462397Y-83088857D01*
X143220213Y-83019392D01*
X143040608Y-83198997D01*
X143040608Y-82839787D01*
X142971143Y-82597603D01*
X142447698Y-82410856D01*
X141892632Y-82438638D01*
X141508857Y-82597603D01*
X141439392Y-82839787D01*
X142240000Y-83640395D01*
X143040608Y-82839787D01*
X143040608Y-83198997D01*
X142419605Y-83820000D01*
X143220213Y-84620608D01*
X143462397Y-84551143D01*
X143512508Y-84410682D01*
X143594990Y-84610303D01*
X143987630Y-85003629D01*
X144500900Y-85216757D01*
X145056661Y-85217242D01*
X145570303Y-85005010D01*
X145963629Y-84612370D01*
X146176757Y-84099100D01*
X146177242Y-83543339D01*
X146177242Y-85675000D01*
X143040608Y-85675000D01*
X143040608Y-84800213D01*
X142240000Y-83999605D01*
X142060395Y-84179210D01*
X142060395Y-83820000D01*
X141259787Y-83019392D01*
X141017603Y-83088857D01*
X140967491Y-83229317D01*
X140885010Y-83029697D01*
X140492370Y-82636371D01*
X139979100Y-82423243D01*
X139423339Y-82422758D01*
X138909697Y-82634990D01*
X138516371Y-83027630D01*
X138303243Y-83540900D01*
X138302758Y-84096661D01*
X138514990Y-84610303D01*
X138907630Y-85003629D01*
X139420900Y-85216757D01*
X139976661Y-85217242D01*
X140490303Y-85005010D01*
X140883629Y-84612370D01*
X140963394Y-84420272D01*
X141017603Y-84551143D01*
X141259787Y-84620608D01*
X142060395Y-83820000D01*
X142060395Y-84179210D01*
X141439392Y-84800213D01*
X141508857Y-85042397D01*
X142032302Y-85229144D01*
X142587368Y-85201362D01*
X142971143Y-85042397D01*
X143040608Y-84800213D01*
X143040608Y-85675000D01*
X136017242Y-85675000D01*
X136017242Y-83543339D01*
X135805010Y-83029697D01*
X135412370Y-82636371D01*
X134899100Y-82423243D01*
X134343339Y-82422758D01*
X133829697Y-82634990D01*
X133436371Y-83027630D01*
X133350050Y-83235512D01*
X133265010Y-83029697D01*
X132872370Y-82636371D01*
X132359100Y-82423243D01*
X131803339Y-82422758D01*
X131289697Y-82634990D01*
X130896371Y-83027630D01*
X130810050Y-83235512D01*
X130725010Y-83029697D01*
X130332370Y-82636371D01*
X129819100Y-82423243D01*
X129263339Y-82422758D01*
X128749697Y-82634990D01*
X128356371Y-83027630D01*
X128320174Y-83114801D01*
X128285010Y-83029697D01*
X127892370Y-82636371D01*
X127379100Y-82423243D01*
X126823339Y-82422758D01*
X126309697Y-82634990D01*
X125916371Y-83027630D01*
X125703243Y-83540900D01*
X125702758Y-84096661D01*
X125914990Y-84610303D01*
X126307630Y-85003629D01*
X126820900Y-85216757D01*
X127376661Y-85217242D01*
X127890303Y-85005010D01*
X128283629Y-84612370D01*
X128319825Y-84525198D01*
X128354990Y-84610303D01*
X128747630Y-85003629D01*
X129260900Y-85216757D01*
X129816661Y-85217242D01*
X130330303Y-85005010D01*
X130723629Y-84612370D01*
X130809949Y-84404487D01*
X130894990Y-84610303D01*
X131287630Y-85003629D01*
X131800900Y-85216757D01*
X132356661Y-85217242D01*
X132870303Y-85005010D01*
X133263629Y-84612370D01*
X133349949Y-84404487D01*
X133434990Y-84610303D01*
X133827630Y-85003629D01*
X134340900Y-85216757D01*
X134896661Y-85217242D01*
X135410303Y-85005010D01*
X135803629Y-84612370D01*
X136016757Y-84099100D01*
X136017242Y-83543339D01*
X136017242Y-85675000D01*
X122358993Y-85675000D01*
X122454609Y-85655981D01*
X122907828Y-85353149D01*
X123210660Y-84899930D01*
X123317000Y-84365321D01*
X123317000Y-83274679D01*
X123210660Y-82740070D01*
X122907828Y-82286851D01*
X122454609Y-81984019D01*
X121920000Y-81877679D01*
X121385391Y-81984019D01*
X120932172Y-82286851D01*
X120650000Y-82709150D01*
X120367828Y-82286851D01*
X119914609Y-81984019D01*
X119380000Y-81877679D01*
X118845391Y-81984019D01*
X118392172Y-82286851D01*
X118110000Y-82709150D01*
X117827828Y-82286851D01*
X117374609Y-81984019D01*
X116840000Y-81877679D01*
X116305391Y-81984019D01*
X115852172Y-82286851D01*
X115560670Y-82723113D01*
X115542059Y-82660059D01*
X115198026Y-82234370D01*
X114717277Y-81972740D01*
X114643070Y-81957780D01*
X114427000Y-82080280D01*
X114427000Y-83693000D01*
X114447000Y-83693000D01*
X114447000Y-83947000D01*
X114427000Y-83947000D01*
X114427000Y-83967000D01*
X114173000Y-83967000D01*
X114173000Y-83947000D01*
X114153000Y-83947000D01*
X114153000Y-83693000D01*
X114173000Y-83693000D01*
X114173000Y-82080280D01*
X113956930Y-81957780D01*
X113882723Y-81972740D01*
X113401974Y-82234370D01*
X113057941Y-82660059D01*
X113039329Y-82723113D01*
X112747828Y-82286851D01*
X112294609Y-81984019D01*
X111760000Y-81877679D01*
X111310608Y-81967068D01*
X111310608Y-79720213D01*
X110510000Y-78919605D01*
X109709392Y-79720213D01*
X109778857Y-79962397D01*
X110302302Y-80149144D01*
X110857368Y-80121362D01*
X111241143Y-79962397D01*
X111310608Y-79720213D01*
X111310608Y-81967068D01*
X111225391Y-81984019D01*
X110772172Y-82286851D01*
X110490000Y-82709150D01*
X110207828Y-82286851D01*
X109754609Y-81984019D01*
X109220000Y-81877679D01*
X108685391Y-81984019D01*
X108232172Y-82286851D01*
X107929340Y-82740070D01*
X107823000Y-83274679D01*
X107823000Y-84365321D01*
X107929340Y-84899930D01*
X108232172Y-85353149D01*
X108685391Y-85655981D01*
X108781006Y-85675000D01*
X107664806Y-85675000D01*
X107664806Y-81280000D01*
X107396496Y-79931115D01*
X106632414Y-78787586D01*
X105488885Y-78023504D01*
X104140000Y-77755194D01*
X102791115Y-78023504D01*
X101647586Y-78787586D01*
X100883504Y-79931115D01*
X100615194Y-81280000D01*
X100883504Y-82628885D01*
X101647586Y-83772414D01*
X102791115Y-84536496D01*
X104140000Y-84804806D01*
X105488885Y-84536496D01*
X106632414Y-83772414D01*
X107396496Y-82628885D01*
X107664806Y-81280000D01*
X107664806Y-85675000D01*
X100044806Y-85675000D01*
X100044806Y-81280000D01*
X99776496Y-79931115D01*
X99012414Y-78787586D01*
X97868885Y-78023504D01*
X96520000Y-77755194D01*
X95171115Y-78023504D01*
X94027586Y-78787586D01*
X93263504Y-79931115D01*
X92995194Y-81280000D01*
X93263504Y-82628885D01*
X94027586Y-83772414D01*
X95171115Y-84536496D01*
X96520000Y-84804806D01*
X97868885Y-84536496D01*
X99012414Y-83772414D01*
X99776496Y-82628885D01*
X100044806Y-81280000D01*
X100044806Y-85675000D01*
X91996882Y-85675000D01*
X92375853Y-85296690D01*
X92773047Y-84340140D01*
X92773951Y-83304404D01*
X92378427Y-82347162D01*
X91646690Y-81614147D01*
X90690140Y-81216953D01*
X89654404Y-81216049D01*
X89585000Y-81244726D01*
X89585000Y-73660000D01*
X89532857Y-73397862D01*
X89384368Y-73175632D01*
X89162138Y-73027143D01*
X88900000Y-72975000D01*
X80149144Y-72975000D01*
X80149144Y-68787698D01*
X80137242Y-68549903D01*
X80137242Y-65763339D01*
X79925010Y-65249697D01*
X79532370Y-64856371D01*
X79019100Y-64643243D01*
X78463339Y-64642758D01*
X77949697Y-64854990D01*
X77556371Y-65247630D01*
X77343243Y-65760900D01*
X77342758Y-66316661D01*
X77554990Y-66830303D01*
X77947630Y-67223629D01*
X78139727Y-67303394D01*
X78008857Y-67357603D01*
X77939392Y-67599787D01*
X78740000Y-68400395D01*
X79540608Y-67599787D01*
X79471143Y-67357603D01*
X79330682Y-67307491D01*
X79530303Y-67225010D01*
X79923629Y-66832370D01*
X80136757Y-66319100D01*
X80137242Y-65763339D01*
X80137242Y-68549903D01*
X80121362Y-68232632D01*
X79962397Y-67848857D01*
X79720213Y-67779392D01*
X78919605Y-68580000D01*
X79720213Y-69380608D01*
X79962397Y-69311143D01*
X80149144Y-68787698D01*
X80149144Y-72975000D01*
X80137242Y-72975000D01*
X80137242Y-70843339D01*
X79925010Y-70329697D01*
X79532370Y-69936371D01*
X79340272Y-69856605D01*
X79471143Y-69802397D01*
X79540608Y-69560213D01*
X78740000Y-68759605D01*
X78560395Y-68939210D01*
X78560395Y-68580000D01*
X77759787Y-67779392D01*
X77517603Y-67848857D01*
X77330856Y-68372302D01*
X77358638Y-68927368D01*
X77517603Y-69311143D01*
X77759787Y-69380608D01*
X78560395Y-68580000D01*
X78560395Y-68939210D01*
X77939392Y-69560213D01*
X78008857Y-69802397D01*
X78149317Y-69852508D01*
X77949697Y-69934990D01*
X77556371Y-70327630D01*
X77343243Y-70840900D01*
X77342758Y-71396661D01*
X77554990Y-71910303D01*
X77947630Y-72303629D01*
X78460900Y-72516757D01*
X79016661Y-72517242D01*
X79530303Y-72305010D01*
X79923629Y-71912370D01*
X80136757Y-71399100D01*
X80137242Y-70843339D01*
X80137242Y-72975000D01*
X76885000Y-72975000D01*
X76885000Y-55295000D01*
X86360000Y-55295000D01*
X86622138Y-55242857D01*
X86844368Y-55094368D01*
X86992857Y-54872138D01*
X87045000Y-54610000D01*
X87045000Y-41910000D01*
X86992857Y-41647862D01*
X86844368Y-41425632D01*
X86622138Y-41277143D01*
X86360000Y-41225000D01*
X76885000Y-41225000D01*
X76885000Y-33705000D01*
X89613117Y-33705000D01*
X89234147Y-34083310D01*
X88836953Y-35039860D01*
X88836049Y-36075596D01*
X88844754Y-36096664D01*
X88610213Y-36029392D01*
X88430608Y-36208997D01*
X88430608Y-35849787D01*
X88361143Y-35607603D01*
X87837698Y-35420856D01*
X87282632Y-35448638D01*
X86898857Y-35607603D01*
X86829392Y-35849787D01*
X87630000Y-36650395D01*
X88430608Y-35849787D01*
X88430608Y-36208997D01*
X87809605Y-36830000D01*
X88610213Y-37630608D01*
X88852397Y-37561143D01*
X89039144Y-37037698D01*
X89012344Y-36502264D01*
X89231573Y-37032838D01*
X89963310Y-37765853D01*
X90919860Y-38163047D01*
X91955596Y-38163951D01*
X92912838Y-37768427D01*
X93645853Y-37036690D01*
X94043047Y-36080140D01*
X94043951Y-35044404D01*
X93648427Y-34087162D01*
X93266931Y-33705000D01*
X99637006Y-33705000D01*
X99541391Y-33724019D01*
X99088172Y-34026851D01*
X98785340Y-34480070D01*
X98679000Y-35014679D01*
X98679000Y-36105321D01*
X98785340Y-36639930D01*
X99088172Y-37093149D01*
X99541391Y-37395981D01*
X100076000Y-37502321D01*
X100610609Y-37395981D01*
X101063828Y-37093149D01*
X101346000Y-36670849D01*
X101628172Y-37093149D01*
X102081391Y-37395981D01*
X102616000Y-37502321D01*
X103150609Y-37395981D01*
X103603828Y-37093149D01*
X103886000Y-36670849D01*
X104168172Y-37093149D01*
X104621391Y-37395981D01*
X105156000Y-37502321D01*
X105690609Y-37395981D01*
X106143828Y-37093149D01*
X106426000Y-36670849D01*
X106708172Y-37093149D01*
X107161391Y-37395981D01*
X107696000Y-37502321D01*
X108230609Y-37395981D01*
X108683828Y-37093149D01*
X108966000Y-36670849D01*
X109248172Y-37093149D01*
X109701391Y-37395981D01*
X110236000Y-37502321D01*
X110770609Y-37395981D01*
X111223828Y-37093149D01*
X111506000Y-36670849D01*
X111788172Y-37093149D01*
X112241391Y-37395981D01*
X112776000Y-37502321D01*
X113310609Y-37395981D01*
X113763828Y-37093149D01*
X114046000Y-36670849D01*
X114328172Y-37093149D01*
X114781391Y-37395981D01*
X115316000Y-37502321D01*
X115850609Y-37395981D01*
X116303828Y-37093149D01*
X116586000Y-36670849D01*
X116868172Y-37093149D01*
X117321391Y-37395981D01*
X117856000Y-37502321D01*
X118390609Y-37395981D01*
X118843828Y-37093149D01*
X119146660Y-36639930D01*
X119253000Y-36105321D01*
X119253000Y-35014679D01*
X119146660Y-34480070D01*
X118843828Y-34026851D01*
X118390609Y-33724019D01*
X118294993Y-33705000D01*
X121481006Y-33705000D01*
X121385391Y-33724019D01*
X120932172Y-34026851D01*
X120629340Y-34480070D01*
X120523000Y-35014679D01*
X120523000Y-36105321D01*
X120629340Y-36639930D01*
X120932172Y-37093149D01*
X121385391Y-37395981D01*
X121920000Y-37502321D01*
X122454609Y-37395981D01*
X122907828Y-37093149D01*
X123190000Y-36670849D01*
X123472172Y-37093149D01*
X123925391Y-37395981D01*
X124460000Y-37502321D01*
X124994609Y-37395981D01*
X125447828Y-37093149D01*
X125730000Y-36670849D01*
X126012172Y-37093149D01*
X126465391Y-37395981D01*
X127000000Y-37502321D01*
X127534609Y-37395981D01*
X127987828Y-37093149D01*
X128270000Y-36670849D01*
X128552172Y-37093149D01*
X129005391Y-37395981D01*
X129540000Y-37502321D01*
X130074609Y-37395981D01*
X130527828Y-37093149D01*
X130810000Y-36670849D01*
X131092172Y-37093149D01*
X131545391Y-37395981D01*
X132080000Y-37502321D01*
X132614609Y-37395981D01*
X133067828Y-37093149D01*
X133350000Y-36670849D01*
X133632172Y-37093149D01*
X134085391Y-37395981D01*
X134620000Y-37502321D01*
X135154609Y-37395981D01*
X135607828Y-37093149D01*
X135890000Y-36670849D01*
X136172172Y-37093149D01*
X136625391Y-37395981D01*
X137160000Y-37502321D01*
X137694609Y-37395981D01*
X138147828Y-37093149D01*
X138430000Y-36670849D01*
X138712172Y-37093149D01*
X139165391Y-37395981D01*
X139700000Y-37502321D01*
X140234609Y-37395981D01*
X140687828Y-37093149D01*
X140990660Y-36639930D01*
X141097000Y-36105321D01*
X141097000Y-35014679D01*
X140990660Y-34480070D01*
X140687828Y-34026851D01*
X140234609Y-33724019D01*
X140138993Y-33705000D01*
X144341006Y-33705000D01*
X144245391Y-33724019D01*
X143792172Y-34026851D01*
X143489340Y-34480070D01*
X143383000Y-35014679D01*
X143383000Y-36105321D01*
X143489340Y-36639930D01*
X143792172Y-37093149D01*
X144245391Y-37395981D01*
X144780000Y-37502321D01*
X145314609Y-37395981D01*
X145767828Y-37093149D01*
X146050000Y-36670849D01*
X146332172Y-37093149D01*
X146785391Y-37395981D01*
X147320000Y-37502321D01*
X147854609Y-37395981D01*
X148307828Y-37093149D01*
X148590000Y-36670849D01*
X148872172Y-37093149D01*
X149325391Y-37395981D01*
X149860000Y-37502321D01*
X150394609Y-37395981D01*
X150847828Y-37093149D01*
X151130000Y-36670849D01*
X151412172Y-37093149D01*
X151865391Y-37395981D01*
X152400000Y-37502321D01*
X152934609Y-37395981D01*
X153387828Y-37093149D01*
X153670000Y-36670849D01*
X153952172Y-37093149D01*
X154405391Y-37395981D01*
X154940000Y-37502321D01*
X155474609Y-37395981D01*
X155927828Y-37093149D01*
X156210000Y-36670849D01*
X156492172Y-37093149D01*
X156945391Y-37395981D01*
X157480000Y-37502321D01*
X158014609Y-37395981D01*
X158467828Y-37093149D01*
X158750000Y-36670849D01*
X159032172Y-37093149D01*
X159485391Y-37395981D01*
X160020000Y-37502321D01*
X160554609Y-37395981D01*
X161007828Y-37093149D01*
X161290000Y-36670849D01*
X161572172Y-37093149D01*
X162025391Y-37395981D01*
X162560000Y-37502321D01*
X163094609Y-37395981D01*
X163547828Y-37093149D01*
X163850660Y-36639930D01*
X163898938Y-36397214D01*
X164161573Y-37032838D01*
X164893310Y-37765853D01*
X165849860Y-38163047D01*
X166885596Y-38163951D01*
X167842838Y-37768427D01*
X168575853Y-37036690D01*
X168928093Y-36188400D01*
X168994990Y-36350303D01*
X169387630Y-36743629D01*
X169595512Y-36829949D01*
X169389697Y-36914990D01*
X168996371Y-37307630D01*
X168783243Y-37820900D01*
X168782758Y-38376661D01*
X168994990Y-38890303D01*
X169387630Y-39283629D01*
X169595512Y-39369949D01*
X169389697Y-39454990D01*
X168996371Y-39847630D01*
X168783243Y-40360900D01*
X168782758Y-40916661D01*
X168994990Y-41430303D01*
X169387630Y-41823629D01*
X169595512Y-41909949D01*
X169389697Y-41994990D01*
X168996371Y-42387630D01*
X168783243Y-42900900D01*
X168782758Y-43456661D01*
X168994990Y-43970303D01*
X169387630Y-44363629D01*
X169595512Y-44449949D01*
X169389697Y-44534990D01*
X168996371Y-44927630D01*
X168783243Y-45440900D01*
X168782758Y-45996661D01*
X168994990Y-46510303D01*
X169387630Y-46903629D01*
X169595512Y-46989949D01*
X169389697Y-47074990D01*
X168996371Y-47467630D01*
X168783243Y-47980900D01*
X168782758Y-48536661D01*
X168994990Y-49050303D01*
X169387630Y-49443629D01*
X169595512Y-49529949D01*
X169389697Y-49614990D01*
X168996371Y-50007630D01*
X168783243Y-50520900D01*
X168782758Y-51076661D01*
X168994990Y-51590303D01*
X169387630Y-51983629D01*
X169595512Y-52069949D01*
X169389697Y-52154990D01*
X168996371Y-52547630D01*
X168783243Y-53060900D01*
X168782758Y-53616661D01*
X168994990Y-54130303D01*
X169387630Y-54523629D01*
X169595512Y-54609949D01*
X169389697Y-54694990D01*
X168996371Y-55087630D01*
X168783243Y-55600900D01*
X168782758Y-56156661D01*
X168994990Y-56670303D01*
X169387630Y-57063629D01*
X169595512Y-57149949D01*
X169389697Y-57234990D01*
X168996371Y-57627630D01*
X168783243Y-58140900D01*
X168782758Y-58696661D01*
X168994990Y-59210303D01*
X169387630Y-59603629D01*
X169595512Y-59689949D01*
X169389697Y-59774990D01*
X168996371Y-60167630D01*
X168783243Y-60680900D01*
X168782758Y-61236661D01*
X168994990Y-61750303D01*
X169387630Y-62143629D01*
X169595512Y-62229949D01*
X169389697Y-62314990D01*
X168996371Y-62707630D01*
X168783243Y-63220900D01*
X168782758Y-63776661D01*
X168994990Y-64290303D01*
X169387630Y-64683629D01*
X169595512Y-64769949D01*
X169389697Y-64854990D01*
X168996371Y-65247630D01*
X168783243Y-65760900D01*
X168782758Y-66316661D01*
X168994990Y-66830303D01*
X169387630Y-67223629D01*
X169595512Y-67309949D01*
X169389697Y-67394990D01*
X168996371Y-67787630D01*
X168783243Y-68300900D01*
X168782758Y-68856661D01*
X168994990Y-69370303D01*
X169387630Y-69763629D01*
X169595512Y-69849949D01*
X169389697Y-69934990D01*
X168996371Y-70327630D01*
X168783243Y-70840900D01*
X168782758Y-71396661D01*
X168994990Y-71910303D01*
X169387630Y-72303629D01*
X169595512Y-72389949D01*
X169389697Y-72474990D01*
X168996371Y-72867630D01*
X168783243Y-73380900D01*
X168782758Y-73936661D01*
X168994990Y-74450303D01*
X169387630Y-74843629D01*
X169595512Y-74929949D01*
X169389697Y-75014990D01*
X168996371Y-75407630D01*
X168783243Y-75920900D01*
X168782758Y-76476661D01*
X168994990Y-76990303D01*
X169387630Y-77383629D01*
X169595512Y-77469949D01*
X169389697Y-77554990D01*
X168996371Y-77947630D01*
X168783243Y-78460900D01*
X168782758Y-79016661D01*
X168994990Y-79530303D01*
X169387630Y-79923629D01*
X169900900Y-80136757D01*
X170456661Y-80137242D01*
X170970303Y-79925010D01*
X171363629Y-79532370D01*
X171449949Y-79324487D01*
X171534990Y-79530303D01*
X171927630Y-79923629D01*
X172440900Y-80136757D01*
X172996661Y-80137242D01*
X173510303Y-79925010D01*
X173863000Y-79572928D01*
X173863000Y-81475586D01*
M02*
