G04 #@! TF.FileFunction,Copper,L2,Bot,Signal*
%FSLAX46Y46*%
G04 Gerber Fmt 4.6, Leading zero omitted, Abs format (unit mm)*
G04 Created by KiCad (PCBNEW (after 2015-mar-04 BZR unknown)-product) date 4/2/2015 5:06:05 PM*
%MOMM*%
G01*
G04 APERTURE LIST*
%ADD10C,0.100000*%
%ADD11C,1.524000*%
%ADD12O,1.524000X2.540000*%
%ADD13C,3.937000*%
%ADD14C,0.600000*%
%ADD15C,0.400000*%
%ADD16C,0.254000*%
G04 APERTURE END LIST*
D10*
D11*
X85090000Y-39370000D03*
X85090000Y-36830000D03*
X87630000Y-36830000D03*
X87630000Y-39370000D03*
X82550000Y-39370000D03*
X82550000Y-36830000D03*
X80010000Y-36830000D03*
X80010000Y-39370000D03*
X92710000Y-49630000D03*
X92710000Y-44550000D03*
X92710000Y-47090000D03*
X92710000Y-52170000D03*
X90170000Y-49630000D03*
X90170000Y-52170000D03*
X90170000Y-47090000D03*
X90170000Y-44550000D03*
X127100000Y-83820000D03*
X129540000Y-83820000D03*
X132080000Y-83820000D03*
X134620000Y-83820000D03*
X170180000Y-73660000D03*
X170180000Y-71120000D03*
X170180000Y-68580000D03*
X170180000Y-66040000D03*
X170180000Y-66040000D03*
X170180000Y-68580000D03*
X170180000Y-71120000D03*
X170180000Y-73660000D03*
X160020000Y-72620000D03*
X160020000Y-67540000D03*
X165100000Y-68580000D03*
X165100000Y-71120000D03*
X115500000Y-60960000D03*
X115500000Y-39940000D03*
X162560000Y-39940000D03*
X162560000Y-60960000D03*
X110510000Y-68580000D03*
X110510000Y-71120000D03*
X110510000Y-73660000D03*
X110510000Y-76200000D03*
X110510000Y-78740000D03*
X144780000Y-83820000D03*
X142240000Y-83820000D03*
X139700000Y-83820000D03*
X78740000Y-71120000D03*
X78740000Y-68580000D03*
X78740000Y-66040000D03*
X100330000Y-41910000D03*
X100330000Y-39370000D03*
X105410000Y-39370000D03*
X105410000Y-41910000D03*
X102870000Y-39370000D03*
X102870000Y-41910000D03*
X107950000Y-41910000D03*
X107950000Y-39370000D03*
X172720000Y-78740000D03*
X170180000Y-78740000D03*
X172720000Y-76200000D03*
X170180000Y-76200000D03*
X172720000Y-73660000D03*
X170180000Y-73660000D03*
X172720000Y-71120000D03*
X170180000Y-71120000D03*
X172720000Y-68580000D03*
X170180000Y-68580000D03*
X172720000Y-66040000D03*
X170180000Y-66040000D03*
X172720000Y-63500000D03*
X170180000Y-63500000D03*
X172720000Y-60960000D03*
X170180000Y-60960000D03*
X172720000Y-58420000D03*
X170180000Y-58420000D03*
X172720000Y-55880000D03*
X170180000Y-55880000D03*
D12*
X144780000Y-35560000D03*
X147320000Y-35560000D03*
X149860000Y-35560000D03*
X152400000Y-35560000D03*
X154940000Y-35560000D03*
X157480000Y-35560000D03*
X160020000Y-35560000D03*
X162560000Y-35560000D03*
X167640000Y-83820000D03*
X165100000Y-83820000D03*
X162560000Y-83820000D03*
X160020000Y-83820000D03*
X149860000Y-83820000D03*
X152400000Y-83820000D03*
X154940000Y-83820000D03*
X157480000Y-83820000D03*
X121920000Y-83820000D03*
X119380000Y-83820000D03*
X116840000Y-83820000D03*
X111760000Y-83820000D03*
X109220000Y-83820000D03*
X139700000Y-35560000D03*
X137160000Y-35560000D03*
X134620000Y-35560000D03*
X132080000Y-35560000D03*
X129540000Y-35560000D03*
X127000000Y-35560000D03*
X124460000Y-35560000D03*
X121920000Y-35560000D03*
X117856000Y-35560000D03*
X115316000Y-35560000D03*
X112776000Y-35560000D03*
X110236000Y-35560000D03*
X107696000Y-35560000D03*
X105156000Y-35560000D03*
X102616000Y-35560000D03*
X100076000Y-35560000D03*
X114300000Y-83820000D03*
D13*
X172720000Y-83820000D03*
X166370000Y-35560000D03*
X91440000Y-35560000D03*
X90170000Y-83820000D03*
D11*
X170180000Y-38100000D03*
X172720000Y-38100000D03*
X170180000Y-40640000D03*
X172720000Y-40640000D03*
X170180000Y-43180000D03*
X172720000Y-43180000D03*
X170180000Y-45720000D03*
X172720000Y-45720000D03*
X170180000Y-35560000D03*
X172720000Y-35560000D03*
X172720000Y-48260000D03*
X170180000Y-48260000D03*
X170180000Y-50800000D03*
X172720000Y-50800000D03*
X170180000Y-53340000D03*
X172720000Y-53340000D03*
X170180000Y-55880000D03*
X172720000Y-55880000D03*
X170180000Y-58420000D03*
X172720000Y-58420000D03*
X170180000Y-60960000D03*
X172720000Y-60960000D03*
X170180000Y-63500000D03*
X172720000Y-63500000D03*
X170180000Y-66040000D03*
X172720000Y-66040000D03*
X170180000Y-68580000D03*
X172720000Y-68580000D03*
X170180000Y-71120000D03*
X172720000Y-71120000D03*
X170180000Y-73660000D03*
X172720000Y-73660000D03*
X170180000Y-76200000D03*
X172720000Y-76200000D03*
X170180000Y-78740000D03*
X172720000Y-78740000D03*
D14*
X133350000Y-41910000D03*
X132080000Y-48260000D03*
X114300000Y-43180000D03*
X119380000Y-41910000D03*
X129540000Y-44450000D03*
X134620000Y-74930000D03*
X127000000Y-44450000D03*
X132080000Y-74930000D03*
X124460000Y-44450000D03*
X129540000Y-74930000D03*
X121920000Y-44450000D03*
X127000000Y-74930000D03*
X167640000Y-77470000D03*
X102870000Y-73660000D03*
D15*
X100330000Y-41910000D02*
X100330000Y-43180000D01*
X147320000Y-38100000D02*
X149860000Y-35560000D01*
X137160000Y-38100000D02*
X147320000Y-38100000D01*
X133350000Y-41910000D02*
X137160000Y-38100000D01*
X119380000Y-48260000D02*
X132080000Y-48260000D01*
X116840000Y-45720000D02*
X119380000Y-48260000D01*
X102870000Y-45720000D02*
X116840000Y-45720000D01*
X100330000Y-43180000D02*
X102870000Y-45720000D01*
X107950000Y-39370000D02*
X113030000Y-39370000D01*
X153670000Y-36830000D02*
X152400000Y-35560000D01*
X153670000Y-39370000D02*
X153670000Y-36830000D01*
X151130000Y-41910000D02*
X153670000Y-39370000D01*
X139700000Y-41910000D02*
X151130000Y-41910000D01*
X135890000Y-45720000D02*
X139700000Y-41910000D01*
X119380000Y-45720000D02*
X135890000Y-45720000D01*
X113030000Y-39370000D02*
X119380000Y-45720000D01*
X165100000Y-68580000D02*
X161060000Y-68580000D01*
X161060000Y-68580000D02*
X160020000Y-67540000D01*
X165100000Y-83820000D02*
X165100000Y-73660000D01*
X163830000Y-69850000D02*
X165100000Y-68580000D01*
X163830000Y-72390000D02*
X163830000Y-69850000D01*
X165100000Y-73660000D02*
X163830000Y-72390000D01*
X144780000Y-83820000D02*
X149860000Y-83820000D01*
X90170000Y-44550000D02*
X88900000Y-44550000D01*
X90170000Y-47090000D02*
X88900000Y-47090000D01*
X90170000Y-49630000D02*
X88900000Y-49630000D01*
X96520000Y-40640000D02*
X91440000Y-40640000D01*
X88900000Y-50900000D02*
X90170000Y-52170000D01*
X88900000Y-43180000D02*
X88900000Y-44550000D01*
X88900000Y-44550000D02*
X88900000Y-47090000D01*
X88900000Y-47090000D02*
X88900000Y-49630000D01*
X88900000Y-49630000D02*
X88900000Y-50900000D01*
X91440000Y-40640000D02*
X88900000Y-43180000D01*
X105410000Y-39370000D02*
X104140000Y-38100000D01*
X99060000Y-38100000D02*
X97790000Y-39370000D01*
X104140000Y-38100000D02*
X99060000Y-38100000D01*
X115500000Y-60960000D02*
X114300000Y-60960000D01*
X97790000Y-39370000D02*
X100330000Y-39370000D01*
X96520000Y-40640000D02*
X97790000Y-39370000D01*
X96520000Y-43180000D02*
X96520000Y-40640000D01*
X114300000Y-60960000D02*
X96520000Y-43180000D01*
X115500000Y-39940000D02*
X117410000Y-39940000D01*
X113030000Y-41910000D02*
X107950000Y-41910000D01*
X114300000Y-43180000D02*
X113030000Y-41910000D01*
X117410000Y-39940000D02*
X119380000Y-41910000D01*
X134620000Y-83820000D02*
X134620000Y-74930000D01*
X129540000Y-44450000D02*
X129540000Y-35560000D01*
X132080000Y-83820000D02*
X132080000Y-74930000D01*
X127000000Y-44450000D02*
X127000000Y-35560000D01*
X129540000Y-83820000D02*
X129540000Y-74930000D01*
X124460000Y-44450000D02*
X124460000Y-35560000D01*
X127100000Y-83820000D02*
X127100000Y-75030000D01*
X121920000Y-44450000D02*
X121920000Y-35560000D01*
X127100000Y-75030000D02*
X127000000Y-74930000D01*
X129540000Y-60960000D02*
X129540000Y-54610000D01*
X121920000Y-68580000D02*
X129540000Y-60960000D01*
X110510000Y-68580000D02*
X121920000Y-68580000D01*
X165100000Y-43180000D02*
X170180000Y-38100000D01*
X140970000Y-43180000D02*
X165100000Y-43180000D01*
X129540000Y-54610000D02*
X140970000Y-43180000D01*
X110510000Y-71120000D02*
X121920000Y-71120000D01*
X142240000Y-44450000D02*
X166370000Y-44450000D01*
X132080000Y-54610000D02*
X142240000Y-44450000D01*
X132080000Y-60960000D02*
X132080000Y-54610000D01*
X121920000Y-71120000D02*
X132080000Y-60960000D01*
X166370000Y-44450000D02*
X170180000Y-40640000D01*
X110510000Y-73660000D02*
X121920000Y-73660000D01*
X167640000Y-45720000D02*
X170180000Y-43180000D01*
X143510000Y-45720000D02*
X167640000Y-45720000D01*
X134620000Y-54610000D02*
X143510000Y-45720000D01*
X134620000Y-60960000D02*
X134620000Y-54610000D01*
X121920000Y-73660000D02*
X134620000Y-60960000D01*
X102870000Y-73660000D02*
X95250000Y-73660000D01*
X170180000Y-76200000D02*
X168910000Y-76200000D01*
X167640000Y-77470000D02*
X168910000Y-76200000D01*
X87630000Y-66040000D02*
X78740000Y-66040000D01*
X95250000Y-73660000D02*
X87630000Y-66040000D01*
D16*
G36*
X169595512Y-36829949D02*
X169389697Y-36914990D01*
X168996371Y-37307630D01*
X168783243Y-37820900D01*
X168782810Y-38316321D01*
X168042677Y-39056454D01*
X168042677Y-37412282D01*
X166370000Y-35739605D01*
X164697323Y-37412282D01*
X164914252Y-37779730D01*
X165874518Y-38167853D01*
X166910216Y-38158955D01*
X167825748Y-37779730D01*
X168042677Y-37412282D01*
X168042677Y-39056454D01*
X164754132Y-42345000D01*
X163969144Y-42345000D01*
X163969144Y-40147698D01*
X163941362Y-39592632D01*
X163782397Y-39208857D01*
X163540213Y-39139392D01*
X163360608Y-39318997D01*
X163360608Y-38959787D01*
X163291143Y-38717603D01*
X162767698Y-38530856D01*
X162212632Y-38558638D01*
X161828857Y-38717603D01*
X161759392Y-38959787D01*
X162560000Y-39760395D01*
X163360608Y-38959787D01*
X163360608Y-39318997D01*
X162739605Y-39940000D01*
X163540213Y-40740608D01*
X163782397Y-40671143D01*
X163969144Y-40147698D01*
X163969144Y-42345000D01*
X163360608Y-42345000D01*
X163360608Y-40920213D01*
X162560000Y-40119605D01*
X162380395Y-40299210D01*
X162380395Y-39940000D01*
X161579787Y-39139392D01*
X161337603Y-39208857D01*
X161150856Y-39732302D01*
X161178638Y-40287368D01*
X161337603Y-40671143D01*
X161579787Y-40740608D01*
X162380395Y-39940000D01*
X162380395Y-40299210D01*
X161759392Y-40920213D01*
X161828857Y-41162397D01*
X162352302Y-41349144D01*
X162907368Y-41321362D01*
X163291143Y-41162397D01*
X163360608Y-40920213D01*
X163360608Y-42345000D01*
X151875868Y-42345000D01*
X154260434Y-39960434D01*
X154441439Y-39689541D01*
X154441439Y-39689540D01*
X154504999Y-39370000D01*
X154505000Y-39370000D01*
X154505000Y-37415794D01*
X154940000Y-37502321D01*
X155474609Y-37395981D01*
X155927828Y-37093149D01*
X156210000Y-36670849D01*
X156492172Y-37093149D01*
X156945391Y-37395981D01*
X157480000Y-37502321D01*
X158014609Y-37395981D01*
X158467828Y-37093149D01*
X158750000Y-36670849D01*
X159032172Y-37093149D01*
X159485391Y-37395981D01*
X160020000Y-37502321D01*
X160554609Y-37395981D01*
X161007828Y-37093149D01*
X161290000Y-36670849D01*
X161572172Y-37093149D01*
X162025391Y-37395981D01*
X162560000Y-37502321D01*
X163094609Y-37395981D01*
X163547828Y-37093149D01*
X163850660Y-36639930D01*
X163897357Y-36405162D01*
X164150270Y-37015748D01*
X164517718Y-37232677D01*
X166190395Y-35560000D01*
X166176252Y-35545857D01*
X166355857Y-35366252D01*
X166370000Y-35380395D01*
X166384142Y-35366252D01*
X166563747Y-35545857D01*
X166549605Y-35560000D01*
X168222282Y-37232677D01*
X168589730Y-37015748D01*
X168926089Y-36183551D01*
X168994990Y-36350303D01*
X169387630Y-36743629D01*
X169595512Y-36829949D01*
X169595512Y-36829949D01*
G37*
X169595512Y-36829949D02*
X169389697Y-36914990D01*
X168996371Y-37307630D01*
X168783243Y-37820900D01*
X168782810Y-38316321D01*
X168042677Y-39056454D01*
X168042677Y-37412282D01*
X166370000Y-35739605D01*
X164697323Y-37412282D01*
X164914252Y-37779730D01*
X165874518Y-38167853D01*
X166910216Y-38158955D01*
X167825748Y-37779730D01*
X168042677Y-37412282D01*
X168042677Y-39056454D01*
X164754132Y-42345000D01*
X163969144Y-42345000D01*
X163969144Y-40147698D01*
X163941362Y-39592632D01*
X163782397Y-39208857D01*
X163540213Y-39139392D01*
X163360608Y-39318997D01*
X163360608Y-38959787D01*
X163291143Y-38717603D01*
X162767698Y-38530856D01*
X162212632Y-38558638D01*
X161828857Y-38717603D01*
X161759392Y-38959787D01*
X162560000Y-39760395D01*
X163360608Y-38959787D01*
X163360608Y-39318997D01*
X162739605Y-39940000D01*
X163540213Y-40740608D01*
X163782397Y-40671143D01*
X163969144Y-40147698D01*
X163969144Y-42345000D01*
X163360608Y-42345000D01*
X163360608Y-40920213D01*
X162560000Y-40119605D01*
X162380395Y-40299210D01*
X162380395Y-39940000D01*
X161579787Y-39139392D01*
X161337603Y-39208857D01*
X161150856Y-39732302D01*
X161178638Y-40287368D01*
X161337603Y-40671143D01*
X161579787Y-40740608D01*
X162380395Y-39940000D01*
X162380395Y-40299210D01*
X161759392Y-40920213D01*
X161828857Y-41162397D01*
X162352302Y-41349144D01*
X162907368Y-41321362D01*
X163291143Y-41162397D01*
X163360608Y-40920213D01*
X163360608Y-42345000D01*
X151875868Y-42345000D01*
X154260434Y-39960434D01*
X154441439Y-39689541D01*
X154441439Y-39689540D01*
X154504999Y-39370000D01*
X154505000Y-39370000D01*
X154505000Y-37415794D01*
X154940000Y-37502321D01*
X155474609Y-37395981D01*
X155927828Y-37093149D01*
X156210000Y-36670849D01*
X156492172Y-37093149D01*
X156945391Y-37395981D01*
X157480000Y-37502321D01*
X158014609Y-37395981D01*
X158467828Y-37093149D01*
X158750000Y-36670849D01*
X159032172Y-37093149D01*
X159485391Y-37395981D01*
X160020000Y-37502321D01*
X160554609Y-37395981D01*
X161007828Y-37093149D01*
X161290000Y-36670849D01*
X161572172Y-37093149D01*
X162025391Y-37395981D01*
X162560000Y-37502321D01*
X163094609Y-37395981D01*
X163547828Y-37093149D01*
X163850660Y-36639930D01*
X163897357Y-36405162D01*
X164150270Y-37015748D01*
X164517718Y-37232677D01*
X166190395Y-35560000D01*
X166176252Y-35545857D01*
X166355857Y-35366252D01*
X166370000Y-35380395D01*
X166384142Y-35366252D01*
X166563747Y-35545857D01*
X166549605Y-35560000D01*
X168222282Y-37232677D01*
X168589730Y-37015748D01*
X168926089Y-36183551D01*
X168994990Y-36350303D01*
X169387630Y-36743629D01*
X169595512Y-36829949D01*
G36*
X175133000Y-82830848D02*
X174939730Y-82364252D01*
X174572282Y-82147323D01*
X174392677Y-82326928D01*
X174392677Y-81967718D01*
X174175748Y-81600270D01*
X173215482Y-81212147D01*
X172179784Y-81221045D01*
X171264252Y-81600270D01*
X171047323Y-81967718D01*
X172720000Y-83640395D01*
X174392677Y-81967718D01*
X174392677Y-82326928D01*
X172899605Y-83820000D01*
X172913747Y-83834142D01*
X172734142Y-84013747D01*
X172720000Y-83999605D01*
X172705857Y-84013747D01*
X172540395Y-83848285D01*
X172526252Y-83834142D01*
X172540395Y-83820000D01*
X170867718Y-82147323D01*
X170500270Y-82364252D01*
X170112147Y-83324518D01*
X170121045Y-84360216D01*
X170500270Y-85275748D01*
X170867716Y-85492675D01*
X170754936Y-85605456D01*
X170824480Y-85675000D01*
X168078993Y-85675000D01*
X168174609Y-85655981D01*
X168627828Y-85353149D01*
X168930660Y-84899930D01*
X169037000Y-84365321D01*
X169037000Y-83274679D01*
X168930660Y-82740070D01*
X168627828Y-82286851D01*
X168174609Y-81984019D01*
X167640000Y-81877679D01*
X167105391Y-81984019D01*
X166652172Y-82286851D01*
X166370000Y-82709150D01*
X166087828Y-82286851D01*
X165935000Y-82184734D01*
X165935000Y-73660000D01*
X165871439Y-73340460D01*
X165871439Y-73340459D01*
X165690434Y-73069566D01*
X165137901Y-72517033D01*
X165376661Y-72517242D01*
X165890303Y-72305010D01*
X166283629Y-71912370D01*
X166496757Y-71399100D01*
X166497242Y-70843339D01*
X166285010Y-70329697D01*
X165892370Y-69936371D01*
X165684487Y-69850050D01*
X165890303Y-69765010D01*
X166283629Y-69372370D01*
X166496757Y-68859100D01*
X166497242Y-68303339D01*
X166285010Y-67789697D01*
X165892370Y-67396371D01*
X165379100Y-67183243D01*
X164823339Y-67182758D01*
X164309697Y-67394990D01*
X163959075Y-67745000D01*
X163957242Y-67745000D01*
X163957242Y-60683339D01*
X163745010Y-60169697D01*
X163352370Y-59776371D01*
X162839100Y-59563243D01*
X162283339Y-59562758D01*
X161769697Y-59774990D01*
X161376371Y-60167630D01*
X161163243Y-60680900D01*
X161162758Y-61236661D01*
X161374990Y-61750303D01*
X161767630Y-62143629D01*
X162280900Y-62356757D01*
X162836661Y-62357242D01*
X163350303Y-62145010D01*
X163743629Y-61752370D01*
X163956757Y-61239100D01*
X163957242Y-60683339D01*
X163957242Y-67745000D01*
X161416821Y-67745000D01*
X161417242Y-67263339D01*
X161205010Y-66749697D01*
X160812370Y-66356371D01*
X160299100Y-66143243D01*
X159743339Y-66142758D01*
X159229697Y-66354990D01*
X158836371Y-66747630D01*
X158623243Y-67260900D01*
X158622758Y-67816661D01*
X158834990Y-68330303D01*
X159227630Y-68723629D01*
X159740900Y-68936757D01*
X160236321Y-68937189D01*
X160469566Y-69170434D01*
X160740459Y-69351439D01*
X160740460Y-69351439D01*
X161060000Y-69415000D01*
X163135708Y-69415000D01*
X163058561Y-69530459D01*
X162995000Y-69850000D01*
X162995000Y-72390000D01*
X163058561Y-72709541D01*
X163239566Y-72980434D01*
X164265000Y-74005868D01*
X164265000Y-82184734D01*
X164112172Y-82286851D01*
X163830000Y-82709150D01*
X163547828Y-82286851D01*
X163094609Y-81984019D01*
X162560000Y-81877679D01*
X162025391Y-81984019D01*
X161572172Y-82286851D01*
X161429144Y-82500906D01*
X161429144Y-72827698D01*
X161401362Y-72272632D01*
X161242397Y-71888857D01*
X161000213Y-71819392D01*
X160820608Y-71998997D01*
X160820608Y-71639787D01*
X160751143Y-71397603D01*
X160227698Y-71210856D01*
X159672632Y-71238638D01*
X159288857Y-71397603D01*
X159219392Y-71639787D01*
X160020000Y-72440395D01*
X160820608Y-71639787D01*
X160820608Y-71998997D01*
X160199605Y-72620000D01*
X161000213Y-73420608D01*
X161242397Y-73351143D01*
X161429144Y-72827698D01*
X161429144Y-82500906D01*
X161290000Y-82709150D01*
X161007828Y-82286851D01*
X160820608Y-82161754D01*
X160820608Y-73600213D01*
X160020000Y-72799605D01*
X159840395Y-72979210D01*
X159840395Y-72620000D01*
X159039787Y-71819392D01*
X158797603Y-71888857D01*
X158610856Y-72412302D01*
X158638638Y-72967368D01*
X158797603Y-73351143D01*
X159039787Y-73420608D01*
X159840395Y-72620000D01*
X159840395Y-72979210D01*
X159219392Y-73600213D01*
X159288857Y-73842397D01*
X159812302Y-74029144D01*
X160367368Y-74001362D01*
X160751143Y-73842397D01*
X160820608Y-73600213D01*
X160820608Y-82161754D01*
X160554609Y-81984019D01*
X160020000Y-81877679D01*
X159485391Y-81984019D01*
X159032172Y-82286851D01*
X158750000Y-82709150D01*
X158467828Y-82286851D01*
X158014609Y-81984019D01*
X157480000Y-81877679D01*
X156945391Y-81984019D01*
X156492172Y-82286851D01*
X156210000Y-82709150D01*
X155927828Y-82286851D01*
X155474609Y-81984019D01*
X154940000Y-81877679D01*
X154405391Y-81984019D01*
X153952172Y-82286851D01*
X153884806Y-82387671D01*
X153884806Y-58420000D01*
X153616496Y-57071115D01*
X152852414Y-55927586D01*
X151708885Y-55163504D01*
X150360000Y-54895194D01*
X149011115Y-55163504D01*
X147867586Y-55927586D01*
X147103504Y-57071115D01*
X146835194Y-58420000D01*
X147103504Y-59768885D01*
X147867586Y-60912414D01*
X149011115Y-61676496D01*
X150360000Y-61944806D01*
X151708885Y-61676496D01*
X152852414Y-60912414D01*
X153616496Y-59768885D01*
X153884806Y-58420000D01*
X153884806Y-82387671D01*
X153670000Y-82709150D01*
X153387828Y-82286851D01*
X152934609Y-81984019D01*
X152400000Y-81877679D01*
X151865391Y-81984019D01*
X151412172Y-82286851D01*
X151130000Y-82709150D01*
X150847828Y-82286851D01*
X150394609Y-81984019D01*
X149860000Y-81877679D01*
X149325391Y-81984019D01*
X148872172Y-82286851D01*
X148569340Y-82740070D01*
X148520620Y-82985000D01*
X145920390Y-82985000D01*
X145572370Y-82636371D01*
X145059100Y-82423243D01*
X144503339Y-82422758D01*
X144195000Y-82550160D01*
X144195000Y-62230000D01*
X144195000Y-54610000D01*
X144142857Y-54347862D01*
X143994368Y-54125632D01*
X143772138Y-53977143D01*
X143510000Y-53925000D01*
X138430000Y-53925000D01*
X138167862Y-53977143D01*
X137945632Y-54125632D01*
X137797143Y-54347862D01*
X137745000Y-54610000D01*
X137745000Y-62230000D01*
X137797143Y-62492138D01*
X137945632Y-62714368D01*
X138167862Y-62862857D01*
X138430000Y-62915000D01*
X142240000Y-62915000D01*
X143510000Y-62915000D01*
X143772138Y-62862857D01*
X143994368Y-62714368D01*
X144142857Y-62492138D01*
X144195000Y-62230000D01*
X144195000Y-82550160D01*
X143989697Y-82634990D01*
X143596371Y-83027630D01*
X143510050Y-83235512D01*
X143425010Y-83029697D01*
X143032370Y-82636371D01*
X142519100Y-82423243D01*
X141963339Y-82422758D01*
X141449697Y-82634990D01*
X141056371Y-83027630D01*
X140976605Y-83219727D01*
X140922397Y-83088857D01*
X140680213Y-83019392D01*
X140500608Y-83198997D01*
X140500608Y-82839787D01*
X140431143Y-82597603D01*
X139907698Y-82410856D01*
X139352632Y-82438638D01*
X138968857Y-82597603D01*
X138899392Y-82839787D01*
X139700000Y-83640395D01*
X140500608Y-82839787D01*
X140500608Y-83198997D01*
X139879605Y-83820000D01*
X140680213Y-84620608D01*
X140922397Y-84551143D01*
X140972508Y-84410682D01*
X141054990Y-84610303D01*
X141447630Y-85003629D01*
X141960900Y-85216757D01*
X142516661Y-85217242D01*
X143030303Y-85005010D01*
X143423629Y-84612370D01*
X143509949Y-84404487D01*
X143594990Y-84610303D01*
X143987630Y-85003629D01*
X144500900Y-85216757D01*
X145056661Y-85217242D01*
X145570303Y-85005010D01*
X145920924Y-84655000D01*
X148520620Y-84655000D01*
X148569340Y-84899930D01*
X148872172Y-85353149D01*
X149325391Y-85655981D01*
X149421006Y-85675000D01*
X140500608Y-85675000D01*
X140500608Y-84800213D01*
X139700000Y-83999605D01*
X139520395Y-84179210D01*
X139520395Y-83820000D01*
X138719787Y-83019392D01*
X138477603Y-83088857D01*
X138290856Y-83612302D01*
X138318638Y-84167368D01*
X138477603Y-84551143D01*
X138719787Y-84620608D01*
X139520395Y-83820000D01*
X139520395Y-84179210D01*
X138899392Y-84800213D01*
X138968857Y-85042397D01*
X139492302Y-85229144D01*
X140047368Y-85201362D01*
X140431143Y-85042397D01*
X140500608Y-84800213D01*
X140500608Y-85675000D01*
X136017242Y-85675000D01*
X136017242Y-83543339D01*
X135805010Y-83029697D01*
X135455000Y-82679075D01*
X135455000Y-75357234D01*
X135554838Y-75116799D01*
X135555162Y-74744833D01*
X135413117Y-74401057D01*
X135150327Y-74137808D01*
X134806799Y-73995162D01*
X134434833Y-73994838D01*
X134091057Y-74136883D01*
X133827808Y-74399673D01*
X133685162Y-74743201D01*
X133684838Y-75115167D01*
X133785000Y-75357578D01*
X133785000Y-82679609D01*
X133436371Y-83027630D01*
X133350050Y-83235512D01*
X133265010Y-83029697D01*
X132915000Y-82679075D01*
X132915000Y-75357234D01*
X133014838Y-75116799D01*
X133015162Y-74744833D01*
X132873117Y-74401057D01*
X132610327Y-74137808D01*
X132266799Y-73995162D01*
X131894833Y-73994838D01*
X131551057Y-74136883D01*
X131287808Y-74399673D01*
X131145162Y-74743201D01*
X131144838Y-75115167D01*
X131245000Y-75357578D01*
X131245000Y-82679609D01*
X130896371Y-83027630D01*
X130810050Y-83235512D01*
X130725010Y-83029697D01*
X130375000Y-82679075D01*
X130375000Y-75357234D01*
X130474838Y-75116799D01*
X130475162Y-74744833D01*
X130333117Y-74401057D01*
X130070327Y-74137808D01*
X129726799Y-73995162D01*
X129354833Y-73994838D01*
X129011057Y-74136883D01*
X128747808Y-74399673D01*
X128605162Y-74743201D01*
X128604838Y-75115167D01*
X128705000Y-75357578D01*
X128705000Y-82679609D01*
X128356371Y-83027630D01*
X128320174Y-83114801D01*
X128285010Y-83029697D01*
X127935000Y-82679075D01*
X127935000Y-75030000D01*
X127934913Y-75029567D01*
X127935162Y-74744833D01*
X127793117Y-74401057D01*
X127530327Y-74137808D01*
X127186799Y-73995162D01*
X126814833Y-73994838D01*
X126471057Y-74136883D01*
X126207808Y-74399673D01*
X126065162Y-74743201D01*
X126064838Y-75115167D01*
X126206883Y-75458943D01*
X126265000Y-75517161D01*
X126265000Y-82679609D01*
X125916371Y-83027630D01*
X125703243Y-83540900D01*
X125702758Y-84096661D01*
X125914990Y-84610303D01*
X126307630Y-85003629D01*
X126820900Y-85216757D01*
X127376661Y-85217242D01*
X127890303Y-85005010D01*
X128283629Y-84612370D01*
X128319825Y-84525198D01*
X128354990Y-84610303D01*
X128747630Y-85003629D01*
X129260900Y-85216757D01*
X129816661Y-85217242D01*
X130330303Y-85005010D01*
X130723629Y-84612370D01*
X130809949Y-84404487D01*
X130894990Y-84610303D01*
X131287630Y-85003629D01*
X131800900Y-85216757D01*
X132356661Y-85217242D01*
X132870303Y-85005010D01*
X133263629Y-84612370D01*
X133349949Y-84404487D01*
X133434990Y-84610303D01*
X133827630Y-85003629D01*
X134340900Y-85216757D01*
X134896661Y-85217242D01*
X135410303Y-85005010D01*
X135803629Y-84612370D01*
X136016757Y-84099100D01*
X136017242Y-83543339D01*
X136017242Y-85675000D01*
X122358993Y-85675000D01*
X122454609Y-85655981D01*
X122907828Y-85353149D01*
X123210660Y-84899930D01*
X123317000Y-84365321D01*
X123317000Y-83274679D01*
X123210660Y-82740070D01*
X122907828Y-82286851D01*
X122454609Y-81984019D01*
X121920000Y-81877679D01*
X121385391Y-81984019D01*
X120932172Y-82286851D01*
X120650000Y-82709150D01*
X120367828Y-82286851D01*
X119914609Y-81984019D01*
X119380000Y-81877679D01*
X118845391Y-81984019D01*
X118392172Y-82286851D01*
X118100670Y-82723113D01*
X118082059Y-82660059D01*
X117738026Y-82234370D01*
X117257277Y-81972740D01*
X117183070Y-81957780D01*
X116967000Y-82080280D01*
X116967000Y-83693000D01*
X116987000Y-83693000D01*
X116987000Y-83947000D01*
X116967000Y-83947000D01*
X116967000Y-83967000D01*
X116713000Y-83967000D01*
X116713000Y-83947000D01*
X116693000Y-83947000D01*
X116693000Y-83693000D01*
X116713000Y-83693000D01*
X116713000Y-82080280D01*
X116496930Y-81957780D01*
X116422723Y-81972740D01*
X115941974Y-82234370D01*
X115597941Y-82660059D01*
X115579329Y-82723113D01*
X115287828Y-82286851D01*
X114834609Y-81984019D01*
X114300000Y-81877679D01*
X113765391Y-81984019D01*
X113312172Y-82286851D01*
X113030000Y-82709150D01*
X112747828Y-82286851D01*
X112294609Y-81984019D01*
X111919144Y-81909334D01*
X111919144Y-76407698D01*
X111891362Y-75852632D01*
X111732397Y-75468857D01*
X111490213Y-75399392D01*
X110689605Y-76200000D01*
X111490213Y-77000608D01*
X111732397Y-76931143D01*
X111919144Y-76407698D01*
X111919144Y-81909334D01*
X111907242Y-81906967D01*
X111907242Y-78463339D01*
X111695010Y-77949697D01*
X111302370Y-77556371D01*
X111110272Y-77476605D01*
X111241143Y-77422397D01*
X111310608Y-77180213D01*
X110510000Y-76379605D01*
X110330395Y-76559210D01*
X110330395Y-76200000D01*
X109529787Y-75399392D01*
X109287603Y-75468857D01*
X109100856Y-75992302D01*
X109128638Y-76547368D01*
X109287603Y-76931143D01*
X109529787Y-77000608D01*
X110330395Y-76200000D01*
X110330395Y-76559210D01*
X109709392Y-77180213D01*
X109778857Y-77422397D01*
X109919317Y-77472508D01*
X109719697Y-77554990D01*
X109326371Y-77947630D01*
X109113243Y-78460900D01*
X109112758Y-79016661D01*
X109324990Y-79530303D01*
X109717630Y-79923629D01*
X110230900Y-80136757D01*
X110786661Y-80137242D01*
X111300303Y-79925010D01*
X111693629Y-79532370D01*
X111906757Y-79019100D01*
X111907242Y-78463339D01*
X111907242Y-81906967D01*
X111760000Y-81877679D01*
X111225391Y-81984019D01*
X110772172Y-82286851D01*
X110490000Y-82709150D01*
X110207828Y-82286851D01*
X109754609Y-81984019D01*
X109220000Y-81877679D01*
X108685391Y-81984019D01*
X108232172Y-82286851D01*
X107929340Y-82740070D01*
X107823000Y-83274679D01*
X107823000Y-84365321D01*
X107929340Y-84899930D01*
X108232172Y-85353149D01*
X108685391Y-85655981D01*
X108781006Y-85675000D01*
X107664806Y-85675000D01*
X107664806Y-81280000D01*
X107396496Y-79931115D01*
X106632414Y-78787586D01*
X105488885Y-78023504D01*
X104140000Y-77755194D01*
X103805162Y-77821797D01*
X103805162Y-73474833D01*
X103663117Y-73131057D01*
X103400327Y-72867808D01*
X103056799Y-72725162D01*
X102684833Y-72724838D01*
X102442421Y-72825000D01*
X95595868Y-72825000D01*
X88220434Y-65449566D01*
X87949541Y-65268561D01*
X87630000Y-65205000D01*
X79880390Y-65205000D01*
X79532370Y-64856371D01*
X79019100Y-64643243D01*
X78463339Y-64642758D01*
X77949697Y-64854990D01*
X77556371Y-65247630D01*
X77343243Y-65760900D01*
X77342758Y-66316661D01*
X77554990Y-66830303D01*
X77947630Y-67223629D01*
X78155512Y-67309949D01*
X77949697Y-67394990D01*
X77556371Y-67787630D01*
X77343243Y-68300900D01*
X77342758Y-68856661D01*
X77554990Y-69370303D01*
X77947630Y-69763629D01*
X78139727Y-69843394D01*
X78008857Y-69897603D01*
X77939392Y-70139787D01*
X78740000Y-70940395D01*
X79540608Y-70139787D01*
X79471143Y-69897603D01*
X79330682Y-69847491D01*
X79530303Y-69765010D01*
X79923629Y-69372370D01*
X80136757Y-68859100D01*
X80137242Y-68303339D01*
X79925010Y-67789697D01*
X79532370Y-67396371D01*
X79324487Y-67310050D01*
X79530303Y-67225010D01*
X79880924Y-66875000D01*
X87284132Y-66875000D01*
X94659566Y-74250434D01*
X94930459Y-74431439D01*
X94930460Y-74431439D01*
X95250000Y-74495000D01*
X102442765Y-74495000D01*
X102683201Y-74594838D01*
X103055167Y-74595162D01*
X103398943Y-74453117D01*
X103662192Y-74190327D01*
X103804838Y-73846799D01*
X103805162Y-73474833D01*
X103805162Y-77821797D01*
X102791115Y-78023504D01*
X101647586Y-78787586D01*
X100883504Y-79931115D01*
X100615194Y-81280000D01*
X100883504Y-82628885D01*
X101647586Y-83772414D01*
X102791115Y-84536496D01*
X104140000Y-84804806D01*
X105488885Y-84536496D01*
X106632414Y-83772414D01*
X107396496Y-82628885D01*
X107664806Y-81280000D01*
X107664806Y-85675000D01*
X100044806Y-85675000D01*
X100044806Y-81280000D01*
X99776496Y-79931115D01*
X99012414Y-78787586D01*
X97868885Y-78023504D01*
X96520000Y-77755194D01*
X95171115Y-78023504D01*
X94027586Y-78787586D01*
X93263504Y-79931115D01*
X92995194Y-81280000D01*
X93263504Y-82628885D01*
X94027586Y-83772414D01*
X95171115Y-84536496D01*
X96520000Y-84804806D01*
X97868885Y-84536496D01*
X99012414Y-83772414D01*
X99776496Y-82628885D01*
X100044806Y-81280000D01*
X100044806Y-85675000D01*
X92777853Y-85675000D01*
X92065520Y-85675000D01*
X92135064Y-85605456D01*
X92022283Y-85492675D01*
X92389730Y-85275748D01*
X92777853Y-84315482D01*
X92768955Y-83279784D01*
X92389730Y-82364252D01*
X92022282Y-82147323D01*
X90349605Y-83820000D01*
X90363747Y-83834142D01*
X90184142Y-84013747D01*
X90170000Y-83999605D01*
X90155857Y-84013747D01*
X89976252Y-83834142D01*
X89990395Y-83820000D01*
X89976252Y-83805857D01*
X90155857Y-83626252D01*
X90170000Y-83640395D01*
X91842677Y-81967718D01*
X91625748Y-81600270D01*
X90665482Y-81212147D01*
X89629784Y-81221045D01*
X89585000Y-81239595D01*
X89585000Y-73660000D01*
X89532857Y-73397862D01*
X89384368Y-73175632D01*
X89162138Y-73027143D01*
X88900000Y-72975000D01*
X80149144Y-72975000D01*
X80149144Y-71327698D01*
X80121362Y-70772632D01*
X79962397Y-70388857D01*
X79720213Y-70319392D01*
X78919605Y-71120000D01*
X79720213Y-71920608D01*
X79962397Y-71851143D01*
X80149144Y-71327698D01*
X80149144Y-72975000D01*
X79540608Y-72975000D01*
X79540608Y-72100213D01*
X78740000Y-71299605D01*
X78560395Y-71479210D01*
X78560395Y-71120000D01*
X77759787Y-70319392D01*
X77517603Y-70388857D01*
X77330856Y-70912302D01*
X77358638Y-71467368D01*
X77517603Y-71851143D01*
X77759787Y-71920608D01*
X78560395Y-71120000D01*
X78560395Y-71479210D01*
X77939392Y-72100213D01*
X78008857Y-72342397D01*
X78532302Y-72529144D01*
X79087368Y-72501362D01*
X79471143Y-72342397D01*
X79540608Y-72100213D01*
X79540608Y-72975000D01*
X76885000Y-72975000D01*
X76885000Y-55295000D01*
X86360000Y-55295000D01*
X86622138Y-55242857D01*
X86844368Y-55094368D01*
X86992857Y-54872138D01*
X87045000Y-54610000D01*
X87045000Y-41910000D01*
X86992857Y-41647862D01*
X86844368Y-41425632D01*
X86622138Y-41277143D01*
X86360000Y-41225000D01*
X85890608Y-41225000D01*
X85890608Y-40350213D01*
X85090000Y-39549605D01*
X84910395Y-39729210D01*
X84910395Y-39370000D01*
X84109787Y-38569392D01*
X83867603Y-38638857D01*
X83823547Y-38762344D01*
X83772397Y-38638857D01*
X83530213Y-38569392D01*
X82729605Y-39370000D01*
X83530213Y-40170608D01*
X83772397Y-40101143D01*
X83816452Y-39977655D01*
X83867603Y-40101143D01*
X84109787Y-40170608D01*
X84910395Y-39370000D01*
X84910395Y-39729210D01*
X84289392Y-40350213D01*
X84358857Y-40592397D01*
X84882302Y-40779144D01*
X85437368Y-40751362D01*
X85821143Y-40592397D01*
X85890608Y-40350213D01*
X85890608Y-41225000D01*
X83350608Y-41225000D01*
X83350608Y-40350213D01*
X82550000Y-39549605D01*
X82370395Y-39729210D01*
X82370395Y-39370000D01*
X81569787Y-38569392D01*
X81327603Y-38638857D01*
X81283547Y-38762344D01*
X81232397Y-38638857D01*
X80990213Y-38569392D01*
X80189605Y-39370000D01*
X80990213Y-40170608D01*
X81232397Y-40101143D01*
X81276452Y-39977655D01*
X81327603Y-40101143D01*
X81569787Y-40170608D01*
X82370395Y-39370000D01*
X82370395Y-39729210D01*
X81749392Y-40350213D01*
X81818857Y-40592397D01*
X82342302Y-40779144D01*
X82897368Y-40751362D01*
X83281143Y-40592397D01*
X83350608Y-40350213D01*
X83350608Y-41225000D01*
X80810608Y-41225000D01*
X80810608Y-40350213D01*
X80010000Y-39549605D01*
X79830395Y-39729210D01*
X79830395Y-39370000D01*
X79029787Y-38569392D01*
X78787603Y-38638857D01*
X78600856Y-39162302D01*
X78628638Y-39717368D01*
X78787603Y-40101143D01*
X79029787Y-40170608D01*
X79830395Y-39370000D01*
X79830395Y-39729210D01*
X79209392Y-40350213D01*
X79278857Y-40592397D01*
X79802302Y-40779144D01*
X80357368Y-40751362D01*
X80741143Y-40592397D01*
X80810608Y-40350213D01*
X80810608Y-41225000D01*
X76885000Y-41225000D01*
X76885000Y-33705000D01*
X89544480Y-33705000D01*
X89474936Y-33774544D01*
X89587716Y-33887324D01*
X89220270Y-34104252D01*
X88832147Y-35064518D01*
X88841045Y-36100216D01*
X89220270Y-37015748D01*
X89587718Y-37232677D01*
X91260395Y-35560000D01*
X91246252Y-35545857D01*
X91425857Y-35366252D01*
X91440000Y-35380395D01*
X91454142Y-35366252D01*
X91633747Y-35545857D01*
X91619605Y-35560000D01*
X93292282Y-37232677D01*
X93659730Y-37015748D01*
X94047853Y-36055482D01*
X94038955Y-35019784D01*
X93659730Y-34104252D01*
X93292283Y-33887324D01*
X93405064Y-33774544D01*
X93335520Y-33705000D01*
X99637006Y-33705000D01*
X99541391Y-33724019D01*
X99088172Y-34026851D01*
X98785340Y-34480070D01*
X98679000Y-35014679D01*
X98679000Y-36105321D01*
X98785340Y-36639930D01*
X99088172Y-37093149D01*
X99345364Y-37265000D01*
X99060000Y-37265000D01*
X98740459Y-37328561D01*
X98469566Y-37509566D01*
X97199566Y-38779566D01*
X96174132Y-39805000D01*
X94047853Y-39805000D01*
X93112677Y-39805000D01*
X93112677Y-37412282D01*
X91440000Y-35739605D01*
X91260395Y-35919210D01*
X89767323Y-37412282D01*
X89984252Y-37779730D01*
X90944518Y-38167853D01*
X91980216Y-38158955D01*
X92895748Y-37779730D01*
X93112677Y-37412282D01*
X93112677Y-39805000D01*
X91440000Y-39805000D01*
X91120459Y-39868561D01*
X90849566Y-40049566D01*
X89039144Y-41859988D01*
X89039144Y-39577698D01*
X89027242Y-39339903D01*
X89027242Y-36553339D01*
X88815010Y-36039697D01*
X88422370Y-35646371D01*
X87909100Y-35433243D01*
X87353339Y-35432758D01*
X86839697Y-35644990D01*
X86446371Y-36037630D01*
X86360050Y-36245512D01*
X86275010Y-36039697D01*
X85882370Y-35646371D01*
X85369100Y-35433243D01*
X84813339Y-35432758D01*
X84299697Y-35644990D01*
X83906371Y-36037630D01*
X83820050Y-36245512D01*
X83735010Y-36039697D01*
X83342370Y-35646371D01*
X82829100Y-35433243D01*
X82273339Y-35432758D01*
X81759697Y-35644990D01*
X81366371Y-36037630D01*
X81280050Y-36245512D01*
X81195010Y-36039697D01*
X80802370Y-35646371D01*
X80289100Y-35433243D01*
X79733339Y-35432758D01*
X79219697Y-35644990D01*
X78826371Y-36037630D01*
X78613243Y-36550900D01*
X78612758Y-37106661D01*
X78824990Y-37620303D01*
X79217630Y-38013629D01*
X79409727Y-38093394D01*
X79278857Y-38147603D01*
X79209392Y-38389787D01*
X80010000Y-39190395D01*
X80810608Y-38389787D01*
X80741143Y-38147603D01*
X80600682Y-38097491D01*
X80800303Y-38015010D01*
X81193629Y-37622370D01*
X81279949Y-37414487D01*
X81364990Y-37620303D01*
X81757630Y-38013629D01*
X81949727Y-38093394D01*
X81818857Y-38147603D01*
X81749392Y-38389787D01*
X82550000Y-39190395D01*
X83350608Y-38389787D01*
X83281143Y-38147603D01*
X83140682Y-38097491D01*
X83340303Y-38015010D01*
X83733629Y-37622370D01*
X83819949Y-37414487D01*
X83904990Y-37620303D01*
X84297630Y-38013629D01*
X84489727Y-38093394D01*
X84358857Y-38147603D01*
X84289392Y-38389787D01*
X85090000Y-39190395D01*
X85890608Y-38389787D01*
X85821143Y-38147603D01*
X85680682Y-38097491D01*
X85880303Y-38015010D01*
X86273629Y-37622370D01*
X86359949Y-37414487D01*
X86444990Y-37620303D01*
X86837630Y-38013629D01*
X87029727Y-38093394D01*
X86898857Y-38147603D01*
X86829392Y-38389787D01*
X87630000Y-39190395D01*
X88430608Y-38389787D01*
X88361143Y-38147603D01*
X88220682Y-38097491D01*
X88420303Y-38015010D01*
X88813629Y-37622370D01*
X89026757Y-37109100D01*
X89027242Y-36553339D01*
X89027242Y-39339903D01*
X89011362Y-39022632D01*
X88852397Y-38638857D01*
X88610213Y-38569392D01*
X87809605Y-39370000D01*
X88610213Y-40170608D01*
X88852397Y-40101143D01*
X89039144Y-39577698D01*
X89039144Y-41859988D01*
X88430608Y-42468524D01*
X88430608Y-40350213D01*
X87630000Y-39549605D01*
X87450395Y-39729210D01*
X87450395Y-39370000D01*
X86649787Y-38569392D01*
X86407603Y-38638857D01*
X86363547Y-38762344D01*
X86312397Y-38638857D01*
X86070213Y-38569392D01*
X85269605Y-39370000D01*
X86070213Y-40170608D01*
X86312397Y-40101143D01*
X86356452Y-39977655D01*
X86407603Y-40101143D01*
X86649787Y-40170608D01*
X87450395Y-39370000D01*
X87450395Y-39729210D01*
X86829392Y-40350213D01*
X86898857Y-40592397D01*
X87422302Y-40779144D01*
X87977368Y-40751362D01*
X88361143Y-40592397D01*
X88430608Y-40350213D01*
X88430608Y-42468524D01*
X88309566Y-42589566D01*
X88128561Y-42860459D01*
X88065000Y-43180000D01*
X88065000Y-44550000D01*
X88065000Y-47090000D01*
X88065000Y-49630000D01*
X88065000Y-50900000D01*
X88128561Y-51219541D01*
X88309566Y-51490434D01*
X88773187Y-51954055D01*
X88772758Y-52446661D01*
X88984990Y-52960303D01*
X89377630Y-53353629D01*
X89890900Y-53566757D01*
X90446661Y-53567242D01*
X90960303Y-53355010D01*
X91353629Y-52962370D01*
X91439949Y-52754487D01*
X91524990Y-52960303D01*
X91917630Y-53353629D01*
X92430900Y-53566757D01*
X92986661Y-53567242D01*
X93500303Y-53355010D01*
X93893629Y-52962370D01*
X94106757Y-52449100D01*
X94107242Y-51893339D01*
X93895010Y-51379697D01*
X93502370Y-50986371D01*
X93294487Y-50900050D01*
X93500303Y-50815010D01*
X93893629Y-50422370D01*
X94106757Y-49909100D01*
X94107242Y-49353339D01*
X93895010Y-48839697D01*
X93502370Y-48446371D01*
X93294487Y-48360050D01*
X93500303Y-48275010D01*
X93893629Y-47882370D01*
X94106757Y-47369100D01*
X94107242Y-46813339D01*
X93895010Y-46299697D01*
X93502370Y-45906371D01*
X93294487Y-45820050D01*
X93500303Y-45735010D01*
X93893629Y-45342370D01*
X94106757Y-44829100D01*
X94107242Y-44273339D01*
X93895010Y-43759697D01*
X93502370Y-43366371D01*
X92989100Y-43153243D01*
X92433339Y-43152758D01*
X91919697Y-43364990D01*
X91526371Y-43757630D01*
X91440050Y-43965512D01*
X91355010Y-43759697D01*
X90962370Y-43366371D01*
X90449100Y-43153243D01*
X90107922Y-43152945D01*
X91785868Y-41475000D01*
X95685000Y-41475000D01*
X95685000Y-43180000D01*
X95748561Y-43499541D01*
X95929566Y-43770434D01*
X113709566Y-61550434D01*
X113980459Y-61731439D01*
X113980460Y-61731439D01*
X114300000Y-61795000D01*
X114359609Y-61795000D01*
X114707630Y-62143629D01*
X115220900Y-62356757D01*
X115776661Y-62357242D01*
X116290303Y-62145010D01*
X116683629Y-61752370D01*
X116896757Y-61239100D01*
X116897242Y-60683339D01*
X116685010Y-60169697D01*
X116292370Y-59776371D01*
X115779100Y-59563243D01*
X115223339Y-59562758D01*
X114709697Y-59774990D01*
X114502596Y-59981728D01*
X97355000Y-42834132D01*
X97355000Y-40985868D01*
X98135868Y-40205000D01*
X99189609Y-40205000D01*
X99537630Y-40553629D01*
X99745512Y-40639949D01*
X99539697Y-40724990D01*
X99146371Y-41117630D01*
X98933243Y-41630900D01*
X98932758Y-42186661D01*
X99144990Y-42700303D01*
X99495000Y-43050924D01*
X99495000Y-43180000D01*
X99558561Y-43499541D01*
X99739566Y-43770434D01*
X102279566Y-46310434D01*
X102550459Y-46491439D01*
X102550460Y-46491439D01*
X102870000Y-46555000D01*
X116494132Y-46555000D01*
X118789566Y-48850434D01*
X119060459Y-49031439D01*
X119060460Y-49031439D01*
X119380000Y-49095000D01*
X131652765Y-49095000D01*
X131893201Y-49194838D01*
X132265167Y-49195162D01*
X132608943Y-49053117D01*
X132872192Y-48790327D01*
X133014838Y-48446799D01*
X133015162Y-48074833D01*
X132873117Y-47731057D01*
X132610327Y-47467808D01*
X132266799Y-47325162D01*
X131894833Y-47324838D01*
X131652421Y-47425000D01*
X119725868Y-47425000D01*
X117430434Y-45129566D01*
X117159541Y-44948561D01*
X116840000Y-44885000D01*
X103215868Y-44885000D01*
X101273223Y-42942355D01*
X101513629Y-42702370D01*
X101599949Y-42494487D01*
X101684990Y-42700303D01*
X102077630Y-43093629D01*
X102590900Y-43306757D01*
X103146661Y-43307242D01*
X103660303Y-43095010D01*
X104053629Y-42702370D01*
X104139949Y-42494487D01*
X104224990Y-42700303D01*
X104617630Y-43093629D01*
X105130900Y-43306757D01*
X105686661Y-43307242D01*
X106200303Y-43095010D01*
X106593629Y-42702370D01*
X106679949Y-42494487D01*
X106764990Y-42700303D01*
X107157630Y-43093629D01*
X107670900Y-43306757D01*
X108226661Y-43307242D01*
X108740303Y-43095010D01*
X109090924Y-42745000D01*
X112684132Y-42745000D01*
X113407465Y-43468333D01*
X113506883Y-43708943D01*
X113769673Y-43972192D01*
X114113201Y-44114838D01*
X114485167Y-44115162D01*
X114828943Y-43973117D01*
X115092192Y-43710327D01*
X115234838Y-43366799D01*
X115235162Y-42994833D01*
X115093117Y-42651057D01*
X114830327Y-42387808D01*
X114588089Y-42287221D01*
X113620434Y-41319566D01*
X113349541Y-41138561D01*
X113030000Y-41075000D01*
X109090390Y-41075000D01*
X108742370Y-40726371D01*
X108534487Y-40640050D01*
X108740303Y-40555010D01*
X109090924Y-40205000D01*
X112684132Y-40205000D01*
X118789566Y-46310434D01*
X119060459Y-46491439D01*
X119060460Y-46491439D01*
X119380000Y-46555000D01*
X135890000Y-46555000D01*
X136209540Y-46491439D01*
X136209541Y-46491439D01*
X136480434Y-46310434D01*
X140045868Y-42745000D01*
X140224132Y-42745000D01*
X128949566Y-54019566D01*
X128768561Y-54290459D01*
X128705000Y-54610000D01*
X128705000Y-60614132D01*
X121574132Y-67745000D01*
X111650390Y-67745000D01*
X111302370Y-67396371D01*
X110789100Y-67183243D01*
X110233339Y-67182758D01*
X109719697Y-67394990D01*
X109326371Y-67787630D01*
X109113243Y-68300900D01*
X109112758Y-68856661D01*
X109324990Y-69370303D01*
X109717630Y-69763629D01*
X109925512Y-69849949D01*
X109719697Y-69934990D01*
X109326371Y-70327630D01*
X109113243Y-70840900D01*
X109112758Y-71396661D01*
X109324990Y-71910303D01*
X109717630Y-72303629D01*
X109925512Y-72389949D01*
X109719697Y-72474990D01*
X109326371Y-72867630D01*
X109113243Y-73380900D01*
X109112758Y-73936661D01*
X109324990Y-74450303D01*
X109717630Y-74843629D01*
X109909727Y-74923394D01*
X109778857Y-74977603D01*
X109709392Y-75219787D01*
X110510000Y-76020395D01*
X111310608Y-75219787D01*
X111241143Y-74977603D01*
X111100682Y-74927491D01*
X111300303Y-74845010D01*
X111650924Y-74495000D01*
X121920000Y-74495000D01*
X122239540Y-74431439D01*
X122239541Y-74431439D01*
X122510434Y-74250434D01*
X135210434Y-61550434D01*
X135391439Y-61279541D01*
X135391439Y-61279540D01*
X135455000Y-60960000D01*
X135455000Y-54955868D01*
X143855868Y-46555000D01*
X167640000Y-46555000D01*
X167959540Y-46491439D01*
X167959541Y-46491439D01*
X168230434Y-46310434D01*
X168782966Y-45757901D01*
X168782758Y-45996661D01*
X168994990Y-46510303D01*
X169387630Y-46903629D01*
X169595512Y-46989949D01*
X169389697Y-47074990D01*
X168996371Y-47467630D01*
X168783243Y-47980900D01*
X168782758Y-48536661D01*
X168994990Y-49050303D01*
X169387630Y-49443629D01*
X169595512Y-49529949D01*
X169389697Y-49614990D01*
X168996371Y-50007630D01*
X168783243Y-50520900D01*
X168782758Y-51076661D01*
X168994990Y-51590303D01*
X169387630Y-51983629D01*
X169595512Y-52069949D01*
X169389697Y-52154990D01*
X168996371Y-52547630D01*
X168783243Y-53060900D01*
X168782758Y-53616661D01*
X168994990Y-54130303D01*
X169387630Y-54523629D01*
X169595512Y-54609949D01*
X169389697Y-54694990D01*
X168996371Y-55087630D01*
X168783243Y-55600900D01*
X168782758Y-56156661D01*
X168994990Y-56670303D01*
X169387630Y-57063629D01*
X169595512Y-57149949D01*
X169389697Y-57234990D01*
X168996371Y-57627630D01*
X168783243Y-58140900D01*
X168782758Y-58696661D01*
X168994990Y-59210303D01*
X169387630Y-59603629D01*
X169595512Y-59689949D01*
X169389697Y-59774990D01*
X168996371Y-60167630D01*
X168783243Y-60680900D01*
X168782758Y-61236661D01*
X168994990Y-61750303D01*
X169387630Y-62143629D01*
X169595512Y-62229949D01*
X169389697Y-62314990D01*
X168996371Y-62707630D01*
X168783243Y-63220900D01*
X168782758Y-63776661D01*
X168994990Y-64290303D01*
X169387630Y-64683629D01*
X169595512Y-64769949D01*
X169389697Y-64854990D01*
X168996371Y-65247630D01*
X168783243Y-65760900D01*
X168782758Y-66316661D01*
X168994990Y-66830303D01*
X169387630Y-67223629D01*
X169595512Y-67309949D01*
X169389697Y-67394990D01*
X168996371Y-67787630D01*
X168783243Y-68300900D01*
X168782758Y-68856661D01*
X168994990Y-69370303D01*
X169387630Y-69763629D01*
X169595512Y-69849949D01*
X169389697Y-69934990D01*
X168996371Y-70327630D01*
X168783243Y-70840900D01*
X168782758Y-71396661D01*
X168994990Y-71910303D01*
X169387630Y-72303629D01*
X169595512Y-72389949D01*
X169389697Y-72474990D01*
X168996371Y-72867630D01*
X168783243Y-73380900D01*
X168782758Y-73936661D01*
X168994990Y-74450303D01*
X169387630Y-74843629D01*
X169595512Y-74929949D01*
X169389697Y-75014990D01*
X169039075Y-75365000D01*
X168910000Y-75365000D01*
X168590459Y-75428561D01*
X168319566Y-75609566D01*
X167351666Y-76577465D01*
X167111057Y-76676883D01*
X166847808Y-76939673D01*
X166705162Y-77283201D01*
X166704838Y-77655167D01*
X166846883Y-77998943D01*
X167109673Y-78262192D01*
X167453201Y-78404838D01*
X167825167Y-78405162D01*
X168168943Y-78263117D01*
X168432192Y-78000327D01*
X168532778Y-77758089D01*
X169147644Y-77143223D01*
X169387630Y-77383629D01*
X169595512Y-77469949D01*
X169389697Y-77554990D01*
X168996371Y-77947630D01*
X168783243Y-78460900D01*
X168782758Y-79016661D01*
X168994990Y-79530303D01*
X169387630Y-79923629D01*
X169900900Y-80136757D01*
X170456661Y-80137242D01*
X170970303Y-79925010D01*
X171363629Y-79532370D01*
X171449949Y-79324487D01*
X171534990Y-79530303D01*
X171927630Y-79923629D01*
X172440900Y-80136757D01*
X172996661Y-80137242D01*
X173510303Y-79925010D01*
X173903629Y-79532370D01*
X174116757Y-79019100D01*
X174117242Y-78463339D01*
X173905010Y-77949697D01*
X173512370Y-77556371D01*
X173304487Y-77470050D01*
X173510303Y-77385010D01*
X173903629Y-76992370D01*
X174116757Y-76479100D01*
X174117242Y-75923339D01*
X173905010Y-75409697D01*
X173512370Y-75016371D01*
X173304487Y-74930050D01*
X173510303Y-74845010D01*
X173903629Y-74452370D01*
X174116757Y-73939100D01*
X174117242Y-73383339D01*
X173905010Y-72869697D01*
X173512370Y-72476371D01*
X173304487Y-72390050D01*
X173510303Y-72305010D01*
X173903629Y-71912370D01*
X174116757Y-71399100D01*
X174117242Y-70843339D01*
X173905010Y-70329697D01*
X173512370Y-69936371D01*
X173304487Y-69850050D01*
X173510303Y-69765010D01*
X173903629Y-69372370D01*
X174116757Y-68859100D01*
X174117242Y-68303339D01*
X173905010Y-67789697D01*
X173512370Y-67396371D01*
X173304487Y-67310050D01*
X173510303Y-67225010D01*
X173903629Y-66832370D01*
X174116757Y-66319100D01*
X174117242Y-65763339D01*
X173905010Y-65249697D01*
X173512370Y-64856371D01*
X173304487Y-64770050D01*
X173510303Y-64685010D01*
X173903629Y-64292370D01*
X174116757Y-63779100D01*
X174117242Y-63223339D01*
X173905010Y-62709697D01*
X173512370Y-62316371D01*
X173304487Y-62230050D01*
X173510303Y-62145010D01*
X173903629Y-61752370D01*
X174116757Y-61239100D01*
X174117242Y-60683339D01*
X173905010Y-60169697D01*
X173512370Y-59776371D01*
X173304487Y-59690050D01*
X173510303Y-59605010D01*
X173903629Y-59212370D01*
X174116757Y-58699100D01*
X174117242Y-58143339D01*
X173905010Y-57629697D01*
X173512370Y-57236371D01*
X173304487Y-57150050D01*
X173510303Y-57065010D01*
X173903629Y-56672370D01*
X174116757Y-56159100D01*
X174117242Y-55603339D01*
X173905010Y-55089697D01*
X173512370Y-54696371D01*
X173304487Y-54610050D01*
X173510303Y-54525010D01*
X173903629Y-54132370D01*
X174116757Y-53619100D01*
X174117242Y-53063339D01*
X173905010Y-52549697D01*
X173512370Y-52156371D01*
X173304487Y-52070050D01*
X173510303Y-51985010D01*
X173903629Y-51592370D01*
X174116757Y-51079100D01*
X174117242Y-50523339D01*
X173905010Y-50009697D01*
X173512370Y-49616371D01*
X173304487Y-49530050D01*
X173510303Y-49445010D01*
X173903629Y-49052370D01*
X174116757Y-48539100D01*
X174117242Y-47983339D01*
X173905010Y-47469697D01*
X173512370Y-47076371D01*
X173304487Y-46990050D01*
X173510303Y-46905010D01*
X173903629Y-46512370D01*
X174116757Y-45999100D01*
X174117242Y-45443339D01*
X173905010Y-44929697D01*
X173512370Y-44536371D01*
X173304487Y-44450050D01*
X173510303Y-44365010D01*
X173903629Y-43972370D01*
X174116757Y-43459100D01*
X174117242Y-42903339D01*
X173905010Y-42389697D01*
X173512370Y-41996371D01*
X173304487Y-41910050D01*
X173510303Y-41825010D01*
X173903629Y-41432370D01*
X174116757Y-40919100D01*
X174117242Y-40363339D01*
X173905010Y-39849697D01*
X173512370Y-39456371D01*
X173304487Y-39370050D01*
X173510303Y-39285010D01*
X173903629Y-38892370D01*
X174116757Y-38379100D01*
X174117242Y-37823339D01*
X173905010Y-37309697D01*
X173512370Y-36916371D01*
X173304487Y-36830050D01*
X173510303Y-36745010D01*
X173903629Y-36352370D01*
X174116757Y-35839100D01*
X174117242Y-35283339D01*
X173905010Y-34769697D01*
X173512370Y-34376371D01*
X172999100Y-34163243D01*
X172443339Y-34162758D01*
X171929697Y-34374990D01*
X171536371Y-34767630D01*
X171450050Y-34975512D01*
X171365010Y-34769697D01*
X170972370Y-34376371D01*
X170459100Y-34163243D01*
X169903339Y-34162758D01*
X169389697Y-34374990D01*
X168996371Y-34767630D01*
X168930358Y-34926604D01*
X168589730Y-34104252D01*
X168222283Y-33887324D01*
X168335064Y-33774544D01*
X168265520Y-33705000D01*
X173706264Y-33705000D01*
X174575000Y-34573736D01*
X174575000Y-45720000D01*
X174627143Y-45982138D01*
X174775632Y-46204368D01*
X175133000Y-46561736D01*
X175133000Y-82830848D01*
X175133000Y-82830848D01*
G37*
X175133000Y-82830848D02*
X174939730Y-82364252D01*
X174572282Y-82147323D01*
X174392677Y-82326928D01*
X174392677Y-81967718D01*
X174175748Y-81600270D01*
X173215482Y-81212147D01*
X172179784Y-81221045D01*
X171264252Y-81600270D01*
X171047323Y-81967718D01*
X172720000Y-83640395D01*
X174392677Y-81967718D01*
X174392677Y-82326928D01*
X172899605Y-83820000D01*
X172913747Y-83834142D01*
X172734142Y-84013747D01*
X172720000Y-83999605D01*
X172705857Y-84013747D01*
X172540395Y-83848285D01*
X172526252Y-83834142D01*
X172540395Y-83820000D01*
X170867718Y-82147323D01*
X170500270Y-82364252D01*
X170112147Y-83324518D01*
X170121045Y-84360216D01*
X170500270Y-85275748D01*
X170867716Y-85492675D01*
X170754936Y-85605456D01*
X170824480Y-85675000D01*
X168078993Y-85675000D01*
X168174609Y-85655981D01*
X168627828Y-85353149D01*
X168930660Y-84899930D01*
X169037000Y-84365321D01*
X169037000Y-83274679D01*
X168930660Y-82740070D01*
X168627828Y-82286851D01*
X168174609Y-81984019D01*
X167640000Y-81877679D01*
X167105391Y-81984019D01*
X166652172Y-82286851D01*
X166370000Y-82709150D01*
X166087828Y-82286851D01*
X165935000Y-82184734D01*
X165935000Y-73660000D01*
X165871439Y-73340460D01*
X165871439Y-73340459D01*
X165690434Y-73069566D01*
X165137901Y-72517033D01*
X165376661Y-72517242D01*
X165890303Y-72305010D01*
X166283629Y-71912370D01*
X166496757Y-71399100D01*
X166497242Y-70843339D01*
X166285010Y-70329697D01*
X165892370Y-69936371D01*
X165684487Y-69850050D01*
X165890303Y-69765010D01*
X166283629Y-69372370D01*
X166496757Y-68859100D01*
X166497242Y-68303339D01*
X166285010Y-67789697D01*
X165892370Y-67396371D01*
X165379100Y-67183243D01*
X164823339Y-67182758D01*
X164309697Y-67394990D01*
X163959075Y-67745000D01*
X163957242Y-67745000D01*
X163957242Y-60683339D01*
X163745010Y-60169697D01*
X163352370Y-59776371D01*
X162839100Y-59563243D01*
X162283339Y-59562758D01*
X161769697Y-59774990D01*
X161376371Y-60167630D01*
X161163243Y-60680900D01*
X161162758Y-61236661D01*
X161374990Y-61750303D01*
X161767630Y-62143629D01*
X162280900Y-62356757D01*
X162836661Y-62357242D01*
X163350303Y-62145010D01*
X163743629Y-61752370D01*
X163956757Y-61239100D01*
X163957242Y-60683339D01*
X163957242Y-67745000D01*
X161416821Y-67745000D01*
X161417242Y-67263339D01*
X161205010Y-66749697D01*
X160812370Y-66356371D01*
X160299100Y-66143243D01*
X159743339Y-66142758D01*
X159229697Y-66354990D01*
X158836371Y-66747630D01*
X158623243Y-67260900D01*
X158622758Y-67816661D01*
X158834990Y-68330303D01*
X159227630Y-68723629D01*
X159740900Y-68936757D01*
X160236321Y-68937189D01*
X160469566Y-69170434D01*
X160740459Y-69351439D01*
X160740460Y-69351439D01*
X161060000Y-69415000D01*
X163135708Y-69415000D01*
X163058561Y-69530459D01*
X162995000Y-69850000D01*
X162995000Y-72390000D01*
X163058561Y-72709541D01*
X163239566Y-72980434D01*
X164265000Y-74005868D01*
X164265000Y-82184734D01*
X164112172Y-82286851D01*
X163830000Y-82709150D01*
X163547828Y-82286851D01*
X163094609Y-81984019D01*
X162560000Y-81877679D01*
X162025391Y-81984019D01*
X161572172Y-82286851D01*
X161429144Y-82500906D01*
X161429144Y-72827698D01*
X161401362Y-72272632D01*
X161242397Y-71888857D01*
X161000213Y-71819392D01*
X160820608Y-71998997D01*
X160820608Y-71639787D01*
X160751143Y-71397603D01*
X160227698Y-71210856D01*
X159672632Y-71238638D01*
X159288857Y-71397603D01*
X159219392Y-71639787D01*
X160020000Y-72440395D01*
X160820608Y-71639787D01*
X160820608Y-71998997D01*
X160199605Y-72620000D01*
X161000213Y-73420608D01*
X161242397Y-73351143D01*
X161429144Y-72827698D01*
X161429144Y-82500906D01*
X161290000Y-82709150D01*
X161007828Y-82286851D01*
X160820608Y-82161754D01*
X160820608Y-73600213D01*
X160020000Y-72799605D01*
X159840395Y-72979210D01*
X159840395Y-72620000D01*
X159039787Y-71819392D01*
X158797603Y-71888857D01*
X158610856Y-72412302D01*
X158638638Y-72967368D01*
X158797603Y-73351143D01*
X159039787Y-73420608D01*
X159840395Y-72620000D01*
X159840395Y-72979210D01*
X159219392Y-73600213D01*
X159288857Y-73842397D01*
X159812302Y-74029144D01*
X160367368Y-74001362D01*
X160751143Y-73842397D01*
X160820608Y-73600213D01*
X160820608Y-82161754D01*
X160554609Y-81984019D01*
X160020000Y-81877679D01*
X159485391Y-81984019D01*
X159032172Y-82286851D01*
X158750000Y-82709150D01*
X158467828Y-82286851D01*
X158014609Y-81984019D01*
X157480000Y-81877679D01*
X156945391Y-81984019D01*
X156492172Y-82286851D01*
X156210000Y-82709150D01*
X155927828Y-82286851D01*
X155474609Y-81984019D01*
X154940000Y-81877679D01*
X154405391Y-81984019D01*
X153952172Y-82286851D01*
X153884806Y-82387671D01*
X153884806Y-58420000D01*
X153616496Y-57071115D01*
X152852414Y-55927586D01*
X151708885Y-55163504D01*
X150360000Y-54895194D01*
X149011115Y-55163504D01*
X147867586Y-55927586D01*
X147103504Y-57071115D01*
X146835194Y-58420000D01*
X147103504Y-59768885D01*
X147867586Y-60912414D01*
X149011115Y-61676496D01*
X150360000Y-61944806D01*
X151708885Y-61676496D01*
X152852414Y-60912414D01*
X153616496Y-59768885D01*
X153884806Y-58420000D01*
X153884806Y-82387671D01*
X153670000Y-82709150D01*
X153387828Y-82286851D01*
X152934609Y-81984019D01*
X152400000Y-81877679D01*
X151865391Y-81984019D01*
X151412172Y-82286851D01*
X151130000Y-82709150D01*
X150847828Y-82286851D01*
X150394609Y-81984019D01*
X149860000Y-81877679D01*
X149325391Y-81984019D01*
X148872172Y-82286851D01*
X148569340Y-82740070D01*
X148520620Y-82985000D01*
X145920390Y-82985000D01*
X145572370Y-82636371D01*
X145059100Y-82423243D01*
X144503339Y-82422758D01*
X144195000Y-82550160D01*
X144195000Y-62230000D01*
X144195000Y-54610000D01*
X144142857Y-54347862D01*
X143994368Y-54125632D01*
X143772138Y-53977143D01*
X143510000Y-53925000D01*
X138430000Y-53925000D01*
X138167862Y-53977143D01*
X137945632Y-54125632D01*
X137797143Y-54347862D01*
X137745000Y-54610000D01*
X137745000Y-62230000D01*
X137797143Y-62492138D01*
X137945632Y-62714368D01*
X138167862Y-62862857D01*
X138430000Y-62915000D01*
X142240000Y-62915000D01*
X143510000Y-62915000D01*
X143772138Y-62862857D01*
X143994368Y-62714368D01*
X144142857Y-62492138D01*
X144195000Y-62230000D01*
X144195000Y-82550160D01*
X143989697Y-82634990D01*
X143596371Y-83027630D01*
X143510050Y-83235512D01*
X143425010Y-83029697D01*
X143032370Y-82636371D01*
X142519100Y-82423243D01*
X141963339Y-82422758D01*
X141449697Y-82634990D01*
X141056371Y-83027630D01*
X140976605Y-83219727D01*
X140922397Y-83088857D01*
X140680213Y-83019392D01*
X140500608Y-83198997D01*
X140500608Y-82839787D01*
X140431143Y-82597603D01*
X139907698Y-82410856D01*
X139352632Y-82438638D01*
X138968857Y-82597603D01*
X138899392Y-82839787D01*
X139700000Y-83640395D01*
X140500608Y-82839787D01*
X140500608Y-83198997D01*
X139879605Y-83820000D01*
X140680213Y-84620608D01*
X140922397Y-84551143D01*
X140972508Y-84410682D01*
X141054990Y-84610303D01*
X141447630Y-85003629D01*
X141960900Y-85216757D01*
X142516661Y-85217242D01*
X143030303Y-85005010D01*
X143423629Y-84612370D01*
X143509949Y-84404487D01*
X143594990Y-84610303D01*
X143987630Y-85003629D01*
X144500900Y-85216757D01*
X145056661Y-85217242D01*
X145570303Y-85005010D01*
X145920924Y-84655000D01*
X148520620Y-84655000D01*
X148569340Y-84899930D01*
X148872172Y-85353149D01*
X149325391Y-85655981D01*
X149421006Y-85675000D01*
X140500608Y-85675000D01*
X140500608Y-84800213D01*
X139700000Y-83999605D01*
X139520395Y-84179210D01*
X139520395Y-83820000D01*
X138719787Y-83019392D01*
X138477603Y-83088857D01*
X138290856Y-83612302D01*
X138318638Y-84167368D01*
X138477603Y-84551143D01*
X138719787Y-84620608D01*
X139520395Y-83820000D01*
X139520395Y-84179210D01*
X138899392Y-84800213D01*
X138968857Y-85042397D01*
X139492302Y-85229144D01*
X140047368Y-85201362D01*
X140431143Y-85042397D01*
X140500608Y-84800213D01*
X140500608Y-85675000D01*
X136017242Y-85675000D01*
X136017242Y-83543339D01*
X135805010Y-83029697D01*
X135455000Y-82679075D01*
X135455000Y-75357234D01*
X135554838Y-75116799D01*
X135555162Y-74744833D01*
X135413117Y-74401057D01*
X135150327Y-74137808D01*
X134806799Y-73995162D01*
X134434833Y-73994838D01*
X134091057Y-74136883D01*
X133827808Y-74399673D01*
X133685162Y-74743201D01*
X133684838Y-75115167D01*
X133785000Y-75357578D01*
X133785000Y-82679609D01*
X133436371Y-83027630D01*
X133350050Y-83235512D01*
X133265010Y-83029697D01*
X132915000Y-82679075D01*
X132915000Y-75357234D01*
X133014838Y-75116799D01*
X133015162Y-74744833D01*
X132873117Y-74401057D01*
X132610327Y-74137808D01*
X132266799Y-73995162D01*
X131894833Y-73994838D01*
X131551057Y-74136883D01*
X131287808Y-74399673D01*
X131145162Y-74743201D01*
X131144838Y-75115167D01*
X131245000Y-75357578D01*
X131245000Y-82679609D01*
X130896371Y-83027630D01*
X130810050Y-83235512D01*
X130725010Y-83029697D01*
X130375000Y-82679075D01*
X130375000Y-75357234D01*
X130474838Y-75116799D01*
X130475162Y-74744833D01*
X130333117Y-74401057D01*
X130070327Y-74137808D01*
X129726799Y-73995162D01*
X129354833Y-73994838D01*
X129011057Y-74136883D01*
X128747808Y-74399673D01*
X128605162Y-74743201D01*
X128604838Y-75115167D01*
X128705000Y-75357578D01*
X128705000Y-82679609D01*
X128356371Y-83027630D01*
X128320174Y-83114801D01*
X128285010Y-83029697D01*
X127935000Y-82679075D01*
X127935000Y-75030000D01*
X127934913Y-75029567D01*
X127935162Y-74744833D01*
X127793117Y-74401057D01*
X127530327Y-74137808D01*
X127186799Y-73995162D01*
X126814833Y-73994838D01*
X126471057Y-74136883D01*
X126207808Y-74399673D01*
X126065162Y-74743201D01*
X126064838Y-75115167D01*
X126206883Y-75458943D01*
X126265000Y-75517161D01*
X126265000Y-82679609D01*
X125916371Y-83027630D01*
X125703243Y-83540900D01*
X125702758Y-84096661D01*
X125914990Y-84610303D01*
X126307630Y-85003629D01*
X126820900Y-85216757D01*
X127376661Y-85217242D01*
X127890303Y-85005010D01*
X128283629Y-84612370D01*
X128319825Y-84525198D01*
X128354990Y-84610303D01*
X128747630Y-85003629D01*
X129260900Y-85216757D01*
X129816661Y-85217242D01*
X130330303Y-85005010D01*
X130723629Y-84612370D01*
X130809949Y-84404487D01*
X130894990Y-84610303D01*
X131287630Y-85003629D01*
X131800900Y-85216757D01*
X132356661Y-85217242D01*
X132870303Y-85005010D01*
X133263629Y-84612370D01*
X133349949Y-84404487D01*
X133434990Y-84610303D01*
X133827630Y-85003629D01*
X134340900Y-85216757D01*
X134896661Y-85217242D01*
X135410303Y-85005010D01*
X135803629Y-84612370D01*
X136016757Y-84099100D01*
X136017242Y-83543339D01*
X136017242Y-85675000D01*
X122358993Y-85675000D01*
X122454609Y-85655981D01*
X122907828Y-85353149D01*
X123210660Y-84899930D01*
X123317000Y-84365321D01*
X123317000Y-83274679D01*
X123210660Y-82740070D01*
X122907828Y-82286851D01*
X122454609Y-81984019D01*
X121920000Y-81877679D01*
X121385391Y-81984019D01*
X120932172Y-82286851D01*
X120650000Y-82709150D01*
X120367828Y-82286851D01*
X119914609Y-81984019D01*
X119380000Y-81877679D01*
X118845391Y-81984019D01*
X118392172Y-82286851D01*
X118100670Y-82723113D01*
X118082059Y-82660059D01*
X117738026Y-82234370D01*
X117257277Y-81972740D01*
X117183070Y-81957780D01*
X116967000Y-82080280D01*
X116967000Y-83693000D01*
X116987000Y-83693000D01*
X116987000Y-83947000D01*
X116967000Y-83947000D01*
X116967000Y-83967000D01*
X116713000Y-83967000D01*
X116713000Y-83947000D01*
X116693000Y-83947000D01*
X116693000Y-83693000D01*
X116713000Y-83693000D01*
X116713000Y-82080280D01*
X116496930Y-81957780D01*
X116422723Y-81972740D01*
X115941974Y-82234370D01*
X115597941Y-82660059D01*
X115579329Y-82723113D01*
X115287828Y-82286851D01*
X114834609Y-81984019D01*
X114300000Y-81877679D01*
X113765391Y-81984019D01*
X113312172Y-82286851D01*
X113030000Y-82709150D01*
X112747828Y-82286851D01*
X112294609Y-81984019D01*
X111919144Y-81909334D01*
X111919144Y-76407698D01*
X111891362Y-75852632D01*
X111732397Y-75468857D01*
X111490213Y-75399392D01*
X110689605Y-76200000D01*
X111490213Y-77000608D01*
X111732397Y-76931143D01*
X111919144Y-76407698D01*
X111919144Y-81909334D01*
X111907242Y-81906967D01*
X111907242Y-78463339D01*
X111695010Y-77949697D01*
X111302370Y-77556371D01*
X111110272Y-77476605D01*
X111241143Y-77422397D01*
X111310608Y-77180213D01*
X110510000Y-76379605D01*
X110330395Y-76559210D01*
X110330395Y-76200000D01*
X109529787Y-75399392D01*
X109287603Y-75468857D01*
X109100856Y-75992302D01*
X109128638Y-76547368D01*
X109287603Y-76931143D01*
X109529787Y-77000608D01*
X110330395Y-76200000D01*
X110330395Y-76559210D01*
X109709392Y-77180213D01*
X109778857Y-77422397D01*
X109919317Y-77472508D01*
X109719697Y-77554990D01*
X109326371Y-77947630D01*
X109113243Y-78460900D01*
X109112758Y-79016661D01*
X109324990Y-79530303D01*
X109717630Y-79923629D01*
X110230900Y-80136757D01*
X110786661Y-80137242D01*
X111300303Y-79925010D01*
X111693629Y-79532370D01*
X111906757Y-79019100D01*
X111907242Y-78463339D01*
X111907242Y-81906967D01*
X111760000Y-81877679D01*
X111225391Y-81984019D01*
X110772172Y-82286851D01*
X110490000Y-82709150D01*
X110207828Y-82286851D01*
X109754609Y-81984019D01*
X109220000Y-81877679D01*
X108685391Y-81984019D01*
X108232172Y-82286851D01*
X107929340Y-82740070D01*
X107823000Y-83274679D01*
X107823000Y-84365321D01*
X107929340Y-84899930D01*
X108232172Y-85353149D01*
X108685391Y-85655981D01*
X108781006Y-85675000D01*
X107664806Y-85675000D01*
X107664806Y-81280000D01*
X107396496Y-79931115D01*
X106632414Y-78787586D01*
X105488885Y-78023504D01*
X104140000Y-77755194D01*
X103805162Y-77821797D01*
X103805162Y-73474833D01*
X103663117Y-73131057D01*
X103400327Y-72867808D01*
X103056799Y-72725162D01*
X102684833Y-72724838D01*
X102442421Y-72825000D01*
X95595868Y-72825000D01*
X88220434Y-65449566D01*
X87949541Y-65268561D01*
X87630000Y-65205000D01*
X79880390Y-65205000D01*
X79532370Y-64856371D01*
X79019100Y-64643243D01*
X78463339Y-64642758D01*
X77949697Y-64854990D01*
X77556371Y-65247630D01*
X77343243Y-65760900D01*
X77342758Y-66316661D01*
X77554990Y-66830303D01*
X77947630Y-67223629D01*
X78155512Y-67309949D01*
X77949697Y-67394990D01*
X77556371Y-67787630D01*
X77343243Y-68300900D01*
X77342758Y-68856661D01*
X77554990Y-69370303D01*
X77947630Y-69763629D01*
X78139727Y-69843394D01*
X78008857Y-69897603D01*
X77939392Y-70139787D01*
X78740000Y-70940395D01*
X79540608Y-70139787D01*
X79471143Y-69897603D01*
X79330682Y-69847491D01*
X79530303Y-69765010D01*
X79923629Y-69372370D01*
X80136757Y-68859100D01*
X80137242Y-68303339D01*
X79925010Y-67789697D01*
X79532370Y-67396371D01*
X79324487Y-67310050D01*
X79530303Y-67225010D01*
X79880924Y-66875000D01*
X87284132Y-66875000D01*
X94659566Y-74250434D01*
X94930459Y-74431439D01*
X94930460Y-74431439D01*
X95250000Y-74495000D01*
X102442765Y-74495000D01*
X102683201Y-74594838D01*
X103055167Y-74595162D01*
X103398943Y-74453117D01*
X103662192Y-74190327D01*
X103804838Y-73846799D01*
X103805162Y-73474833D01*
X103805162Y-77821797D01*
X102791115Y-78023504D01*
X101647586Y-78787586D01*
X100883504Y-79931115D01*
X100615194Y-81280000D01*
X100883504Y-82628885D01*
X101647586Y-83772414D01*
X102791115Y-84536496D01*
X104140000Y-84804806D01*
X105488885Y-84536496D01*
X106632414Y-83772414D01*
X107396496Y-82628885D01*
X107664806Y-81280000D01*
X107664806Y-85675000D01*
X100044806Y-85675000D01*
X100044806Y-81280000D01*
X99776496Y-79931115D01*
X99012414Y-78787586D01*
X97868885Y-78023504D01*
X96520000Y-77755194D01*
X95171115Y-78023504D01*
X94027586Y-78787586D01*
X93263504Y-79931115D01*
X92995194Y-81280000D01*
X93263504Y-82628885D01*
X94027586Y-83772414D01*
X95171115Y-84536496D01*
X96520000Y-84804806D01*
X97868885Y-84536496D01*
X99012414Y-83772414D01*
X99776496Y-82628885D01*
X100044806Y-81280000D01*
X100044806Y-85675000D01*
X92777853Y-85675000D01*
X92065520Y-85675000D01*
X92135064Y-85605456D01*
X92022283Y-85492675D01*
X92389730Y-85275748D01*
X92777853Y-84315482D01*
X92768955Y-83279784D01*
X92389730Y-82364252D01*
X92022282Y-82147323D01*
X90349605Y-83820000D01*
X90363747Y-83834142D01*
X90184142Y-84013747D01*
X90170000Y-83999605D01*
X90155857Y-84013747D01*
X89976252Y-83834142D01*
X89990395Y-83820000D01*
X89976252Y-83805857D01*
X90155857Y-83626252D01*
X90170000Y-83640395D01*
X91842677Y-81967718D01*
X91625748Y-81600270D01*
X90665482Y-81212147D01*
X89629784Y-81221045D01*
X89585000Y-81239595D01*
X89585000Y-73660000D01*
X89532857Y-73397862D01*
X89384368Y-73175632D01*
X89162138Y-73027143D01*
X88900000Y-72975000D01*
X80149144Y-72975000D01*
X80149144Y-71327698D01*
X80121362Y-70772632D01*
X79962397Y-70388857D01*
X79720213Y-70319392D01*
X78919605Y-71120000D01*
X79720213Y-71920608D01*
X79962397Y-71851143D01*
X80149144Y-71327698D01*
X80149144Y-72975000D01*
X79540608Y-72975000D01*
X79540608Y-72100213D01*
X78740000Y-71299605D01*
X78560395Y-71479210D01*
X78560395Y-71120000D01*
X77759787Y-70319392D01*
X77517603Y-70388857D01*
X77330856Y-70912302D01*
X77358638Y-71467368D01*
X77517603Y-71851143D01*
X77759787Y-71920608D01*
X78560395Y-71120000D01*
X78560395Y-71479210D01*
X77939392Y-72100213D01*
X78008857Y-72342397D01*
X78532302Y-72529144D01*
X79087368Y-72501362D01*
X79471143Y-72342397D01*
X79540608Y-72100213D01*
X79540608Y-72975000D01*
X76885000Y-72975000D01*
X76885000Y-55295000D01*
X86360000Y-55295000D01*
X86622138Y-55242857D01*
X86844368Y-55094368D01*
X86992857Y-54872138D01*
X87045000Y-54610000D01*
X87045000Y-41910000D01*
X86992857Y-41647862D01*
X86844368Y-41425632D01*
X86622138Y-41277143D01*
X86360000Y-41225000D01*
X85890608Y-41225000D01*
X85890608Y-40350213D01*
X85090000Y-39549605D01*
X84910395Y-39729210D01*
X84910395Y-39370000D01*
X84109787Y-38569392D01*
X83867603Y-38638857D01*
X83823547Y-38762344D01*
X83772397Y-38638857D01*
X83530213Y-38569392D01*
X82729605Y-39370000D01*
X83530213Y-40170608D01*
X83772397Y-40101143D01*
X83816452Y-39977655D01*
X83867603Y-40101143D01*
X84109787Y-40170608D01*
X84910395Y-39370000D01*
X84910395Y-39729210D01*
X84289392Y-40350213D01*
X84358857Y-40592397D01*
X84882302Y-40779144D01*
X85437368Y-40751362D01*
X85821143Y-40592397D01*
X85890608Y-40350213D01*
X85890608Y-41225000D01*
X83350608Y-41225000D01*
X83350608Y-40350213D01*
X82550000Y-39549605D01*
X82370395Y-39729210D01*
X82370395Y-39370000D01*
X81569787Y-38569392D01*
X81327603Y-38638857D01*
X81283547Y-38762344D01*
X81232397Y-38638857D01*
X80990213Y-38569392D01*
X80189605Y-39370000D01*
X80990213Y-40170608D01*
X81232397Y-40101143D01*
X81276452Y-39977655D01*
X81327603Y-40101143D01*
X81569787Y-40170608D01*
X82370395Y-39370000D01*
X82370395Y-39729210D01*
X81749392Y-40350213D01*
X81818857Y-40592397D01*
X82342302Y-40779144D01*
X82897368Y-40751362D01*
X83281143Y-40592397D01*
X83350608Y-40350213D01*
X83350608Y-41225000D01*
X80810608Y-41225000D01*
X80810608Y-40350213D01*
X80010000Y-39549605D01*
X79830395Y-39729210D01*
X79830395Y-39370000D01*
X79029787Y-38569392D01*
X78787603Y-38638857D01*
X78600856Y-39162302D01*
X78628638Y-39717368D01*
X78787603Y-40101143D01*
X79029787Y-40170608D01*
X79830395Y-39370000D01*
X79830395Y-39729210D01*
X79209392Y-40350213D01*
X79278857Y-40592397D01*
X79802302Y-40779144D01*
X80357368Y-40751362D01*
X80741143Y-40592397D01*
X80810608Y-40350213D01*
X80810608Y-41225000D01*
X76885000Y-41225000D01*
X76885000Y-33705000D01*
X89544480Y-33705000D01*
X89474936Y-33774544D01*
X89587716Y-33887324D01*
X89220270Y-34104252D01*
X88832147Y-35064518D01*
X88841045Y-36100216D01*
X89220270Y-37015748D01*
X89587718Y-37232677D01*
X91260395Y-35560000D01*
X91246252Y-35545857D01*
X91425857Y-35366252D01*
X91440000Y-35380395D01*
X91454142Y-35366252D01*
X91633747Y-35545857D01*
X91619605Y-35560000D01*
X93292282Y-37232677D01*
X93659730Y-37015748D01*
X94047853Y-36055482D01*
X94038955Y-35019784D01*
X93659730Y-34104252D01*
X93292283Y-33887324D01*
X93405064Y-33774544D01*
X93335520Y-33705000D01*
X99637006Y-33705000D01*
X99541391Y-33724019D01*
X99088172Y-34026851D01*
X98785340Y-34480070D01*
X98679000Y-35014679D01*
X98679000Y-36105321D01*
X98785340Y-36639930D01*
X99088172Y-37093149D01*
X99345364Y-37265000D01*
X99060000Y-37265000D01*
X98740459Y-37328561D01*
X98469566Y-37509566D01*
X97199566Y-38779566D01*
X96174132Y-39805000D01*
X94047853Y-39805000D01*
X93112677Y-39805000D01*
X93112677Y-37412282D01*
X91440000Y-35739605D01*
X91260395Y-35919210D01*
X89767323Y-37412282D01*
X89984252Y-37779730D01*
X90944518Y-38167853D01*
X91980216Y-38158955D01*
X92895748Y-37779730D01*
X93112677Y-37412282D01*
X93112677Y-39805000D01*
X91440000Y-39805000D01*
X91120459Y-39868561D01*
X90849566Y-40049566D01*
X89039144Y-41859988D01*
X89039144Y-39577698D01*
X89027242Y-39339903D01*
X89027242Y-36553339D01*
X88815010Y-36039697D01*
X88422370Y-35646371D01*
X87909100Y-35433243D01*
X87353339Y-35432758D01*
X86839697Y-35644990D01*
X86446371Y-36037630D01*
X86360050Y-36245512D01*
X86275010Y-36039697D01*
X85882370Y-35646371D01*
X85369100Y-35433243D01*
X84813339Y-35432758D01*
X84299697Y-35644990D01*
X83906371Y-36037630D01*
X83820050Y-36245512D01*
X83735010Y-36039697D01*
X83342370Y-35646371D01*
X82829100Y-35433243D01*
X82273339Y-35432758D01*
X81759697Y-35644990D01*
X81366371Y-36037630D01*
X81280050Y-36245512D01*
X81195010Y-36039697D01*
X80802370Y-35646371D01*
X80289100Y-35433243D01*
X79733339Y-35432758D01*
X79219697Y-35644990D01*
X78826371Y-36037630D01*
X78613243Y-36550900D01*
X78612758Y-37106661D01*
X78824990Y-37620303D01*
X79217630Y-38013629D01*
X79409727Y-38093394D01*
X79278857Y-38147603D01*
X79209392Y-38389787D01*
X80010000Y-39190395D01*
X80810608Y-38389787D01*
X80741143Y-38147603D01*
X80600682Y-38097491D01*
X80800303Y-38015010D01*
X81193629Y-37622370D01*
X81279949Y-37414487D01*
X81364990Y-37620303D01*
X81757630Y-38013629D01*
X81949727Y-38093394D01*
X81818857Y-38147603D01*
X81749392Y-38389787D01*
X82550000Y-39190395D01*
X83350608Y-38389787D01*
X83281143Y-38147603D01*
X83140682Y-38097491D01*
X83340303Y-38015010D01*
X83733629Y-37622370D01*
X83819949Y-37414487D01*
X83904990Y-37620303D01*
X84297630Y-38013629D01*
X84489727Y-38093394D01*
X84358857Y-38147603D01*
X84289392Y-38389787D01*
X85090000Y-39190395D01*
X85890608Y-38389787D01*
X85821143Y-38147603D01*
X85680682Y-38097491D01*
X85880303Y-38015010D01*
X86273629Y-37622370D01*
X86359949Y-37414487D01*
X86444990Y-37620303D01*
X86837630Y-38013629D01*
X87029727Y-38093394D01*
X86898857Y-38147603D01*
X86829392Y-38389787D01*
X87630000Y-39190395D01*
X88430608Y-38389787D01*
X88361143Y-38147603D01*
X88220682Y-38097491D01*
X88420303Y-38015010D01*
X88813629Y-37622370D01*
X89026757Y-37109100D01*
X89027242Y-36553339D01*
X89027242Y-39339903D01*
X89011362Y-39022632D01*
X88852397Y-38638857D01*
X88610213Y-38569392D01*
X87809605Y-39370000D01*
X88610213Y-40170608D01*
X88852397Y-40101143D01*
X89039144Y-39577698D01*
X89039144Y-41859988D01*
X88430608Y-42468524D01*
X88430608Y-40350213D01*
X87630000Y-39549605D01*
X87450395Y-39729210D01*
X87450395Y-39370000D01*
X86649787Y-38569392D01*
X86407603Y-38638857D01*
X86363547Y-38762344D01*
X86312397Y-38638857D01*
X86070213Y-38569392D01*
X85269605Y-39370000D01*
X86070213Y-40170608D01*
X86312397Y-40101143D01*
X86356452Y-39977655D01*
X86407603Y-40101143D01*
X86649787Y-40170608D01*
X87450395Y-39370000D01*
X87450395Y-39729210D01*
X86829392Y-40350213D01*
X86898857Y-40592397D01*
X87422302Y-40779144D01*
X87977368Y-40751362D01*
X88361143Y-40592397D01*
X88430608Y-40350213D01*
X88430608Y-42468524D01*
X88309566Y-42589566D01*
X88128561Y-42860459D01*
X88065000Y-43180000D01*
X88065000Y-44550000D01*
X88065000Y-47090000D01*
X88065000Y-49630000D01*
X88065000Y-50900000D01*
X88128561Y-51219541D01*
X88309566Y-51490434D01*
X88773187Y-51954055D01*
X88772758Y-52446661D01*
X88984990Y-52960303D01*
X89377630Y-53353629D01*
X89890900Y-53566757D01*
X90446661Y-53567242D01*
X90960303Y-53355010D01*
X91353629Y-52962370D01*
X91439949Y-52754487D01*
X91524990Y-52960303D01*
X91917630Y-53353629D01*
X92430900Y-53566757D01*
X92986661Y-53567242D01*
X93500303Y-53355010D01*
X93893629Y-52962370D01*
X94106757Y-52449100D01*
X94107242Y-51893339D01*
X93895010Y-51379697D01*
X93502370Y-50986371D01*
X93294487Y-50900050D01*
X93500303Y-50815010D01*
X93893629Y-50422370D01*
X94106757Y-49909100D01*
X94107242Y-49353339D01*
X93895010Y-48839697D01*
X93502370Y-48446371D01*
X93294487Y-48360050D01*
X93500303Y-48275010D01*
X93893629Y-47882370D01*
X94106757Y-47369100D01*
X94107242Y-46813339D01*
X93895010Y-46299697D01*
X93502370Y-45906371D01*
X93294487Y-45820050D01*
X93500303Y-45735010D01*
X93893629Y-45342370D01*
X94106757Y-44829100D01*
X94107242Y-44273339D01*
X93895010Y-43759697D01*
X93502370Y-43366371D01*
X92989100Y-43153243D01*
X92433339Y-43152758D01*
X91919697Y-43364990D01*
X91526371Y-43757630D01*
X91440050Y-43965512D01*
X91355010Y-43759697D01*
X90962370Y-43366371D01*
X90449100Y-43153243D01*
X90107922Y-43152945D01*
X91785868Y-41475000D01*
X95685000Y-41475000D01*
X95685000Y-43180000D01*
X95748561Y-43499541D01*
X95929566Y-43770434D01*
X113709566Y-61550434D01*
X113980459Y-61731439D01*
X113980460Y-61731439D01*
X114300000Y-61795000D01*
X114359609Y-61795000D01*
X114707630Y-62143629D01*
X115220900Y-62356757D01*
X115776661Y-62357242D01*
X116290303Y-62145010D01*
X116683629Y-61752370D01*
X116896757Y-61239100D01*
X116897242Y-60683339D01*
X116685010Y-60169697D01*
X116292370Y-59776371D01*
X115779100Y-59563243D01*
X115223339Y-59562758D01*
X114709697Y-59774990D01*
X114502596Y-59981728D01*
X97355000Y-42834132D01*
X97355000Y-40985868D01*
X98135868Y-40205000D01*
X99189609Y-40205000D01*
X99537630Y-40553629D01*
X99745512Y-40639949D01*
X99539697Y-40724990D01*
X99146371Y-41117630D01*
X98933243Y-41630900D01*
X98932758Y-42186661D01*
X99144990Y-42700303D01*
X99495000Y-43050924D01*
X99495000Y-43180000D01*
X99558561Y-43499541D01*
X99739566Y-43770434D01*
X102279566Y-46310434D01*
X102550459Y-46491439D01*
X102550460Y-46491439D01*
X102870000Y-46555000D01*
X116494132Y-46555000D01*
X118789566Y-48850434D01*
X119060459Y-49031439D01*
X119060460Y-49031439D01*
X119380000Y-49095000D01*
X131652765Y-49095000D01*
X131893201Y-49194838D01*
X132265167Y-49195162D01*
X132608943Y-49053117D01*
X132872192Y-48790327D01*
X133014838Y-48446799D01*
X133015162Y-48074833D01*
X132873117Y-47731057D01*
X132610327Y-47467808D01*
X132266799Y-47325162D01*
X131894833Y-47324838D01*
X131652421Y-47425000D01*
X119725868Y-47425000D01*
X117430434Y-45129566D01*
X117159541Y-44948561D01*
X116840000Y-44885000D01*
X103215868Y-44885000D01*
X101273223Y-42942355D01*
X101513629Y-42702370D01*
X101599949Y-42494487D01*
X101684990Y-42700303D01*
X102077630Y-43093629D01*
X102590900Y-43306757D01*
X103146661Y-43307242D01*
X103660303Y-43095010D01*
X104053629Y-42702370D01*
X104139949Y-42494487D01*
X104224990Y-42700303D01*
X104617630Y-43093629D01*
X105130900Y-43306757D01*
X105686661Y-43307242D01*
X106200303Y-43095010D01*
X106593629Y-42702370D01*
X106679949Y-42494487D01*
X106764990Y-42700303D01*
X107157630Y-43093629D01*
X107670900Y-43306757D01*
X108226661Y-43307242D01*
X108740303Y-43095010D01*
X109090924Y-42745000D01*
X112684132Y-42745000D01*
X113407465Y-43468333D01*
X113506883Y-43708943D01*
X113769673Y-43972192D01*
X114113201Y-44114838D01*
X114485167Y-44115162D01*
X114828943Y-43973117D01*
X115092192Y-43710327D01*
X115234838Y-43366799D01*
X115235162Y-42994833D01*
X115093117Y-42651057D01*
X114830327Y-42387808D01*
X114588089Y-42287221D01*
X113620434Y-41319566D01*
X113349541Y-41138561D01*
X113030000Y-41075000D01*
X109090390Y-41075000D01*
X108742370Y-40726371D01*
X108534487Y-40640050D01*
X108740303Y-40555010D01*
X109090924Y-40205000D01*
X112684132Y-40205000D01*
X118789566Y-46310434D01*
X119060459Y-46491439D01*
X119060460Y-46491439D01*
X119380000Y-46555000D01*
X135890000Y-46555000D01*
X136209540Y-46491439D01*
X136209541Y-46491439D01*
X136480434Y-46310434D01*
X140045868Y-42745000D01*
X140224132Y-42745000D01*
X128949566Y-54019566D01*
X128768561Y-54290459D01*
X128705000Y-54610000D01*
X128705000Y-60614132D01*
X121574132Y-67745000D01*
X111650390Y-67745000D01*
X111302370Y-67396371D01*
X110789100Y-67183243D01*
X110233339Y-67182758D01*
X109719697Y-67394990D01*
X109326371Y-67787630D01*
X109113243Y-68300900D01*
X109112758Y-68856661D01*
X109324990Y-69370303D01*
X109717630Y-69763629D01*
X109925512Y-69849949D01*
X109719697Y-69934990D01*
X109326371Y-70327630D01*
X109113243Y-70840900D01*
X109112758Y-71396661D01*
X109324990Y-71910303D01*
X109717630Y-72303629D01*
X109925512Y-72389949D01*
X109719697Y-72474990D01*
X109326371Y-72867630D01*
X109113243Y-73380900D01*
X109112758Y-73936661D01*
X109324990Y-74450303D01*
X109717630Y-74843629D01*
X109909727Y-74923394D01*
X109778857Y-74977603D01*
X109709392Y-75219787D01*
X110510000Y-76020395D01*
X111310608Y-75219787D01*
X111241143Y-74977603D01*
X111100682Y-74927491D01*
X111300303Y-74845010D01*
X111650924Y-74495000D01*
X121920000Y-74495000D01*
X122239540Y-74431439D01*
X122239541Y-74431439D01*
X122510434Y-74250434D01*
X135210434Y-61550434D01*
X135391439Y-61279541D01*
X135391439Y-61279540D01*
X135455000Y-60960000D01*
X135455000Y-54955868D01*
X143855868Y-46555000D01*
X167640000Y-46555000D01*
X167959540Y-46491439D01*
X167959541Y-46491439D01*
X168230434Y-46310434D01*
X168782966Y-45757901D01*
X168782758Y-45996661D01*
X168994990Y-46510303D01*
X169387630Y-46903629D01*
X169595512Y-46989949D01*
X169389697Y-47074990D01*
X168996371Y-47467630D01*
X168783243Y-47980900D01*
X168782758Y-48536661D01*
X168994990Y-49050303D01*
X169387630Y-49443629D01*
X169595512Y-49529949D01*
X169389697Y-49614990D01*
X168996371Y-50007630D01*
X168783243Y-50520900D01*
X168782758Y-51076661D01*
X168994990Y-51590303D01*
X169387630Y-51983629D01*
X169595512Y-52069949D01*
X169389697Y-52154990D01*
X168996371Y-52547630D01*
X168783243Y-53060900D01*
X168782758Y-53616661D01*
X168994990Y-54130303D01*
X169387630Y-54523629D01*
X169595512Y-54609949D01*
X169389697Y-54694990D01*
X168996371Y-55087630D01*
X168783243Y-55600900D01*
X168782758Y-56156661D01*
X168994990Y-56670303D01*
X169387630Y-57063629D01*
X169595512Y-57149949D01*
X169389697Y-57234990D01*
X168996371Y-57627630D01*
X168783243Y-58140900D01*
X168782758Y-58696661D01*
X168994990Y-59210303D01*
X169387630Y-59603629D01*
X169595512Y-59689949D01*
X169389697Y-59774990D01*
X168996371Y-60167630D01*
X168783243Y-60680900D01*
X168782758Y-61236661D01*
X168994990Y-61750303D01*
X169387630Y-62143629D01*
X169595512Y-62229949D01*
X169389697Y-62314990D01*
X168996371Y-62707630D01*
X168783243Y-63220900D01*
X168782758Y-63776661D01*
X168994990Y-64290303D01*
X169387630Y-64683629D01*
X169595512Y-64769949D01*
X169389697Y-64854990D01*
X168996371Y-65247630D01*
X168783243Y-65760900D01*
X168782758Y-66316661D01*
X168994990Y-66830303D01*
X169387630Y-67223629D01*
X169595512Y-67309949D01*
X169389697Y-67394990D01*
X168996371Y-67787630D01*
X168783243Y-68300900D01*
X168782758Y-68856661D01*
X168994990Y-69370303D01*
X169387630Y-69763629D01*
X169595512Y-69849949D01*
X169389697Y-69934990D01*
X168996371Y-70327630D01*
X168783243Y-70840900D01*
X168782758Y-71396661D01*
X168994990Y-71910303D01*
X169387630Y-72303629D01*
X169595512Y-72389949D01*
X169389697Y-72474990D01*
X168996371Y-72867630D01*
X168783243Y-73380900D01*
X168782758Y-73936661D01*
X168994990Y-74450303D01*
X169387630Y-74843629D01*
X169595512Y-74929949D01*
X169389697Y-75014990D01*
X169039075Y-75365000D01*
X168910000Y-75365000D01*
X168590459Y-75428561D01*
X168319566Y-75609566D01*
X167351666Y-76577465D01*
X167111057Y-76676883D01*
X166847808Y-76939673D01*
X166705162Y-77283201D01*
X166704838Y-77655167D01*
X166846883Y-77998943D01*
X167109673Y-78262192D01*
X167453201Y-78404838D01*
X167825167Y-78405162D01*
X168168943Y-78263117D01*
X168432192Y-78000327D01*
X168532778Y-77758089D01*
X169147644Y-77143223D01*
X169387630Y-77383629D01*
X169595512Y-77469949D01*
X169389697Y-77554990D01*
X168996371Y-77947630D01*
X168783243Y-78460900D01*
X168782758Y-79016661D01*
X168994990Y-79530303D01*
X169387630Y-79923629D01*
X169900900Y-80136757D01*
X170456661Y-80137242D01*
X170970303Y-79925010D01*
X171363629Y-79532370D01*
X171449949Y-79324487D01*
X171534990Y-79530303D01*
X171927630Y-79923629D01*
X172440900Y-80136757D01*
X172996661Y-80137242D01*
X173510303Y-79925010D01*
X173903629Y-79532370D01*
X174116757Y-79019100D01*
X174117242Y-78463339D01*
X173905010Y-77949697D01*
X173512370Y-77556371D01*
X173304487Y-77470050D01*
X173510303Y-77385010D01*
X173903629Y-76992370D01*
X174116757Y-76479100D01*
X174117242Y-75923339D01*
X173905010Y-75409697D01*
X173512370Y-75016371D01*
X173304487Y-74930050D01*
X173510303Y-74845010D01*
X173903629Y-74452370D01*
X174116757Y-73939100D01*
X174117242Y-73383339D01*
X173905010Y-72869697D01*
X173512370Y-72476371D01*
X173304487Y-72390050D01*
X173510303Y-72305010D01*
X173903629Y-71912370D01*
X174116757Y-71399100D01*
X174117242Y-70843339D01*
X173905010Y-70329697D01*
X173512370Y-69936371D01*
X173304487Y-69850050D01*
X173510303Y-69765010D01*
X173903629Y-69372370D01*
X174116757Y-68859100D01*
X174117242Y-68303339D01*
X173905010Y-67789697D01*
X173512370Y-67396371D01*
X173304487Y-67310050D01*
X173510303Y-67225010D01*
X173903629Y-66832370D01*
X174116757Y-66319100D01*
X174117242Y-65763339D01*
X173905010Y-65249697D01*
X173512370Y-64856371D01*
X173304487Y-64770050D01*
X173510303Y-64685010D01*
X173903629Y-64292370D01*
X174116757Y-63779100D01*
X174117242Y-63223339D01*
X173905010Y-62709697D01*
X173512370Y-62316371D01*
X173304487Y-62230050D01*
X173510303Y-62145010D01*
X173903629Y-61752370D01*
X174116757Y-61239100D01*
X174117242Y-60683339D01*
X173905010Y-60169697D01*
X173512370Y-59776371D01*
X173304487Y-59690050D01*
X173510303Y-59605010D01*
X173903629Y-59212370D01*
X174116757Y-58699100D01*
X174117242Y-58143339D01*
X173905010Y-57629697D01*
X173512370Y-57236371D01*
X173304487Y-57150050D01*
X173510303Y-57065010D01*
X173903629Y-56672370D01*
X174116757Y-56159100D01*
X174117242Y-55603339D01*
X173905010Y-55089697D01*
X173512370Y-54696371D01*
X173304487Y-54610050D01*
X173510303Y-54525010D01*
X173903629Y-54132370D01*
X174116757Y-53619100D01*
X174117242Y-53063339D01*
X173905010Y-52549697D01*
X173512370Y-52156371D01*
X173304487Y-52070050D01*
X173510303Y-51985010D01*
X173903629Y-51592370D01*
X174116757Y-51079100D01*
X174117242Y-50523339D01*
X173905010Y-50009697D01*
X173512370Y-49616371D01*
X173304487Y-49530050D01*
X173510303Y-49445010D01*
X173903629Y-49052370D01*
X174116757Y-48539100D01*
X174117242Y-47983339D01*
X173905010Y-47469697D01*
X173512370Y-47076371D01*
X173304487Y-46990050D01*
X173510303Y-46905010D01*
X173903629Y-46512370D01*
X174116757Y-45999100D01*
X174117242Y-45443339D01*
X173905010Y-44929697D01*
X173512370Y-44536371D01*
X173304487Y-44450050D01*
X173510303Y-44365010D01*
X173903629Y-43972370D01*
X174116757Y-43459100D01*
X174117242Y-42903339D01*
X173905010Y-42389697D01*
X173512370Y-41996371D01*
X173304487Y-41910050D01*
X173510303Y-41825010D01*
X173903629Y-41432370D01*
X174116757Y-40919100D01*
X174117242Y-40363339D01*
X173905010Y-39849697D01*
X173512370Y-39456371D01*
X173304487Y-39370050D01*
X173510303Y-39285010D01*
X173903629Y-38892370D01*
X174116757Y-38379100D01*
X174117242Y-37823339D01*
X173905010Y-37309697D01*
X173512370Y-36916371D01*
X173304487Y-36830050D01*
X173510303Y-36745010D01*
X173903629Y-36352370D01*
X174116757Y-35839100D01*
X174117242Y-35283339D01*
X173905010Y-34769697D01*
X173512370Y-34376371D01*
X172999100Y-34163243D01*
X172443339Y-34162758D01*
X171929697Y-34374990D01*
X171536371Y-34767630D01*
X171450050Y-34975512D01*
X171365010Y-34769697D01*
X170972370Y-34376371D01*
X170459100Y-34163243D01*
X169903339Y-34162758D01*
X169389697Y-34374990D01*
X168996371Y-34767630D01*
X168930358Y-34926604D01*
X168589730Y-34104252D01*
X168222283Y-33887324D01*
X168335064Y-33774544D01*
X168265520Y-33705000D01*
X173706264Y-33705000D01*
X174575000Y-34573736D01*
X174575000Y-45720000D01*
X174627143Y-45982138D01*
X174775632Y-46204368D01*
X175133000Y-46561736D01*
X175133000Y-82830848D01*
M02*
