G04 #@! TF.FileFunction,Legend,Top*
%FSLAX46Y46*%
G04 Gerber Fmt 4.6, Leading zero omitted, Abs format (unit mm)*
G04 Created by KiCad (PCBNEW (after 2015-mar-04 BZR unknown)-product) date 4/2/2015 5:06:05 PM*
%MOMM*%
G01*
G04 APERTURE LIST*
%ADD10C,0.100000*%
%ADD11C,0.150000*%
%ADD12C,0.381000*%
%ADD13C,0.127000*%
%ADD14C,0.304800*%
%ADD15C,0.063500*%
G04 APERTURE END LIST*
D10*
D11*
X154940000Y-68580000D02*
X154940000Y-78740000D01*
X154940000Y-78740000D02*
X139700000Y-78740000D01*
X154940000Y-68580000D02*
X139700000Y-68580000D01*
X96520000Y-63500000D02*
X111760000Y-63500000D01*
X111760000Y-63500000D02*
X111760000Y-55880000D01*
X96520000Y-63500000D02*
X96520000Y-55880000D01*
X96520000Y-63500000D02*
X96520000Y-40640000D01*
X96520000Y-63500000D02*
X96520000Y-40640000D01*
X78740000Y-63500000D02*
X104140000Y-63500000D01*
X104140000Y-63500000D02*
X104140000Y-73660000D01*
X104140000Y-73660000D02*
X78740000Y-73660000D01*
X78740000Y-73660000D02*
X81280000Y-73660000D01*
D12*
X76200000Y-86360000D02*
X175260000Y-86360000D01*
D11*
X86360000Y-40640000D02*
X78740000Y-40640000D01*
X81280000Y-35560000D02*
X88900000Y-35560000D01*
X111760000Y-56130000D02*
X111760000Y-38350000D01*
X96520000Y-38100000D02*
X96520000Y-55880000D01*
X107950000Y-39370000D02*
X100330000Y-39370000D01*
X113050000Y-78740000D02*
X113050000Y-68580000D01*
X113050000Y-68580000D02*
X140990000Y-68580000D01*
X140990000Y-78740000D02*
X113050000Y-78740000D01*
X116840000Y-60960000D02*
X116840000Y-40640000D01*
X116840000Y-40640000D02*
X162560000Y-40640000D01*
X162560000Y-40640000D02*
X162560000Y-60960000D01*
X162560000Y-60960000D02*
X116840000Y-60960000D01*
X78740000Y-73660000D02*
X96520000Y-73660000D01*
X96520000Y-63500000D02*
X78740000Y-63500000D01*
X87630000Y-46990000D02*
X87630000Y-52070000D01*
X95250000Y-46990000D02*
X95250000Y-52070000D01*
D13*
X107315000Y-80645000D02*
G75*
G03X107315000Y-80645000I-3175000J0D01*
G01*
X99695000Y-80645000D02*
G75*
G03X99695000Y-80645000I-3175000J0D01*
G01*
X76200000Y-73660000D02*
X88265000Y-73660000D01*
X88265000Y-73660000D02*
X88265000Y-86360000D01*
X76200000Y-41910000D02*
X85725000Y-41910000D01*
X85725000Y-41910000D02*
X85725000Y-54610000D01*
X85725000Y-54610000D02*
X76200000Y-54610000D01*
X138557000Y-54610000D02*
X138557000Y-62230000D01*
X138557000Y-62230000D02*
X143637000Y-62230000D01*
X143637000Y-62230000D02*
X143637000Y-54610000D01*
X143637000Y-54610000D02*
X138557000Y-54610000D01*
X152400000Y-58420000D02*
G75*
G03X152400000Y-58420000I-2032000J0D01*
G01*
D12*
X173990000Y-33020000D02*
X76200000Y-33020000D01*
X175260000Y-45720000D02*
X175260000Y-34290000D01*
X175260000Y-34290000D02*
X173990000Y-33020000D01*
X76200000Y-86360000D02*
X76200000Y-33020000D01*
X175260000Y-45720000D02*
X177800000Y-48260000D01*
X177800000Y-48260000D02*
X177800000Y-81280000D01*
X177800000Y-81280000D02*
X175260000Y-83820000D01*
X175260000Y-83820000D02*
X175260000Y-86360000D01*
D14*
X78159429Y-29826857D02*
X78377143Y-29899429D01*
X78740000Y-29899429D01*
X78885143Y-29826857D01*
X78957714Y-29754286D01*
X79030286Y-29609143D01*
X79030286Y-29464000D01*
X78957714Y-29318857D01*
X78885143Y-29246286D01*
X78740000Y-29173714D01*
X78449714Y-29101143D01*
X78304572Y-29028571D01*
X78232000Y-28956000D01*
X78159429Y-28810857D01*
X78159429Y-28665714D01*
X78232000Y-28520571D01*
X78304572Y-28448000D01*
X78449714Y-28375429D01*
X78812572Y-28375429D01*
X79030286Y-28448000D01*
X79683429Y-29899429D02*
X79683429Y-28375429D01*
X79683429Y-29101143D02*
X80554286Y-29101143D01*
X80554286Y-29899429D02*
X80554286Y-28375429D01*
X81280000Y-29899429D02*
X81280000Y-28375429D01*
X82005714Y-29101143D02*
X82513714Y-29101143D01*
X82731428Y-29899429D02*
X82005714Y-29899429D01*
X82005714Y-28375429D01*
X82731428Y-28375429D01*
X84110285Y-29899429D02*
X83384571Y-29899429D01*
X83384571Y-28375429D01*
X84618285Y-29899429D02*
X84618285Y-28375429D01*
X84981142Y-28375429D01*
X85198857Y-28448000D01*
X85343999Y-28593143D01*
X85416571Y-28738286D01*
X85489142Y-29028571D01*
X85489142Y-29246286D01*
X85416571Y-29536571D01*
X85343999Y-29681714D01*
X85198857Y-29826857D01*
X84981142Y-29899429D01*
X84618285Y-29899429D01*
X86940571Y-29899429D02*
X86069714Y-29899429D01*
X86505142Y-29899429D02*
X86505142Y-28375429D01*
X86359999Y-28593143D01*
X86214857Y-28738286D01*
X86069714Y-28810857D01*
D15*
X76533825Y-61412381D02*
X76533825Y-60412381D01*
X76860396Y-61412381D02*
X76860396Y-60888571D01*
X76824110Y-60793333D01*
X76751539Y-60745714D01*
X76642682Y-60745714D01*
X76570110Y-60793333D01*
X76533825Y-60840952D01*
X77114396Y-60745714D02*
X77404682Y-60745714D01*
X77223254Y-60412381D02*
X77223254Y-61269524D01*
X77259539Y-61364762D01*
X77332111Y-61412381D01*
X77404682Y-61412381D01*
X77549825Y-60745714D02*
X77840111Y-60745714D01*
X77658683Y-60412381D02*
X77658683Y-61269524D01*
X77694968Y-61364762D01*
X77767540Y-61412381D01*
X77840111Y-61412381D01*
X78094112Y-60745714D02*
X78094112Y-61745714D01*
X78094112Y-60793333D02*
X78166683Y-60745714D01*
X78311826Y-60745714D01*
X78384397Y-60793333D01*
X78420683Y-60840952D01*
X78456969Y-60936190D01*
X78456969Y-61221905D01*
X78420683Y-61317143D01*
X78384397Y-61364762D01*
X78311826Y-61412381D01*
X78166683Y-61412381D01*
X78094112Y-61364762D01*
X78747255Y-61364762D02*
X78819826Y-61412381D01*
X78964969Y-61412381D01*
X79037541Y-61364762D01*
X79073826Y-61269524D01*
X79073826Y-61221905D01*
X79037541Y-61126667D01*
X78964969Y-61079048D01*
X78856112Y-61079048D01*
X78783541Y-61031429D01*
X78747255Y-60936190D01*
X78747255Y-60888571D01*
X78783541Y-60793333D01*
X78856112Y-60745714D01*
X78964969Y-60745714D01*
X79037541Y-60793333D01*
X79400398Y-61317143D02*
X79436683Y-61364762D01*
X79400398Y-61412381D01*
X79364112Y-61364762D01*
X79400398Y-61317143D01*
X79400398Y-61412381D01*
X79400398Y-60793333D02*
X79436683Y-60840952D01*
X79400398Y-60888571D01*
X79364112Y-60840952D01*
X79400398Y-60793333D01*
X79400398Y-60888571D01*
X80307540Y-60364762D02*
X79654397Y-61650476D01*
X81105826Y-60364762D02*
X80452683Y-61650476D01*
X81686398Y-60745714D02*
X81686398Y-61555238D01*
X81650112Y-61650476D01*
X81613827Y-61698095D01*
X81541255Y-61745714D01*
X81432398Y-61745714D01*
X81359827Y-61698095D01*
X81686398Y-61364762D02*
X81613827Y-61412381D01*
X81468684Y-61412381D01*
X81396112Y-61364762D01*
X81359827Y-61317143D01*
X81323541Y-61221905D01*
X81323541Y-60936190D01*
X81359827Y-60840952D01*
X81396112Y-60793333D01*
X81468684Y-60745714D01*
X81613827Y-60745714D01*
X81686398Y-60793333D01*
X82049256Y-61412381D02*
X82049256Y-60745714D01*
X82049256Y-60412381D02*
X82012970Y-60460000D01*
X82049256Y-60507619D01*
X82085541Y-60460000D01*
X82049256Y-60412381D01*
X82049256Y-60507619D01*
X82303255Y-60745714D02*
X82593541Y-60745714D01*
X82412113Y-60412381D02*
X82412113Y-61269524D01*
X82448398Y-61364762D01*
X82520970Y-61412381D01*
X82593541Y-61412381D01*
X82847542Y-61412381D02*
X82847542Y-60412381D01*
X83174113Y-61412381D02*
X83174113Y-60888571D01*
X83137827Y-60793333D01*
X83065256Y-60745714D01*
X82956399Y-60745714D01*
X82883827Y-60793333D01*
X82847542Y-60840952D01*
X83863542Y-60745714D02*
X83863542Y-61412381D01*
X83536971Y-60745714D02*
X83536971Y-61269524D01*
X83573256Y-61364762D01*
X83645828Y-61412381D01*
X83754685Y-61412381D01*
X83827256Y-61364762D01*
X83863542Y-61317143D01*
X84226400Y-61412381D02*
X84226400Y-60412381D01*
X84226400Y-60793333D02*
X84298971Y-60745714D01*
X84444114Y-60745714D01*
X84516685Y-60793333D01*
X84552971Y-60840952D01*
X84589257Y-60936190D01*
X84589257Y-61221905D01*
X84552971Y-61317143D01*
X84516685Y-61364762D01*
X84444114Y-61412381D01*
X84298971Y-61412381D01*
X84226400Y-61364762D01*
X84915829Y-61317143D02*
X84952114Y-61364762D01*
X84915829Y-61412381D01*
X84879543Y-61364762D01*
X84915829Y-61317143D01*
X84915829Y-61412381D01*
X85605257Y-61364762D02*
X85532686Y-61412381D01*
X85387543Y-61412381D01*
X85314971Y-61364762D01*
X85278686Y-61317143D01*
X85242400Y-61221905D01*
X85242400Y-60936190D01*
X85278686Y-60840952D01*
X85314971Y-60793333D01*
X85387543Y-60745714D01*
X85532686Y-60745714D01*
X85605257Y-60793333D01*
X86040686Y-61412381D02*
X85968114Y-61364762D01*
X85931829Y-61317143D01*
X85895543Y-61221905D01*
X85895543Y-60936190D01*
X85931829Y-60840952D01*
X85968114Y-60793333D01*
X86040686Y-60745714D01*
X86149543Y-60745714D01*
X86222114Y-60793333D01*
X86258400Y-60840952D01*
X86294686Y-60936190D01*
X86294686Y-61221905D01*
X86258400Y-61317143D01*
X86222114Y-61364762D01*
X86149543Y-61412381D01*
X86040686Y-61412381D01*
X86621258Y-61412381D02*
X86621258Y-60745714D01*
X86621258Y-60840952D02*
X86657543Y-60793333D01*
X86730115Y-60745714D01*
X86838972Y-60745714D01*
X86911543Y-60793333D01*
X86947829Y-60888571D01*
X86947829Y-61412381D01*
X86947829Y-60888571D02*
X86984115Y-60793333D01*
X87056686Y-60745714D01*
X87165543Y-60745714D01*
X87238115Y-60793333D01*
X87274400Y-60888571D01*
X87274400Y-61412381D01*
X88181543Y-60364762D02*
X87528400Y-61650476D01*
X88544401Y-61412381D02*
X88471829Y-61364762D01*
X88435544Y-61269524D01*
X88435544Y-60412381D01*
X88943544Y-61412381D02*
X88870972Y-61364762D01*
X88834687Y-61317143D01*
X88798401Y-61221905D01*
X88798401Y-60936190D01*
X88834687Y-60840952D01*
X88870972Y-60793333D01*
X88943544Y-60745714D01*
X89052401Y-60745714D01*
X89124972Y-60793333D01*
X89161258Y-60840952D01*
X89197544Y-60936190D01*
X89197544Y-61221905D01*
X89161258Y-61317143D01*
X89124972Y-61364762D01*
X89052401Y-61412381D01*
X88943544Y-61412381D01*
X89487830Y-61364762D02*
X89560401Y-61412381D01*
X89705544Y-61412381D01*
X89778116Y-61364762D01*
X89814401Y-61269524D01*
X89814401Y-61221905D01*
X89778116Y-61126667D01*
X89705544Y-61079048D01*
X89596687Y-61079048D01*
X89524116Y-61031429D01*
X89487830Y-60936190D01*
X89487830Y-60888571D01*
X89524116Y-60793333D01*
X89596687Y-60745714D01*
X89705544Y-60745714D01*
X89778116Y-60793333D01*
X90032115Y-60745714D02*
X90322401Y-60745714D01*
X90140973Y-60412381D02*
X90140973Y-61269524D01*
X90177258Y-61364762D01*
X90249830Y-61412381D01*
X90322401Y-61412381D01*
X90902973Y-61412381D02*
X90902973Y-60888571D01*
X90866687Y-60793333D01*
X90794116Y-60745714D01*
X90648973Y-60745714D01*
X90576402Y-60793333D01*
X90902973Y-61364762D02*
X90830402Y-61412381D01*
X90648973Y-61412381D01*
X90576402Y-61364762D01*
X90540116Y-61269524D01*
X90540116Y-61174286D01*
X90576402Y-61079048D01*
X90648973Y-61031429D01*
X90830402Y-61031429D01*
X90902973Y-60983810D01*
X91265831Y-60745714D02*
X91265831Y-61412381D01*
X91265831Y-60840952D02*
X91302116Y-60793333D01*
X91374688Y-60745714D01*
X91483545Y-60745714D01*
X91556116Y-60793333D01*
X91592402Y-60888571D01*
X91592402Y-61412381D01*
X92281831Y-60745714D02*
X92281831Y-61555238D01*
X92245545Y-61650476D01*
X92209260Y-61698095D01*
X92136688Y-61745714D01*
X92027831Y-61745714D01*
X91955260Y-61698095D01*
X92281831Y-61364762D02*
X92209260Y-61412381D01*
X92064117Y-61412381D01*
X91991545Y-61364762D01*
X91955260Y-61317143D01*
X91918974Y-61221905D01*
X91918974Y-60936190D01*
X91955260Y-60840952D01*
X91991545Y-60793333D01*
X92064117Y-60745714D01*
X92209260Y-60745714D01*
X92281831Y-60793333D01*
X92753546Y-61412381D02*
X92680974Y-61364762D01*
X92644689Y-61269524D01*
X92644689Y-60412381D01*
X93334117Y-61364762D02*
X93261546Y-61412381D01*
X93116403Y-61412381D01*
X93043832Y-61364762D01*
X93007546Y-61269524D01*
X93007546Y-60888571D01*
X93043832Y-60793333D01*
X93116403Y-60745714D01*
X93261546Y-60745714D01*
X93334117Y-60793333D01*
X93370403Y-60888571D01*
X93370403Y-60983810D01*
X93007546Y-61079048D01*
X93660689Y-61364762D02*
X93733260Y-61412381D01*
X93878403Y-61412381D01*
X93950975Y-61364762D01*
X93987260Y-61269524D01*
X93987260Y-61221905D01*
X93950975Y-61126667D01*
X93878403Y-61079048D01*
X93769546Y-61079048D01*
X93696975Y-61031429D01*
X93660689Y-60936190D01*
X93660689Y-60888571D01*
X93696975Y-60793333D01*
X93769546Y-60745714D01*
X93878403Y-60745714D01*
X93950975Y-60793333D01*
X94858117Y-60364762D02*
X94204974Y-61650476D01*
X95112118Y-61412381D02*
X95112118Y-60412381D01*
X95438689Y-61412381D02*
X95438689Y-60888571D01*
X95402403Y-60793333D01*
X95329832Y-60745714D01*
X95220975Y-60745714D01*
X95148403Y-60793333D01*
X95112118Y-60840952D01*
X95728975Y-60745714D02*
X95910404Y-61412381D01*
X96091832Y-60745714D02*
X95910404Y-61412381D01*
X95837832Y-61650476D01*
X95801547Y-61698095D01*
X95728975Y-61745714D01*
X96708689Y-61412381D02*
X96708689Y-60412381D01*
X96708689Y-61364762D02*
X96636118Y-61412381D01*
X96490975Y-61412381D01*
X96418403Y-61364762D01*
X96382118Y-61317143D01*
X96345832Y-61221905D01*
X96345832Y-60936190D01*
X96382118Y-60840952D01*
X96418403Y-60793333D01*
X96490975Y-60745714D01*
X96636118Y-60745714D01*
X96708689Y-60793333D01*
X97071547Y-61412381D02*
X97071547Y-60745714D01*
X97071547Y-60936190D02*
X97107832Y-60840952D01*
X97144118Y-60793333D01*
X97216689Y-60745714D01*
X97289261Y-60745714D01*
X97652118Y-61412381D02*
X97579546Y-61364762D01*
X97543261Y-61317143D01*
X97506975Y-61221905D01*
X97506975Y-60936190D01*
X97543261Y-60840952D01*
X97579546Y-60793333D01*
X97652118Y-60745714D01*
X97760975Y-60745714D01*
X97833546Y-60793333D01*
X97869832Y-60840952D01*
X97906118Y-60936190D01*
X97906118Y-61221905D01*
X97869832Y-61317143D01*
X97833546Y-61364762D01*
X97760975Y-61412381D01*
X97652118Y-61412381D01*
X98232690Y-60745714D02*
X98232690Y-61745714D01*
X98232690Y-60793333D02*
X98305261Y-60745714D01*
X98450404Y-60745714D01*
X98522975Y-60793333D01*
X98559261Y-60840952D01*
X98595547Y-60936190D01*
X98595547Y-61221905D01*
X98559261Y-61317143D01*
X98522975Y-61364762D01*
X98450404Y-61412381D01*
X98305261Y-61412381D01*
X98232690Y-61364762D01*
X99030976Y-61412381D02*
X98958404Y-61364762D01*
X98922119Y-61317143D01*
X98885833Y-61221905D01*
X98885833Y-60936190D01*
X98922119Y-60840952D01*
X98958404Y-60793333D01*
X99030976Y-60745714D01*
X99139833Y-60745714D01*
X99212404Y-60793333D01*
X99248690Y-60840952D01*
X99284976Y-60936190D01*
X99284976Y-61221905D01*
X99248690Y-61317143D01*
X99212404Y-61364762D01*
X99139833Y-61412381D01*
X99030976Y-61412381D01*
X99611548Y-60745714D02*
X99611548Y-61412381D01*
X99611548Y-60840952D02*
X99647833Y-60793333D01*
X99720405Y-60745714D01*
X99829262Y-60745714D01*
X99901833Y-60793333D01*
X99938119Y-60888571D01*
X99938119Y-61412381D01*
X100300977Y-61412381D02*
X100300977Y-60745714D01*
X100300977Y-60412381D02*
X100264691Y-60460000D01*
X100300977Y-60507619D01*
X100337262Y-60460000D01*
X100300977Y-60412381D01*
X100300977Y-60507619D01*
X100990405Y-61364762D02*
X100917834Y-61412381D01*
X100772691Y-61412381D01*
X100700119Y-61364762D01*
X100663834Y-61317143D01*
X100627548Y-61221905D01*
X100627548Y-60936190D01*
X100663834Y-60840952D01*
X100700119Y-60793333D01*
X100772691Y-60745714D01*
X100917834Y-60745714D01*
X100990405Y-60793333D01*
X101280691Y-61364762D02*
X101353262Y-61412381D01*
X101498405Y-61412381D01*
X101570977Y-61364762D01*
X101607262Y-61269524D01*
X101607262Y-61221905D01*
X101570977Y-61126667D01*
X101498405Y-61079048D01*
X101389548Y-61079048D01*
X101316977Y-61031429D01*
X101280691Y-60936190D01*
X101280691Y-60888571D01*
X101316977Y-60793333D01*
X101389548Y-60745714D01*
X101498405Y-60745714D01*
X101570977Y-60793333D01*
D11*
X76653333Y-56046667D02*
X77129524Y-56046667D01*
X76558095Y-56332381D02*
X76891428Y-55332381D01*
X77224762Y-56332381D01*
X77558095Y-56332381D02*
X77558095Y-55665714D01*
X77558095Y-55856190D02*
X77605714Y-55760952D01*
X77653333Y-55713333D01*
X77748571Y-55665714D01*
X77843810Y-55665714D01*
X78605715Y-56332381D02*
X78605715Y-55332381D01*
X78605715Y-56284762D02*
X78510477Y-56332381D01*
X78320000Y-56332381D01*
X78224762Y-56284762D01*
X78177143Y-56237143D01*
X78129524Y-56141905D01*
X78129524Y-55856190D01*
X78177143Y-55760952D01*
X78224762Y-55713333D01*
X78320000Y-55665714D01*
X78510477Y-55665714D01*
X78605715Y-55713333D01*
X79510477Y-55665714D02*
X79510477Y-56332381D01*
X79081905Y-55665714D02*
X79081905Y-56189524D01*
X79129524Y-56284762D01*
X79224762Y-56332381D01*
X79367620Y-56332381D01*
X79462858Y-56284762D01*
X79510477Y-56237143D01*
X79986667Y-56332381D02*
X79986667Y-55665714D01*
X79986667Y-55332381D02*
X79939048Y-55380000D01*
X79986667Y-55427619D01*
X80034286Y-55380000D01*
X79986667Y-55332381D01*
X79986667Y-55427619D01*
X80462857Y-55665714D02*
X80462857Y-56332381D01*
X80462857Y-55760952D02*
X80510476Y-55713333D01*
X80605714Y-55665714D01*
X80748572Y-55665714D01*
X80843810Y-55713333D01*
X80891429Y-55808571D01*
X80891429Y-56332381D01*
X81510476Y-56332381D02*
X81415238Y-56284762D01*
X81367619Y-56237143D01*
X81320000Y-56141905D01*
X81320000Y-55856190D01*
X81367619Y-55760952D01*
X81415238Y-55713333D01*
X81510476Y-55665714D01*
X81653334Y-55665714D01*
X81748572Y-55713333D01*
X81796191Y-55760952D01*
X81843810Y-55856190D01*
X81843810Y-56141905D01*
X81796191Y-56237143D01*
X81748572Y-56284762D01*
X81653334Y-56332381D01*
X81510476Y-56332381D01*
X83034286Y-56332381D02*
X83034286Y-55332381D01*
X83367620Y-56046667D01*
X83700953Y-55332381D01*
X83700953Y-56332381D01*
X84558096Y-56284762D02*
X84462858Y-56332381D01*
X84272381Y-56332381D01*
X84177143Y-56284762D01*
X84129524Y-56189524D01*
X84129524Y-55808571D01*
X84177143Y-55713333D01*
X84272381Y-55665714D01*
X84462858Y-55665714D01*
X84558096Y-55713333D01*
X84605715Y-55808571D01*
X84605715Y-55903810D01*
X84129524Y-55999048D01*
X85462858Y-55665714D02*
X85462858Y-56475238D01*
X85415239Y-56570476D01*
X85367620Y-56618095D01*
X85272381Y-56665714D01*
X85129524Y-56665714D01*
X85034286Y-56618095D01*
X85462858Y-56284762D02*
X85367620Y-56332381D01*
X85177143Y-56332381D01*
X85081905Y-56284762D01*
X85034286Y-56237143D01*
X84986667Y-56141905D01*
X84986667Y-55856190D01*
X85034286Y-55760952D01*
X85081905Y-55713333D01*
X85177143Y-55665714D01*
X85367620Y-55665714D01*
X85462858Y-55713333D01*
X86367620Y-56332381D02*
X86367620Y-55808571D01*
X86320001Y-55713333D01*
X86224763Y-55665714D01*
X86034286Y-55665714D01*
X85939048Y-55713333D01*
X86367620Y-56284762D02*
X86272382Y-56332381D01*
X86034286Y-56332381D01*
X85939048Y-56284762D01*
X85891429Y-56189524D01*
X85891429Y-56094286D01*
X85939048Y-55999048D01*
X86034286Y-55951429D01*
X86272382Y-55951429D01*
X86367620Y-55903810D01*
X87558096Y-55427619D02*
X87605715Y-55380000D01*
X87700953Y-55332381D01*
X87939049Y-55332381D01*
X88034287Y-55380000D01*
X88081906Y-55427619D01*
X88129525Y-55522857D01*
X88129525Y-55618095D01*
X88081906Y-55760952D01*
X87510477Y-56332381D01*
X88129525Y-56332381D01*
X89034287Y-55332381D02*
X88558096Y-55332381D01*
X88510477Y-55808571D01*
X88558096Y-55760952D01*
X88653334Y-55713333D01*
X88891430Y-55713333D01*
X88986668Y-55760952D01*
X89034287Y-55808571D01*
X89081906Y-55903810D01*
X89081906Y-56141905D01*
X89034287Y-56237143D01*
X88986668Y-56284762D01*
X88891430Y-56332381D01*
X88653334Y-56332381D01*
X88558096Y-56284762D01*
X88510477Y-56237143D01*
X89939049Y-55332381D02*
X89748572Y-55332381D01*
X89653334Y-55380000D01*
X89605715Y-55427619D01*
X89510477Y-55570476D01*
X89462858Y-55760952D01*
X89462858Y-56141905D01*
X89510477Y-56237143D01*
X89558096Y-56284762D01*
X89653334Y-56332381D01*
X89843811Y-56332381D01*
X89939049Y-56284762D01*
X89986668Y-56237143D01*
X90034287Y-56141905D01*
X90034287Y-55903810D01*
X89986668Y-55808571D01*
X89939049Y-55760952D01*
X89843811Y-55713333D01*
X89653334Y-55713333D01*
X89558096Y-55760952D01*
X89510477Y-55808571D01*
X89462858Y-55903810D01*
X90653334Y-55332381D02*
X90748573Y-55332381D01*
X90843811Y-55380000D01*
X90891430Y-55427619D01*
X90939049Y-55522857D01*
X90986668Y-55713333D01*
X90986668Y-55951429D01*
X90939049Y-56141905D01*
X90891430Y-56237143D01*
X90843811Y-56284762D01*
X90748573Y-56332381D01*
X90653334Y-56332381D01*
X90558096Y-56284762D01*
X90510477Y-56237143D01*
X90462858Y-56141905D01*
X90415239Y-55951429D01*
X90415239Y-55713333D01*
X90462858Y-55522857D01*
X90510477Y-55427619D01*
X90558096Y-55380000D01*
X90653334Y-55332381D01*
X76653571Y-59224333D02*
X76653571Y-57446333D01*
X76653571Y-58293000D02*
X77524428Y-58293000D01*
X77524428Y-59224333D02*
X77524428Y-57446333D01*
X78104999Y-58039000D02*
X78467856Y-59224333D01*
X78830714Y-58039000D02*
X78467856Y-59224333D01*
X78322714Y-59647667D01*
X78250142Y-59732333D01*
X78104999Y-59817000D01*
X80064428Y-59224333D02*
X80064428Y-57446333D01*
X80064428Y-59139667D02*
X79919285Y-59224333D01*
X79628999Y-59224333D01*
X79483857Y-59139667D01*
X79411285Y-59055000D01*
X79338714Y-58885667D01*
X79338714Y-58377667D01*
X79411285Y-58208333D01*
X79483857Y-58123667D01*
X79628999Y-58039000D01*
X79919285Y-58039000D01*
X80064428Y-58123667D01*
X80790142Y-59224333D02*
X80790142Y-58039000D01*
X80790142Y-58377667D02*
X80862714Y-58208333D01*
X80935285Y-58123667D01*
X81080428Y-58039000D01*
X81225571Y-58039000D01*
X81951285Y-59224333D02*
X81806143Y-59139667D01*
X81733571Y-59055000D01*
X81661000Y-58885667D01*
X81661000Y-58377667D01*
X81733571Y-58208333D01*
X81806143Y-58123667D01*
X81951285Y-58039000D01*
X82169000Y-58039000D01*
X82314143Y-58123667D01*
X82386714Y-58208333D01*
X82459285Y-58377667D01*
X82459285Y-58885667D01*
X82386714Y-59055000D01*
X82314143Y-59139667D01*
X82169000Y-59224333D01*
X81951285Y-59224333D01*
X84201000Y-59139667D02*
X84346143Y-59224333D01*
X84636428Y-59224333D01*
X84781571Y-59139667D01*
X84854143Y-58970333D01*
X84854143Y-58885667D01*
X84781571Y-58716333D01*
X84636428Y-58631667D01*
X84418714Y-58631667D01*
X84273571Y-58547000D01*
X84201000Y-58377667D01*
X84201000Y-58293000D01*
X84273571Y-58123667D01*
X84418714Y-58039000D01*
X84636428Y-58039000D01*
X84781571Y-58123667D01*
X85507285Y-59224333D02*
X85507285Y-57446333D01*
X86160428Y-59224333D02*
X86160428Y-58293000D01*
X86087857Y-58123667D01*
X85942714Y-58039000D01*
X85724999Y-58039000D01*
X85579857Y-58123667D01*
X85507285Y-58208333D01*
X86886142Y-59224333D02*
X86886142Y-58039000D01*
X86886142Y-57446333D02*
X86813571Y-57531000D01*
X86886142Y-57615667D01*
X86958714Y-57531000D01*
X86886142Y-57446333D01*
X86886142Y-57615667D01*
X88192428Y-59139667D02*
X88047285Y-59224333D01*
X87756999Y-59224333D01*
X87611856Y-59139667D01*
X87539285Y-58970333D01*
X87539285Y-58293000D01*
X87611856Y-58123667D01*
X87756999Y-58039000D01*
X88047285Y-58039000D01*
X88192428Y-58123667D01*
X88264999Y-58293000D01*
X88264999Y-58462333D01*
X87539285Y-58631667D01*
X89135856Y-59224333D02*
X88990714Y-59139667D01*
X88918142Y-58970333D01*
X88918142Y-57446333D01*
X90369571Y-59224333D02*
X90369571Y-57446333D01*
X90369571Y-59139667D02*
X90224428Y-59224333D01*
X89934142Y-59224333D01*
X89789000Y-59139667D01*
X89716428Y-59055000D01*
X89643857Y-58885667D01*
X89643857Y-58377667D01*
X89716428Y-58208333D01*
X89789000Y-58123667D01*
X89934142Y-58039000D01*
X90224428Y-58039000D01*
X90369571Y-58123667D01*
X92111285Y-58039000D02*
X92474142Y-59224333D01*
X92837000Y-58039000D01*
X93707857Y-57446333D02*
X93853000Y-57446333D01*
X93998143Y-57531000D01*
X94070714Y-57615667D01*
X94143285Y-57785000D01*
X94215857Y-58123667D01*
X94215857Y-58547000D01*
X94143285Y-58885667D01*
X94070714Y-59055000D01*
X93998143Y-59139667D01*
X93853000Y-59224333D01*
X93707857Y-59224333D01*
X93562714Y-59139667D01*
X93490143Y-59055000D01*
X93417571Y-58885667D01*
X93345000Y-58547000D01*
X93345000Y-58123667D01*
X93417571Y-57785000D01*
X93490143Y-57615667D01*
X93562714Y-57531000D01*
X93707857Y-57446333D01*
X94869000Y-59055000D02*
X94941572Y-59139667D01*
X94869000Y-59224333D01*
X94796429Y-59139667D01*
X94869000Y-59055000D01*
X94869000Y-59224333D01*
X96393000Y-59224333D02*
X95522143Y-59224333D01*
X95957571Y-59224333D02*
X95957571Y-57446333D01*
X95812428Y-57700333D01*
X95667286Y-57869667D01*
X95522143Y-57954333D01*
X174450476Y-47712381D02*
X175069524Y-47712381D01*
X174736190Y-48093333D01*
X174879048Y-48093333D01*
X174974286Y-48140952D01*
X175021905Y-48188571D01*
X175069524Y-48283810D01*
X175069524Y-48521905D01*
X175021905Y-48617143D01*
X174974286Y-48664762D01*
X174879048Y-48712381D01*
X174593333Y-48712381D01*
X174498095Y-48664762D01*
X174450476Y-48617143D01*
X176021905Y-48712381D02*
X175450476Y-48712381D01*
X175736190Y-48712381D02*
X175736190Y-47712381D01*
X175640952Y-47855238D01*
X175545714Y-47950476D01*
X175450476Y-47998095D01*
X174450476Y-50252381D02*
X175069524Y-50252381D01*
X174736190Y-50633333D01*
X174879048Y-50633333D01*
X174974286Y-50680952D01*
X175021905Y-50728571D01*
X175069524Y-50823810D01*
X175069524Y-51061905D01*
X175021905Y-51157143D01*
X174974286Y-51204762D01*
X174879048Y-51252381D01*
X174593333Y-51252381D01*
X174498095Y-51204762D01*
X174450476Y-51157143D01*
X175402857Y-50252381D02*
X176021905Y-50252381D01*
X175688571Y-50633333D01*
X175831429Y-50633333D01*
X175926667Y-50680952D01*
X175974286Y-50728571D01*
X176021905Y-50823810D01*
X176021905Y-51061905D01*
X175974286Y-51157143D01*
X175926667Y-51204762D01*
X175831429Y-51252381D01*
X175545714Y-51252381D01*
X175450476Y-51204762D01*
X175402857Y-51157143D01*
X174450476Y-52792381D02*
X175069524Y-52792381D01*
X174736190Y-53173333D01*
X174879048Y-53173333D01*
X174974286Y-53220952D01*
X175021905Y-53268571D01*
X175069524Y-53363810D01*
X175069524Y-53601905D01*
X175021905Y-53697143D01*
X174974286Y-53744762D01*
X174879048Y-53792381D01*
X174593333Y-53792381D01*
X174498095Y-53744762D01*
X174450476Y-53697143D01*
X175974286Y-52792381D02*
X175498095Y-52792381D01*
X175450476Y-53268571D01*
X175498095Y-53220952D01*
X175593333Y-53173333D01*
X175831429Y-53173333D01*
X175926667Y-53220952D01*
X175974286Y-53268571D01*
X176021905Y-53363810D01*
X176021905Y-53601905D01*
X175974286Y-53697143D01*
X175926667Y-53744762D01*
X175831429Y-53792381D01*
X175593333Y-53792381D01*
X175498095Y-53744762D01*
X175450476Y-53697143D01*
X174450476Y-55332381D02*
X175069524Y-55332381D01*
X174736190Y-55713333D01*
X174879048Y-55713333D01*
X174974286Y-55760952D01*
X175021905Y-55808571D01*
X175069524Y-55903810D01*
X175069524Y-56141905D01*
X175021905Y-56237143D01*
X174974286Y-56284762D01*
X174879048Y-56332381D01*
X174593333Y-56332381D01*
X174498095Y-56284762D01*
X174450476Y-56237143D01*
X175402857Y-55332381D02*
X176069524Y-55332381D01*
X175640952Y-56332381D01*
X174450476Y-57872381D02*
X175069524Y-57872381D01*
X174736190Y-58253333D01*
X174879048Y-58253333D01*
X174974286Y-58300952D01*
X175021905Y-58348571D01*
X175069524Y-58443810D01*
X175069524Y-58681905D01*
X175021905Y-58777143D01*
X174974286Y-58824762D01*
X174879048Y-58872381D01*
X174593333Y-58872381D01*
X174498095Y-58824762D01*
X174450476Y-58777143D01*
X175545714Y-58872381D02*
X175736190Y-58872381D01*
X175831429Y-58824762D01*
X175879048Y-58777143D01*
X175974286Y-58634286D01*
X176021905Y-58443810D01*
X176021905Y-58062857D01*
X175974286Y-57967619D01*
X175926667Y-57920000D01*
X175831429Y-57872381D01*
X175640952Y-57872381D01*
X175545714Y-57920000D01*
X175498095Y-57967619D01*
X175450476Y-58062857D01*
X175450476Y-58300952D01*
X175498095Y-58396190D01*
X175545714Y-58443810D01*
X175640952Y-58491429D01*
X175831429Y-58491429D01*
X175926667Y-58443810D01*
X175974286Y-58396190D01*
X176021905Y-58300952D01*
X174974286Y-60745714D02*
X174974286Y-61412381D01*
X174736190Y-60364762D02*
X174498095Y-61079048D01*
X175117143Y-61079048D01*
X176021905Y-61412381D02*
X175450476Y-61412381D01*
X175736190Y-61412381D02*
X175736190Y-60412381D01*
X175640952Y-60555238D01*
X175545714Y-60650476D01*
X175450476Y-60698095D01*
X174974286Y-63285714D02*
X174974286Y-63952381D01*
X174736190Y-62904762D02*
X174498095Y-63619048D01*
X175117143Y-63619048D01*
X175402857Y-62952381D02*
X176021905Y-62952381D01*
X175688571Y-63333333D01*
X175831429Y-63333333D01*
X175926667Y-63380952D01*
X175974286Y-63428571D01*
X176021905Y-63523810D01*
X176021905Y-63761905D01*
X175974286Y-63857143D01*
X175926667Y-63904762D01*
X175831429Y-63952381D01*
X175545714Y-63952381D01*
X175450476Y-63904762D01*
X175402857Y-63857143D01*
X174974286Y-65825714D02*
X174974286Y-66492381D01*
X174736190Y-65444762D02*
X174498095Y-66159048D01*
X175117143Y-66159048D01*
X175974286Y-65492381D02*
X175498095Y-65492381D01*
X175450476Y-65968571D01*
X175498095Y-65920952D01*
X175593333Y-65873333D01*
X175831429Y-65873333D01*
X175926667Y-65920952D01*
X175974286Y-65968571D01*
X176021905Y-66063810D01*
X176021905Y-66301905D01*
X175974286Y-66397143D01*
X175926667Y-66444762D01*
X175831429Y-66492381D01*
X175593333Y-66492381D01*
X175498095Y-66444762D01*
X175450476Y-66397143D01*
X174974286Y-68365714D02*
X174974286Y-69032381D01*
X174736190Y-67984762D02*
X174498095Y-68699048D01*
X175117143Y-68699048D01*
X175402857Y-68032381D02*
X176069524Y-68032381D01*
X175640952Y-69032381D01*
X174974286Y-70905714D02*
X174974286Y-71572381D01*
X174736190Y-70524762D02*
X174498095Y-71239048D01*
X175117143Y-71239048D01*
X175545714Y-71572381D02*
X175736190Y-71572381D01*
X175831429Y-71524762D01*
X175879048Y-71477143D01*
X175974286Y-71334286D01*
X176021905Y-71143810D01*
X176021905Y-70762857D01*
X175974286Y-70667619D01*
X175926667Y-70620000D01*
X175831429Y-70572381D01*
X175640952Y-70572381D01*
X175545714Y-70620000D01*
X175498095Y-70667619D01*
X175450476Y-70762857D01*
X175450476Y-71000952D01*
X175498095Y-71096190D01*
X175545714Y-71143810D01*
X175640952Y-71191429D01*
X175831429Y-71191429D01*
X175926667Y-71143810D01*
X175974286Y-71096190D01*
X176021905Y-71000952D01*
X175021905Y-73112381D02*
X174545714Y-73112381D01*
X174498095Y-73588571D01*
X174545714Y-73540952D01*
X174640952Y-73493333D01*
X174879048Y-73493333D01*
X174974286Y-73540952D01*
X175021905Y-73588571D01*
X175069524Y-73683810D01*
X175069524Y-73921905D01*
X175021905Y-74017143D01*
X174974286Y-74064762D01*
X174879048Y-74112381D01*
X174640952Y-74112381D01*
X174545714Y-74064762D01*
X174498095Y-74017143D01*
X176021905Y-74112381D02*
X175450476Y-74112381D01*
X175736190Y-74112381D02*
X175736190Y-73112381D01*
X175640952Y-73255238D01*
X175545714Y-73350476D01*
X175450476Y-73398095D01*
X175021905Y-75652381D02*
X174545714Y-75652381D01*
X174498095Y-76128571D01*
X174545714Y-76080952D01*
X174640952Y-76033333D01*
X174879048Y-76033333D01*
X174974286Y-76080952D01*
X175021905Y-76128571D01*
X175069524Y-76223810D01*
X175069524Y-76461905D01*
X175021905Y-76557143D01*
X174974286Y-76604762D01*
X174879048Y-76652381D01*
X174640952Y-76652381D01*
X174545714Y-76604762D01*
X174498095Y-76557143D01*
X175402857Y-75652381D02*
X176021905Y-75652381D01*
X175688571Y-76033333D01*
X175831429Y-76033333D01*
X175926667Y-76080952D01*
X175974286Y-76128571D01*
X176021905Y-76223810D01*
X176021905Y-76461905D01*
X175974286Y-76557143D01*
X175926667Y-76604762D01*
X175831429Y-76652381D01*
X175545714Y-76652381D01*
X175450476Y-76604762D01*
X175402857Y-76557143D01*
X109672381Y-81577619D02*
X109196190Y-81910953D01*
X109672381Y-82149048D02*
X108672381Y-82149048D01*
X108672381Y-81768095D01*
X108720000Y-81672857D01*
X108767619Y-81625238D01*
X108862857Y-81577619D01*
X109005714Y-81577619D01*
X109100952Y-81625238D01*
X109148571Y-81672857D01*
X109196190Y-81768095D01*
X109196190Y-82149048D01*
X109624762Y-81196667D02*
X109672381Y-81053810D01*
X109672381Y-80815714D01*
X109624762Y-80720476D01*
X109577143Y-80672857D01*
X109481905Y-80625238D01*
X109386667Y-80625238D01*
X109291429Y-80672857D01*
X109243810Y-80720476D01*
X109196190Y-80815714D01*
X109148571Y-81006191D01*
X109100952Y-81101429D01*
X109053333Y-81149048D01*
X108958095Y-81196667D01*
X108862857Y-81196667D01*
X108767619Y-81149048D01*
X108720000Y-81101429D01*
X108672381Y-81006191D01*
X108672381Y-80768095D01*
X108720000Y-80625238D01*
X108672381Y-80339524D02*
X108672381Y-79768095D01*
X109672381Y-80053810D02*
X108672381Y-80053810D01*
X111212381Y-82268095D02*
X111212381Y-81649047D01*
X111593333Y-81982381D01*
X111593333Y-81839523D01*
X111640952Y-81744285D01*
X111688571Y-81696666D01*
X111783810Y-81649047D01*
X112021905Y-81649047D01*
X112117143Y-81696666D01*
X112164762Y-81744285D01*
X112212381Y-81839523D01*
X112212381Y-82125238D01*
X112164762Y-82220476D01*
X112117143Y-82268095D01*
X111212381Y-81363333D02*
X112212381Y-81030000D01*
X111212381Y-80696666D01*
X111212381Y-80458571D02*
X111212381Y-79839523D01*
X111593333Y-80172857D01*
X111593333Y-80029999D01*
X111640952Y-79934761D01*
X111688571Y-79887142D01*
X111783810Y-79839523D01*
X112021905Y-79839523D01*
X112117143Y-79887142D01*
X112164762Y-79934761D01*
X112212381Y-80029999D01*
X112212381Y-80315714D01*
X112164762Y-80410952D01*
X112117143Y-80458571D01*
X113752381Y-81220476D02*
X113752381Y-81696667D01*
X114228571Y-81744286D01*
X114180952Y-81696667D01*
X114133333Y-81601429D01*
X114133333Y-81363333D01*
X114180952Y-81268095D01*
X114228571Y-81220476D01*
X114323810Y-81172857D01*
X114561905Y-81172857D01*
X114657143Y-81220476D01*
X114704762Y-81268095D01*
X114752381Y-81363333D01*
X114752381Y-81601429D01*
X114704762Y-81696667D01*
X114657143Y-81744286D01*
X113752381Y-80887143D02*
X114752381Y-80553810D01*
X113752381Y-80220476D01*
X116340000Y-81791904D02*
X116292381Y-81887142D01*
X116292381Y-82029999D01*
X116340000Y-82172857D01*
X116435238Y-82268095D01*
X116530476Y-82315714D01*
X116720952Y-82363333D01*
X116863810Y-82363333D01*
X117054286Y-82315714D01*
X117149524Y-82268095D01*
X117244762Y-82172857D01*
X117292381Y-82029999D01*
X117292381Y-81934761D01*
X117244762Y-81791904D01*
X117197143Y-81744285D01*
X116863810Y-81744285D01*
X116863810Y-81934761D01*
X117292381Y-81315714D02*
X116292381Y-81315714D01*
X117292381Y-80744285D01*
X116292381Y-80744285D01*
X117292381Y-80268095D02*
X116292381Y-80268095D01*
X116292381Y-80030000D01*
X116340000Y-79887142D01*
X116435238Y-79791904D01*
X116530476Y-79744285D01*
X116720952Y-79696666D01*
X116863810Y-79696666D01*
X117054286Y-79744285D01*
X117149524Y-79791904D01*
X117244762Y-79887142D01*
X117292381Y-80030000D01*
X117292381Y-80268095D01*
X118880000Y-81791904D02*
X118832381Y-81887142D01*
X118832381Y-82029999D01*
X118880000Y-82172857D01*
X118975238Y-82268095D01*
X119070476Y-82315714D01*
X119260952Y-82363333D01*
X119403810Y-82363333D01*
X119594286Y-82315714D01*
X119689524Y-82268095D01*
X119784762Y-82172857D01*
X119832381Y-82029999D01*
X119832381Y-81934761D01*
X119784762Y-81791904D01*
X119737143Y-81744285D01*
X119403810Y-81744285D01*
X119403810Y-81934761D01*
X119832381Y-81315714D02*
X118832381Y-81315714D01*
X119832381Y-80744285D01*
X118832381Y-80744285D01*
X119832381Y-80268095D02*
X118832381Y-80268095D01*
X118832381Y-80030000D01*
X118880000Y-79887142D01*
X118975238Y-79791904D01*
X119070476Y-79744285D01*
X119260952Y-79696666D01*
X119403810Y-79696666D01*
X119594286Y-79744285D01*
X119689524Y-79791904D01*
X119784762Y-79887142D01*
X119832381Y-80030000D01*
X119832381Y-80268095D01*
X121372381Y-82506190D02*
X122372381Y-82172857D01*
X121372381Y-81839523D01*
X122467619Y-81744285D02*
X122467619Y-80982380D01*
X122372381Y-80744285D02*
X121372381Y-80744285D01*
X122372381Y-80268095D02*
X121372381Y-80268095D01*
X122372381Y-79696666D01*
X121372381Y-79696666D01*
X111498095Y-68127619D02*
X111545714Y-68080000D01*
X111640952Y-68032381D01*
X111879048Y-68032381D01*
X111974286Y-68080000D01*
X112021905Y-68127619D01*
X112069524Y-68222857D01*
X112069524Y-68318095D01*
X112021905Y-68460952D01*
X111450476Y-69032381D01*
X112069524Y-69032381D01*
X112450476Y-68127619D02*
X112498095Y-68080000D01*
X112593333Y-68032381D01*
X112831429Y-68032381D01*
X112926667Y-68080000D01*
X112974286Y-68127619D01*
X113021905Y-68222857D01*
X113021905Y-68318095D01*
X112974286Y-68460952D01*
X112402857Y-69032381D01*
X113021905Y-69032381D01*
X111498095Y-70667619D02*
X111545714Y-70620000D01*
X111640952Y-70572381D01*
X111879048Y-70572381D01*
X111974286Y-70620000D01*
X112021905Y-70667619D01*
X112069524Y-70762857D01*
X112069524Y-70858095D01*
X112021905Y-71000952D01*
X111450476Y-71572381D01*
X112069524Y-71572381D01*
X112926667Y-70905714D02*
X112926667Y-71572381D01*
X112688571Y-70524762D02*
X112450476Y-71239048D01*
X113069524Y-71239048D01*
X111498095Y-73207619D02*
X111545714Y-73160000D01*
X111640952Y-73112381D01*
X111879048Y-73112381D01*
X111974286Y-73160000D01*
X112021905Y-73207619D01*
X112069524Y-73302857D01*
X112069524Y-73398095D01*
X112021905Y-73540952D01*
X111450476Y-74112381D01*
X112069524Y-74112381D01*
X112926667Y-73112381D02*
X112736190Y-73112381D01*
X112640952Y-73160000D01*
X112593333Y-73207619D01*
X112498095Y-73350476D01*
X112450476Y-73540952D01*
X112450476Y-73921905D01*
X112498095Y-74017143D01*
X112545714Y-74064762D01*
X112640952Y-74112381D01*
X112831429Y-74112381D01*
X112926667Y-74064762D01*
X112974286Y-74017143D01*
X113021905Y-73921905D01*
X113021905Y-73683810D01*
X112974286Y-73588571D01*
X112926667Y-73540952D01*
X112831429Y-73493333D01*
X112640952Y-73493333D01*
X112545714Y-73540952D01*
X112498095Y-73588571D01*
X112450476Y-73683810D01*
X111998096Y-75700000D02*
X111902858Y-75652381D01*
X111760001Y-75652381D01*
X111617143Y-75700000D01*
X111521905Y-75795238D01*
X111474286Y-75890476D01*
X111426667Y-76080952D01*
X111426667Y-76223810D01*
X111474286Y-76414286D01*
X111521905Y-76509524D01*
X111617143Y-76604762D01*
X111760001Y-76652381D01*
X111855239Y-76652381D01*
X111998096Y-76604762D01*
X112045715Y-76557143D01*
X112045715Y-76223810D01*
X111855239Y-76223810D01*
X112474286Y-76652381D02*
X112474286Y-75652381D01*
X113045715Y-76652381D01*
X113045715Y-75652381D01*
X113521905Y-76652381D02*
X113521905Y-75652381D01*
X113760000Y-75652381D01*
X113902858Y-75700000D01*
X113998096Y-75795238D01*
X114045715Y-75890476D01*
X114093334Y-76080952D01*
X114093334Y-76223810D01*
X114045715Y-76414286D01*
X113998096Y-76509524D01*
X113902858Y-76604762D01*
X113760000Y-76652381D01*
X113521905Y-76652381D01*
X112069524Y-78192381D02*
X111593333Y-78192381D01*
X111545714Y-78668571D01*
X111593333Y-78620952D01*
X111688571Y-78573333D01*
X111926667Y-78573333D01*
X112021905Y-78620952D01*
X112069524Y-78668571D01*
X112117143Y-78763810D01*
X112117143Y-79001905D01*
X112069524Y-79097143D01*
X112021905Y-79144762D01*
X111926667Y-79192381D01*
X111688571Y-79192381D01*
X111593333Y-79144762D01*
X111545714Y-79097143D01*
X112402857Y-78192381D02*
X112736190Y-79192381D01*
X113069524Y-78192381D01*
X121372381Y-38433333D02*
X121372381Y-37766666D01*
X122372381Y-38195238D01*
X123912381Y-37909523D02*
X123912381Y-38100000D01*
X123960000Y-38195238D01*
X124007619Y-38242857D01*
X124150476Y-38338095D01*
X124340952Y-38385714D01*
X124721905Y-38385714D01*
X124817143Y-38338095D01*
X124864762Y-38290476D01*
X124912381Y-38195238D01*
X124912381Y-38004761D01*
X124864762Y-37909523D01*
X124817143Y-37861904D01*
X124721905Y-37814285D01*
X124483810Y-37814285D01*
X124388571Y-37861904D01*
X124340952Y-37909523D01*
X124293333Y-38004761D01*
X124293333Y-38195238D01*
X124340952Y-38290476D01*
X124388571Y-38338095D01*
X124483810Y-38385714D01*
X126452381Y-37861904D02*
X126452381Y-38338095D01*
X126928571Y-38385714D01*
X126880952Y-38338095D01*
X126833333Y-38242857D01*
X126833333Y-38004761D01*
X126880952Y-37909523D01*
X126928571Y-37861904D01*
X127023810Y-37814285D01*
X127261905Y-37814285D01*
X127357143Y-37861904D01*
X127404762Y-37909523D01*
X127452381Y-38004761D01*
X127452381Y-38242857D01*
X127404762Y-38338095D01*
X127357143Y-38385714D01*
X129325714Y-37909523D02*
X129992381Y-37909523D01*
X128944762Y-38147619D02*
X129659048Y-38385714D01*
X129659048Y-37766666D01*
X131532381Y-38433333D02*
X131532381Y-37814285D01*
X131913333Y-38147619D01*
X131913333Y-38004761D01*
X131960952Y-37909523D01*
X132008571Y-37861904D01*
X132103810Y-37814285D01*
X132341905Y-37814285D01*
X132437143Y-37861904D01*
X132484762Y-37909523D01*
X132532381Y-38004761D01*
X132532381Y-38290476D01*
X132484762Y-38385714D01*
X132437143Y-38433333D01*
X134167619Y-38385714D02*
X134120000Y-38338095D01*
X134072381Y-38242857D01*
X134072381Y-38004761D01*
X134120000Y-37909523D01*
X134167619Y-37861904D01*
X134262857Y-37814285D01*
X134358095Y-37814285D01*
X134500952Y-37861904D01*
X135072381Y-38433333D01*
X135072381Y-37814285D01*
X137612381Y-37814285D02*
X137612381Y-38385714D01*
X137612381Y-38100000D02*
X136612381Y-38100000D01*
X136755238Y-38195238D01*
X136850476Y-38290476D01*
X136898095Y-38385714D01*
X139152381Y-38147619D02*
X139152381Y-38052380D01*
X139200000Y-37957142D01*
X139247619Y-37909523D01*
X139342857Y-37861904D01*
X139533333Y-37814285D01*
X139771429Y-37814285D01*
X139961905Y-37861904D01*
X140057143Y-37909523D01*
X140104762Y-37957142D01*
X140152381Y-38052380D01*
X140152381Y-38147619D01*
X140104762Y-38242857D01*
X140057143Y-38290476D01*
X139961905Y-38338095D01*
X139771429Y-38385714D01*
X139533333Y-38385714D01*
X139342857Y-38338095D01*
X139247619Y-38290476D01*
X139200000Y-38242857D01*
X139152381Y-38147619D01*
X145232381Y-38290476D02*
X145232381Y-38861905D01*
X145232381Y-38576191D02*
X144232381Y-38576191D01*
X144375238Y-38671429D01*
X144470476Y-38766667D01*
X144518095Y-38861905D01*
X144565714Y-37433333D02*
X145232381Y-37433333D01*
X144184762Y-37671429D02*
X144899048Y-37909524D01*
X144899048Y-37290476D01*
X147772381Y-38290476D02*
X147772381Y-38861905D01*
X147772381Y-38576191D02*
X146772381Y-38576191D01*
X146915238Y-38671429D01*
X147010476Y-38766667D01*
X147058095Y-38861905D01*
X146772381Y-37385714D02*
X146772381Y-37861905D01*
X147248571Y-37909524D01*
X147200952Y-37861905D01*
X147153333Y-37766667D01*
X147153333Y-37528571D01*
X147200952Y-37433333D01*
X147248571Y-37385714D01*
X147343810Y-37338095D01*
X147581905Y-37338095D01*
X147677143Y-37385714D01*
X147724762Y-37433333D01*
X147772381Y-37528571D01*
X147772381Y-37766667D01*
X147724762Y-37861905D01*
X147677143Y-37909524D01*
X150312381Y-38290476D02*
X150312381Y-38861905D01*
X150312381Y-38576191D02*
X149312381Y-38576191D01*
X149455238Y-38671429D01*
X149550476Y-38766667D01*
X149598095Y-38861905D01*
X149312381Y-37433333D02*
X149312381Y-37623810D01*
X149360000Y-37719048D01*
X149407619Y-37766667D01*
X149550476Y-37861905D01*
X149740952Y-37909524D01*
X150121905Y-37909524D01*
X150217143Y-37861905D01*
X150264762Y-37814286D01*
X150312381Y-37719048D01*
X150312381Y-37528571D01*
X150264762Y-37433333D01*
X150217143Y-37385714D01*
X150121905Y-37338095D01*
X149883810Y-37338095D01*
X149788571Y-37385714D01*
X149740952Y-37433333D01*
X149693333Y-37528571D01*
X149693333Y-37719048D01*
X149740952Y-37814286D01*
X149788571Y-37861905D01*
X149883810Y-37909524D01*
X152852381Y-38290476D02*
X152852381Y-38861905D01*
X152852381Y-38576191D02*
X151852381Y-38576191D01*
X151995238Y-38671429D01*
X152090476Y-38766667D01*
X152138095Y-38861905D01*
X151852381Y-37957143D02*
X151852381Y-37290476D01*
X152852381Y-37719048D01*
X155392381Y-38290476D02*
X155392381Y-38861905D01*
X155392381Y-38576191D02*
X154392381Y-38576191D01*
X154535238Y-38671429D01*
X154630476Y-38766667D01*
X154678095Y-38861905D01*
X154820952Y-37719048D02*
X154773333Y-37814286D01*
X154725714Y-37861905D01*
X154630476Y-37909524D01*
X154582857Y-37909524D01*
X154487619Y-37861905D01*
X154440000Y-37814286D01*
X154392381Y-37719048D01*
X154392381Y-37528571D01*
X154440000Y-37433333D01*
X154487619Y-37385714D01*
X154582857Y-37338095D01*
X154630476Y-37338095D01*
X154725714Y-37385714D01*
X154773333Y-37433333D01*
X154820952Y-37528571D01*
X154820952Y-37719048D01*
X154868571Y-37814286D01*
X154916190Y-37861905D01*
X155011429Y-37909524D01*
X155201905Y-37909524D01*
X155297143Y-37861905D01*
X155344762Y-37814286D01*
X155392381Y-37719048D01*
X155392381Y-37528571D01*
X155344762Y-37433333D01*
X155297143Y-37385714D01*
X155201905Y-37338095D01*
X155011429Y-37338095D01*
X154916190Y-37385714D01*
X154868571Y-37433333D01*
X154820952Y-37528571D01*
X157932381Y-38290476D02*
X157932381Y-38861905D01*
X157932381Y-38576191D02*
X156932381Y-38576191D01*
X157075238Y-38671429D01*
X157170476Y-38766667D01*
X157218095Y-38861905D01*
X157932381Y-37814286D02*
X157932381Y-37623810D01*
X157884762Y-37528571D01*
X157837143Y-37480952D01*
X157694286Y-37385714D01*
X157503810Y-37338095D01*
X157122857Y-37338095D01*
X157027619Y-37385714D01*
X156980000Y-37433333D01*
X156932381Y-37528571D01*
X156932381Y-37719048D01*
X156980000Y-37814286D01*
X157027619Y-37861905D01*
X157122857Y-37909524D01*
X157360952Y-37909524D01*
X157456190Y-37861905D01*
X157503810Y-37814286D01*
X157551429Y-37719048D01*
X157551429Y-37528571D01*
X157503810Y-37433333D01*
X157456190Y-37385714D01*
X157360952Y-37338095D01*
X159567619Y-38861905D02*
X159520000Y-38814286D01*
X159472381Y-38719048D01*
X159472381Y-38480952D01*
X159520000Y-38385714D01*
X159567619Y-38338095D01*
X159662857Y-38290476D01*
X159758095Y-38290476D01*
X159900952Y-38338095D01*
X160472381Y-38909524D01*
X160472381Y-38290476D01*
X159472381Y-37671429D02*
X159472381Y-37576190D01*
X159520000Y-37480952D01*
X159567619Y-37433333D01*
X159662857Y-37385714D01*
X159853333Y-37338095D01*
X160091429Y-37338095D01*
X160281905Y-37385714D01*
X160377143Y-37433333D01*
X160424762Y-37480952D01*
X160472381Y-37576190D01*
X160472381Y-37671429D01*
X160424762Y-37766667D01*
X160377143Y-37814286D01*
X160281905Y-37861905D01*
X160091429Y-37909524D01*
X159853333Y-37909524D01*
X159662857Y-37861905D01*
X159567619Y-37814286D01*
X159520000Y-37766667D01*
X159472381Y-37671429D01*
X78549524Y-35012381D02*
X78073333Y-35012381D01*
X78025714Y-35488571D01*
X78073333Y-35440952D01*
X78168571Y-35393333D01*
X78406667Y-35393333D01*
X78501905Y-35440952D01*
X78549524Y-35488571D01*
X78597143Y-35583810D01*
X78597143Y-35821905D01*
X78549524Y-35917143D01*
X78501905Y-35964762D01*
X78406667Y-36012381D01*
X78168571Y-36012381D01*
X78073333Y-35964762D01*
X78025714Y-35917143D01*
X78882857Y-35012381D02*
X79216190Y-36012381D01*
X79549524Y-35012381D01*
X88138096Y-40140000D02*
X88042858Y-40092381D01*
X87900001Y-40092381D01*
X87757143Y-40140000D01*
X87661905Y-40235238D01*
X87614286Y-40330476D01*
X87566667Y-40520952D01*
X87566667Y-40663810D01*
X87614286Y-40854286D01*
X87661905Y-40949524D01*
X87757143Y-41044762D01*
X87900001Y-41092381D01*
X87995239Y-41092381D01*
X88138096Y-41044762D01*
X88185715Y-40997143D01*
X88185715Y-40663810D01*
X87995239Y-40663810D01*
X88614286Y-41092381D02*
X88614286Y-40092381D01*
X89185715Y-41092381D01*
X89185715Y-40092381D01*
X89661905Y-41092381D02*
X89661905Y-40092381D01*
X89900000Y-40092381D01*
X90042858Y-40140000D01*
X90138096Y-40235238D01*
X90185715Y-40330476D01*
X90233334Y-40520952D01*
X90233334Y-40663810D01*
X90185715Y-40854286D01*
X90138096Y-40949524D01*
X90042858Y-41044762D01*
X89900000Y-41092381D01*
X89661905Y-41092381D01*
X98369524Y-42342381D02*
X97798095Y-42342381D01*
X98083809Y-42342381D02*
X98083809Y-41342381D01*
X97988571Y-41485238D01*
X97893333Y-41580476D01*
X97798095Y-41628095D01*
X99226667Y-41342381D02*
X99036190Y-41342381D01*
X98940952Y-41390000D01*
X98893333Y-41437619D01*
X98798095Y-41580476D01*
X98750476Y-41770952D01*
X98750476Y-42151905D01*
X98798095Y-42247143D01*
X98845714Y-42294762D01*
X98940952Y-42342381D01*
X99131429Y-42342381D01*
X99226667Y-42294762D01*
X99274286Y-42247143D01*
X99321905Y-42151905D01*
X99321905Y-41913810D01*
X99274286Y-41818571D01*
X99226667Y-41770952D01*
X99131429Y-41723333D01*
X98940952Y-41723333D01*
X98845714Y-41770952D01*
X98798095Y-41818571D01*
X98750476Y-41913810D01*
X109458096Y-41390000D02*
X109362858Y-41342381D01*
X109220001Y-41342381D01*
X109077143Y-41390000D01*
X108981905Y-41485238D01*
X108934286Y-41580476D01*
X108886667Y-41770952D01*
X108886667Y-41913810D01*
X108934286Y-42104286D01*
X108981905Y-42199524D01*
X109077143Y-42294762D01*
X109220001Y-42342381D01*
X109315239Y-42342381D01*
X109458096Y-42294762D01*
X109505715Y-42247143D01*
X109505715Y-41913810D01*
X109315239Y-41913810D01*
X109934286Y-42342381D02*
X109934286Y-41342381D01*
X110505715Y-42342381D01*
X110505715Y-41342381D01*
X110981905Y-42342381D02*
X110981905Y-41342381D01*
X111220000Y-41342381D01*
X111362858Y-41390000D01*
X111458096Y-41485238D01*
X111505715Y-41580476D01*
X111553334Y-41770952D01*
X111553334Y-41913810D01*
X111505715Y-42104286D01*
X111458096Y-42199524D01*
X111362858Y-42294762D01*
X111220000Y-42342381D01*
X110981905Y-42342381D01*
X109529524Y-39802381D02*
X108958095Y-39802381D01*
X109243809Y-39802381D02*
X109243809Y-38802381D01*
X109148571Y-38945238D01*
X109053333Y-39040476D01*
X108958095Y-39088095D01*
X109862857Y-38802381D02*
X110529524Y-38802381D01*
X110100952Y-39802381D01*
X104191905Y-37552381D02*
X104810953Y-37552381D01*
X104477619Y-37933333D01*
X104620477Y-37933333D01*
X104715715Y-37980952D01*
X104763334Y-38028571D01*
X104810953Y-38123810D01*
X104810953Y-38361905D01*
X104763334Y-38457143D01*
X104715715Y-38504762D01*
X104620477Y-38552381D01*
X104334762Y-38552381D01*
X104239524Y-38504762D01*
X104191905Y-38457143D01*
X105096667Y-37552381D02*
X105430000Y-38552381D01*
X105763334Y-37552381D01*
X106001429Y-37552381D02*
X106620477Y-37552381D01*
X106287143Y-37933333D01*
X106430001Y-37933333D01*
X106525239Y-37980952D01*
X106572858Y-38028571D01*
X106620477Y-38123810D01*
X106620477Y-38361905D01*
X106572858Y-38457143D01*
X106525239Y-38504762D01*
X106430001Y-38552381D01*
X106144286Y-38552381D01*
X106049048Y-38504762D01*
X106001429Y-38457143D01*
X99111905Y-37552381D02*
X99730953Y-37552381D01*
X99397619Y-37933333D01*
X99540477Y-37933333D01*
X99635715Y-37980952D01*
X99683334Y-38028571D01*
X99730953Y-38123810D01*
X99730953Y-38361905D01*
X99683334Y-38457143D01*
X99635715Y-38504762D01*
X99540477Y-38552381D01*
X99254762Y-38552381D01*
X99159524Y-38504762D01*
X99111905Y-38457143D01*
X100016667Y-37552381D02*
X100350000Y-38552381D01*
X100683334Y-37552381D01*
X100921429Y-37552381D02*
X101540477Y-37552381D01*
X101207143Y-37933333D01*
X101350001Y-37933333D01*
X101445239Y-37980952D01*
X101492858Y-38028571D01*
X101540477Y-38123810D01*
X101540477Y-38361905D01*
X101492858Y-38457143D01*
X101445239Y-38504762D01*
X101350001Y-38552381D01*
X101064286Y-38552381D01*
X100969048Y-38504762D01*
X100921429Y-38457143D01*
X120557143Y-53061905D02*
X120557143Y-48061905D01*
X121509524Y-48061905D01*
X122080952Y-48300000D01*
X122461905Y-48776190D01*
X122652381Y-49252381D01*
X122842857Y-50204762D01*
X122842857Y-50919048D01*
X122652381Y-51871429D01*
X122461905Y-52347619D01*
X122080952Y-52823810D01*
X121509524Y-53061905D01*
X120557143Y-53061905D01*
X126842857Y-52585714D02*
X126652381Y-52823810D01*
X126080952Y-53061905D01*
X125700000Y-53061905D01*
X125128572Y-52823810D01*
X124747619Y-52347619D01*
X124557143Y-51871429D01*
X124366667Y-50919048D01*
X124366667Y-50204762D01*
X124557143Y-49252381D01*
X124747619Y-48776190D01*
X125128572Y-48300000D01*
X125700000Y-48061905D01*
X126080952Y-48061905D01*
X126652381Y-48300000D01*
X126842857Y-48538095D01*
X128557143Y-51157143D02*
X131604762Y-51157143D01*
X133509524Y-53061905D02*
X133509524Y-48061905D01*
X134461905Y-48061905D01*
X135033333Y-48300000D01*
X135414286Y-48776190D01*
X135604762Y-49252381D01*
X135795238Y-50204762D01*
X135795238Y-50919048D01*
X135604762Y-51871429D01*
X135414286Y-52347619D01*
X135033333Y-52823810D01*
X134461905Y-53061905D01*
X133509524Y-53061905D01*
X139795238Y-52585714D02*
X139604762Y-52823810D01*
X139033333Y-53061905D01*
X138652381Y-53061905D01*
X138080953Y-52823810D01*
X137700000Y-52347619D01*
X137509524Y-51871429D01*
X137319048Y-50919048D01*
X137319048Y-50204762D01*
X137509524Y-49252381D01*
X137700000Y-48776190D01*
X138080953Y-48300000D01*
X138652381Y-48061905D01*
X139033333Y-48061905D01*
X139604762Y-48300000D01*
X139795238Y-48538095D01*
X145890476Y-50442857D02*
X146461905Y-50680952D01*
X146652381Y-50919048D01*
X146842857Y-51395238D01*
X146842857Y-52109524D01*
X146652381Y-52585714D01*
X146461905Y-52823810D01*
X146080952Y-53061905D01*
X144557143Y-53061905D01*
X144557143Y-48061905D01*
X145890476Y-48061905D01*
X146271429Y-48300000D01*
X146461905Y-48538095D01*
X146652381Y-49014286D01*
X146652381Y-49490476D01*
X146461905Y-49966667D01*
X146271429Y-50204762D01*
X145890476Y-50442857D01*
X144557143Y-50442857D01*
X148557143Y-48061905D02*
X148557143Y-52109524D01*
X148747619Y-52585714D01*
X148938095Y-52823810D01*
X149319048Y-53061905D01*
X150080952Y-53061905D01*
X150461905Y-52823810D01*
X150652381Y-52585714D01*
X150842857Y-52109524D01*
X150842857Y-48061905D01*
X155033333Y-52585714D02*
X154842857Y-52823810D01*
X154271428Y-53061905D01*
X153890476Y-53061905D01*
X153319048Y-52823810D01*
X152938095Y-52347619D01*
X152747619Y-51871429D01*
X152557143Y-50919048D01*
X152557143Y-50204762D01*
X152747619Y-49252381D01*
X152938095Y-48776190D01*
X153319048Y-48300000D01*
X153890476Y-48061905D01*
X154271428Y-48061905D01*
X154842857Y-48300000D01*
X155033333Y-48538095D01*
X156747619Y-53061905D02*
X156747619Y-48061905D01*
X159033333Y-53061905D02*
X157319048Y-50204762D01*
X159033333Y-48061905D02*
X156747619Y-50919048D01*
X160472381Y-70715238D02*
X160472381Y-71286667D01*
X160472381Y-71000953D02*
X159472381Y-71000953D01*
X159615238Y-71096191D01*
X159710476Y-71191429D01*
X159758095Y-71286667D01*
X159472381Y-70096191D02*
X159472381Y-70000952D01*
X159520000Y-69905714D01*
X159567619Y-69858095D01*
X159662857Y-69810476D01*
X159853333Y-69762857D01*
X160091429Y-69762857D01*
X160281905Y-69810476D01*
X160377143Y-69858095D01*
X160424762Y-69905714D01*
X160472381Y-70000952D01*
X160472381Y-70096191D01*
X160424762Y-70191429D01*
X160377143Y-70239048D01*
X160281905Y-70286667D01*
X160091429Y-70334286D01*
X159853333Y-70334286D01*
X159662857Y-70286667D01*
X159567619Y-70239048D01*
X159520000Y-70191429D01*
X159472381Y-70096191D01*
X160472381Y-69334286D02*
X159472381Y-69334286D01*
X160091429Y-69239048D02*
X160472381Y-68953333D01*
X159805714Y-68953333D02*
X160186667Y-69334286D01*
X155662381Y-73683334D02*
X155662381Y-73111905D01*
X156662381Y-73397620D02*
X155662381Y-73397620D01*
X156662381Y-72778572D02*
X155662381Y-72778572D01*
X156662381Y-72350000D02*
X156138571Y-72350000D01*
X156043333Y-72397619D01*
X155995714Y-72492857D01*
X155995714Y-72635715D01*
X156043333Y-72730953D01*
X156090952Y-72778572D01*
X156614762Y-71492857D02*
X156662381Y-71588095D01*
X156662381Y-71778572D01*
X156614762Y-71873810D01*
X156519524Y-71921429D01*
X156138571Y-71921429D01*
X156043333Y-71873810D01*
X155995714Y-71778572D01*
X155995714Y-71588095D01*
X156043333Y-71492857D01*
X156138571Y-71445238D01*
X156233810Y-71445238D01*
X156329048Y-71921429D01*
X156662381Y-71016667D02*
X155995714Y-71016667D01*
X156186190Y-71016667D02*
X156090952Y-70969048D01*
X156043333Y-70921429D01*
X155995714Y-70826191D01*
X155995714Y-70730952D01*
X156662381Y-70397619D02*
X155995714Y-70397619D01*
X156090952Y-70397619D02*
X156043333Y-70350000D01*
X155995714Y-70254762D01*
X155995714Y-70111904D01*
X156043333Y-70016666D01*
X156138571Y-69969047D01*
X156662381Y-69969047D01*
X156138571Y-69969047D02*
X156043333Y-69921428D01*
X155995714Y-69826190D01*
X155995714Y-69683333D01*
X156043333Y-69588095D01*
X156138571Y-69540476D01*
X156662381Y-69540476D01*
X156662381Y-69064286D02*
X155995714Y-69064286D01*
X155662381Y-69064286D02*
X155710000Y-69111905D01*
X155757619Y-69064286D01*
X155710000Y-69016667D01*
X155662381Y-69064286D01*
X155757619Y-69064286D01*
X156614762Y-68635715D02*
X156662381Y-68540477D01*
X156662381Y-68350001D01*
X156614762Y-68254762D01*
X156519524Y-68207143D01*
X156471905Y-68207143D01*
X156376667Y-68254762D01*
X156329048Y-68350001D01*
X156329048Y-68492858D01*
X156281429Y-68588096D01*
X156186190Y-68635715D01*
X156138571Y-68635715D01*
X156043333Y-68588096D01*
X155995714Y-68492858D01*
X155995714Y-68350001D01*
X156043333Y-68254762D01*
X155995714Y-67921429D02*
X155995714Y-67540477D01*
X155662381Y-67778572D02*
X156519524Y-67778572D01*
X156614762Y-67730953D01*
X156662381Y-67635715D01*
X156662381Y-67540477D01*
X156662381Y-67064286D02*
X156614762Y-67159524D01*
X156567143Y-67207143D01*
X156471905Y-67254762D01*
X156186190Y-67254762D01*
X156090952Y-67207143D01*
X156043333Y-67159524D01*
X155995714Y-67064286D01*
X155995714Y-66921428D01*
X156043333Y-66826190D01*
X156090952Y-66778571D01*
X156186190Y-66730952D01*
X156471905Y-66730952D01*
X156567143Y-66778571D01*
X156614762Y-66826190D01*
X156662381Y-66921428D01*
X156662381Y-67064286D01*
X156662381Y-66302381D02*
X155995714Y-66302381D01*
X156186190Y-66302381D02*
X156090952Y-66254762D01*
X156043333Y-66207143D01*
X155995714Y-66111905D01*
X155995714Y-66016666D01*
X138406666Y-78525714D02*
X138406666Y-79525714D01*
X138406666Y-78573333D02*
X138501904Y-78525714D01*
X138692381Y-78525714D01*
X138787619Y-78573333D01*
X138835238Y-78620952D01*
X138882857Y-78716190D01*
X138882857Y-79001905D01*
X138835238Y-79097143D01*
X138787619Y-79144762D01*
X138692381Y-79192381D01*
X138501904Y-79192381D01*
X138406666Y-79144762D01*
X139311428Y-79192381D02*
X139311428Y-78192381D01*
X139311428Y-78668571D02*
X139882857Y-78668571D01*
X139882857Y-79192381D02*
X139882857Y-78192381D01*
X141120952Y-79192381D02*
X141120952Y-78525714D01*
X141120952Y-78620952D02*
X141168571Y-78573333D01*
X141263809Y-78525714D01*
X141406667Y-78525714D01*
X141501905Y-78573333D01*
X141549524Y-78668571D01*
X141549524Y-79192381D01*
X141549524Y-78668571D02*
X141597143Y-78573333D01*
X141692381Y-78525714D01*
X141835238Y-78525714D01*
X141930476Y-78573333D01*
X141978095Y-78668571D01*
X141978095Y-79192381D01*
X142597142Y-79192381D02*
X142501904Y-79144762D01*
X142454285Y-79097143D01*
X142406666Y-79001905D01*
X142406666Y-78716190D01*
X142454285Y-78620952D01*
X142501904Y-78573333D01*
X142597142Y-78525714D01*
X142740000Y-78525714D01*
X142835238Y-78573333D01*
X142882857Y-78620952D01*
X142930476Y-78716190D01*
X142930476Y-79001905D01*
X142882857Y-79097143D01*
X142835238Y-79144762D01*
X142740000Y-79192381D01*
X142597142Y-79192381D01*
X143787619Y-79192381D02*
X143787619Y-78192381D01*
X143787619Y-79144762D02*
X143692381Y-79192381D01*
X143501904Y-79192381D01*
X143406666Y-79144762D01*
X143359047Y-79097143D01*
X143311428Y-79001905D01*
X143311428Y-78716190D01*
X143359047Y-78620952D01*
X143406666Y-78573333D01*
X143501904Y-78525714D01*
X143692381Y-78525714D01*
X143787619Y-78573333D01*
X144692381Y-78525714D02*
X144692381Y-79192381D01*
X144263809Y-78525714D02*
X144263809Y-79049524D01*
X144311428Y-79144762D01*
X144406666Y-79192381D01*
X144549524Y-79192381D01*
X144644762Y-79144762D01*
X144692381Y-79097143D01*
X145311428Y-79192381D02*
X145216190Y-79144762D01*
X145168571Y-79049524D01*
X145168571Y-78192381D01*
X146073334Y-79144762D02*
X145978096Y-79192381D01*
X145787619Y-79192381D01*
X145692381Y-79144762D01*
X145644762Y-79049524D01*
X145644762Y-78668571D01*
X145692381Y-78573333D01*
X145787619Y-78525714D01*
X145978096Y-78525714D01*
X146073334Y-78573333D01*
X146120953Y-78668571D01*
X146120953Y-78763810D01*
X145644762Y-78859048D01*
X83685715Y-69937143D02*
X83685715Y-66937143D01*
X84400000Y-66937143D01*
X84828572Y-67080000D01*
X85114286Y-67365714D01*
X85257143Y-67651429D01*
X85400000Y-68222857D01*
X85400000Y-68651429D01*
X85257143Y-69222857D01*
X85114286Y-69508571D01*
X84828572Y-69794286D01*
X84400000Y-69937143D01*
X83685715Y-69937143D01*
X86685715Y-69937143D02*
X86685715Y-66937143D01*
X86685715Y-68365714D02*
X88400000Y-68365714D01*
X88400000Y-69937143D02*
X88400000Y-66937143D01*
X91400000Y-69937143D02*
X89685715Y-69937143D01*
X90542857Y-69937143D02*
X90542857Y-66937143D01*
X90257143Y-67365714D01*
X89971429Y-67651429D01*
X89685715Y-67794286D01*
X94257143Y-69937143D02*
X92542858Y-69937143D01*
X93400000Y-69937143D02*
X93400000Y-66937143D01*
X93114286Y-67365714D01*
X92828572Y-67651429D01*
X92542858Y-67794286D01*
X98469523Y-44307143D02*
X99136190Y-44307143D01*
X99421904Y-45354762D02*
X98469523Y-45354762D01*
X98469523Y-43354762D01*
X99421904Y-43354762D01*
X100183809Y-45259524D02*
X100469524Y-45354762D01*
X100945714Y-45354762D01*
X101136190Y-45259524D01*
X101231428Y-45164286D01*
X101326667Y-44973810D01*
X101326667Y-44783333D01*
X101231428Y-44592857D01*
X101136190Y-44497619D01*
X100945714Y-44402381D01*
X100564762Y-44307143D01*
X100374286Y-44211905D01*
X100279047Y-44116667D01*
X100183809Y-43926190D01*
X100183809Y-43735714D01*
X100279047Y-43545238D01*
X100374286Y-43450000D01*
X100564762Y-43354762D01*
X101040952Y-43354762D01*
X101326667Y-43450000D01*
X102183809Y-45354762D02*
X102183809Y-43354762D01*
X102945714Y-43354762D01*
X103136190Y-43450000D01*
X103231429Y-43545238D01*
X103326667Y-43735714D01*
X103326667Y-44021429D01*
X103231429Y-44211905D01*
X103136190Y-44307143D01*
X102945714Y-44402381D01*
X102183809Y-44402381D01*
X104469524Y-44211905D02*
X104279048Y-44116667D01*
X104183809Y-44021429D01*
X104088571Y-43830952D01*
X104088571Y-43735714D01*
X104183809Y-43545238D01*
X104279048Y-43450000D01*
X104469524Y-43354762D01*
X104850476Y-43354762D01*
X105040952Y-43450000D01*
X105136190Y-43545238D01*
X105231429Y-43735714D01*
X105231429Y-43830952D01*
X105136190Y-44021429D01*
X105040952Y-44116667D01*
X104850476Y-44211905D01*
X104469524Y-44211905D01*
X104279048Y-44307143D01*
X104183809Y-44402381D01*
X104088571Y-44592857D01*
X104088571Y-44973810D01*
X104183809Y-45164286D01*
X104279048Y-45259524D01*
X104469524Y-45354762D01*
X104850476Y-45354762D01*
X105040952Y-45259524D01*
X105136190Y-45164286D01*
X105231429Y-44973810D01*
X105231429Y-44592857D01*
X105136190Y-44402381D01*
X105040952Y-44307143D01*
X104850476Y-44211905D01*
X105993333Y-43545238D02*
X106088571Y-43450000D01*
X106279048Y-43354762D01*
X106755238Y-43354762D01*
X106945714Y-43450000D01*
X107040952Y-43545238D01*
X107136191Y-43735714D01*
X107136191Y-43926190D01*
X107040952Y-44211905D01*
X105898095Y-45354762D01*
X107136191Y-45354762D01*
X108850476Y-43354762D02*
X108469524Y-43354762D01*
X108279048Y-43450000D01*
X108183810Y-43545238D01*
X107993333Y-43830952D01*
X107898095Y-44211905D01*
X107898095Y-44973810D01*
X107993333Y-45164286D01*
X108088572Y-45259524D01*
X108279048Y-45354762D01*
X108660000Y-45354762D01*
X108850476Y-45259524D01*
X108945714Y-45164286D01*
X109040953Y-44973810D01*
X109040953Y-44497619D01*
X108945714Y-44307143D01*
X108850476Y-44211905D01*
X108660000Y-44116667D01*
X108279048Y-44116667D01*
X108088572Y-44211905D01*
X107993333Y-44307143D01*
X107898095Y-44497619D01*
X110755238Y-43354762D02*
X110374286Y-43354762D01*
X110183810Y-43450000D01*
X110088572Y-43545238D01*
X109898095Y-43830952D01*
X109802857Y-44211905D01*
X109802857Y-44973810D01*
X109898095Y-45164286D01*
X109993334Y-45259524D01*
X110183810Y-45354762D01*
X110564762Y-45354762D01*
X110755238Y-45259524D01*
X110850476Y-45164286D01*
X110945715Y-44973810D01*
X110945715Y-44497619D01*
X110850476Y-44307143D01*
X110755238Y-44211905D01*
X110564762Y-44116667D01*
X110183810Y-44116667D01*
X109993334Y-44211905D01*
X109898095Y-44307143D01*
X109802857Y-44497619D01*
X124035714Y-75017143D02*
X123035714Y-73588571D01*
X122321429Y-75017143D02*
X122321429Y-72017143D01*
X123464286Y-72017143D01*
X123750000Y-72160000D01*
X123892857Y-72302857D01*
X124035714Y-72588571D01*
X124035714Y-73017143D01*
X123892857Y-73302857D01*
X123750000Y-73445714D01*
X123464286Y-73588571D01*
X122321429Y-73588571D01*
X124892857Y-72017143D02*
X126607143Y-72017143D01*
X125750000Y-75017143D02*
X125750000Y-72017143D01*
X129321428Y-74731429D02*
X129178571Y-74874286D01*
X128750000Y-75017143D01*
X128464286Y-75017143D01*
X128035714Y-74874286D01*
X127750000Y-74588571D01*
X127607143Y-74302857D01*
X127464286Y-73731429D01*
X127464286Y-73302857D01*
X127607143Y-72731429D01*
X127750000Y-72445714D01*
X128035714Y-72160000D01*
X128464286Y-72017143D01*
X128750000Y-72017143D01*
X129178571Y-72160000D01*
X129321428Y-72302857D01*
X161488572Y-38552381D02*
X161488572Y-37885714D01*
X161488572Y-37552381D02*
X161440953Y-37600000D01*
X161488572Y-37647619D01*
X161536191Y-37600000D01*
X161488572Y-37552381D01*
X161488572Y-37647619D01*
X161964762Y-37885714D02*
X161964762Y-38552381D01*
X161964762Y-37980952D02*
X162012381Y-37933333D01*
X162107619Y-37885714D01*
X162250477Y-37885714D01*
X162345715Y-37933333D01*
X162393334Y-38028571D01*
X162393334Y-38552381D01*
X162869524Y-38171429D02*
X163631429Y-38171429D01*
X161488572Y-63952381D02*
X161488572Y-63285714D01*
X161488572Y-62952381D02*
X161440953Y-63000000D01*
X161488572Y-63047619D01*
X161536191Y-63000000D01*
X161488572Y-62952381D01*
X161488572Y-63047619D01*
X161964762Y-63285714D02*
X161964762Y-63952381D01*
X161964762Y-63380952D02*
X162012381Y-63333333D01*
X162107619Y-63285714D01*
X162250477Y-63285714D01*
X162345715Y-63333333D01*
X162393334Y-63428571D01*
X162393334Y-63952381D01*
X162869524Y-63571429D02*
X163631429Y-63571429D01*
X163250477Y-63952381D02*
X163250477Y-63190476D01*
X115411428Y-38552381D02*
X115316190Y-38504762D01*
X115268571Y-38457143D01*
X115220952Y-38361905D01*
X115220952Y-38076190D01*
X115268571Y-37980952D01*
X115316190Y-37933333D01*
X115411428Y-37885714D01*
X115554286Y-37885714D01*
X115649524Y-37933333D01*
X115697143Y-37980952D01*
X115744762Y-38076190D01*
X115744762Y-38361905D01*
X115697143Y-38457143D01*
X115649524Y-38504762D01*
X115554286Y-38552381D01*
X115411428Y-38552381D01*
X116601905Y-37885714D02*
X116601905Y-38552381D01*
X116173333Y-37885714D02*
X116173333Y-38409524D01*
X116220952Y-38504762D01*
X116316190Y-38552381D01*
X116459048Y-38552381D01*
X116554286Y-38504762D01*
X116601905Y-38457143D01*
X116935238Y-37885714D02*
X117316190Y-37885714D01*
X117078095Y-37552381D02*
X117078095Y-38409524D01*
X117125714Y-38504762D01*
X117220952Y-38552381D01*
X117316190Y-38552381D01*
X117649524Y-38171429D02*
X118411429Y-38171429D01*
X115411428Y-63952381D02*
X115316190Y-63904762D01*
X115268571Y-63857143D01*
X115220952Y-63761905D01*
X115220952Y-63476190D01*
X115268571Y-63380952D01*
X115316190Y-63333333D01*
X115411428Y-63285714D01*
X115554286Y-63285714D01*
X115649524Y-63333333D01*
X115697143Y-63380952D01*
X115744762Y-63476190D01*
X115744762Y-63761905D01*
X115697143Y-63857143D01*
X115649524Y-63904762D01*
X115554286Y-63952381D01*
X115411428Y-63952381D01*
X116601905Y-63285714D02*
X116601905Y-63952381D01*
X116173333Y-63285714D02*
X116173333Y-63809524D01*
X116220952Y-63904762D01*
X116316190Y-63952381D01*
X116459048Y-63952381D01*
X116554286Y-63904762D01*
X116601905Y-63857143D01*
X116935238Y-63285714D02*
X117316190Y-63285714D01*
X117078095Y-62952381D02*
X117078095Y-63809524D01*
X117125714Y-63904762D01*
X117220952Y-63952381D01*
X117316190Y-63952381D01*
X117649524Y-63571429D02*
X118411429Y-63571429D01*
X118030477Y-63952381D02*
X118030477Y-63190476D01*
X166878095Y-37647619D02*
X166925714Y-37600000D01*
X167020952Y-37552381D01*
X167259048Y-37552381D01*
X167354286Y-37600000D01*
X167401905Y-37647619D01*
X167449524Y-37742857D01*
X167449524Y-37838095D01*
X167401905Y-37980952D01*
X166830476Y-38552381D01*
X167449524Y-38552381D01*
X167830476Y-37647619D02*
X167878095Y-37600000D01*
X167973333Y-37552381D01*
X168211429Y-37552381D01*
X168306667Y-37600000D01*
X168354286Y-37647619D01*
X168401905Y-37742857D01*
X168401905Y-37838095D01*
X168354286Y-37980952D01*
X167782857Y-38552381D01*
X168401905Y-38552381D01*
X166878095Y-40187619D02*
X166925714Y-40140000D01*
X167020952Y-40092381D01*
X167259048Y-40092381D01*
X167354286Y-40140000D01*
X167401905Y-40187619D01*
X167449524Y-40282857D01*
X167449524Y-40378095D01*
X167401905Y-40520952D01*
X166830476Y-41092381D01*
X167449524Y-41092381D01*
X168306667Y-40425714D02*
X168306667Y-41092381D01*
X168068571Y-40044762D02*
X167830476Y-40759048D01*
X168449524Y-40759048D01*
X166878095Y-42727619D02*
X166925714Y-42680000D01*
X167020952Y-42632381D01*
X167259048Y-42632381D01*
X167354286Y-42680000D01*
X167401905Y-42727619D01*
X167449524Y-42822857D01*
X167449524Y-42918095D01*
X167401905Y-43060952D01*
X166830476Y-43632381D01*
X167449524Y-43632381D01*
X168306667Y-42632381D02*
X168116190Y-42632381D01*
X168020952Y-42680000D01*
X167973333Y-42727619D01*
X167878095Y-42870476D01*
X167830476Y-43060952D01*
X167830476Y-43441905D01*
X167878095Y-43537143D01*
X167925714Y-43584762D01*
X168020952Y-43632381D01*
X168211429Y-43632381D01*
X168306667Y-43584762D01*
X168354286Y-43537143D01*
X168401905Y-43441905D01*
X168401905Y-43203810D01*
X168354286Y-43108571D01*
X168306667Y-43060952D01*
X168211429Y-43013333D01*
X168020952Y-43013333D01*
X167925714Y-43060952D01*
X167878095Y-43108571D01*
X167830476Y-43203810D01*
X166878095Y-45267619D02*
X166925714Y-45220000D01*
X167020952Y-45172381D01*
X167259048Y-45172381D01*
X167354286Y-45220000D01*
X167401905Y-45267619D01*
X167449524Y-45362857D01*
X167449524Y-45458095D01*
X167401905Y-45600952D01*
X166830476Y-46172381D01*
X167449524Y-46172381D01*
X168020952Y-45600952D02*
X167925714Y-45553333D01*
X167878095Y-45505714D01*
X167830476Y-45410476D01*
X167830476Y-45362857D01*
X167878095Y-45267619D01*
X167925714Y-45220000D01*
X168020952Y-45172381D01*
X168211429Y-45172381D01*
X168306667Y-45220000D01*
X168354286Y-45267619D01*
X168401905Y-45362857D01*
X168401905Y-45410476D01*
X168354286Y-45505714D01*
X168306667Y-45553333D01*
X168211429Y-45600952D01*
X168020952Y-45600952D01*
X167925714Y-45648571D01*
X167878095Y-45696190D01*
X167830476Y-45791429D01*
X167830476Y-45981905D01*
X167878095Y-46077143D01*
X167925714Y-46124762D01*
X168020952Y-46172381D01*
X168211429Y-46172381D01*
X168306667Y-46124762D01*
X168354286Y-46077143D01*
X168401905Y-45981905D01*
X168401905Y-45791429D01*
X168354286Y-45696190D01*
X168306667Y-45648571D01*
X168211429Y-45600952D01*
X166830476Y-47712381D02*
X167449524Y-47712381D01*
X167116190Y-48093333D01*
X167259048Y-48093333D01*
X167354286Y-48140952D01*
X167401905Y-48188571D01*
X167449524Y-48283810D01*
X167449524Y-48521905D01*
X167401905Y-48617143D01*
X167354286Y-48664762D01*
X167259048Y-48712381D01*
X166973333Y-48712381D01*
X166878095Y-48664762D01*
X166830476Y-48617143D01*
X168068571Y-47712381D02*
X168163810Y-47712381D01*
X168259048Y-47760000D01*
X168306667Y-47807619D01*
X168354286Y-47902857D01*
X168401905Y-48093333D01*
X168401905Y-48331429D01*
X168354286Y-48521905D01*
X168306667Y-48617143D01*
X168259048Y-48664762D01*
X168163810Y-48712381D01*
X168068571Y-48712381D01*
X167973333Y-48664762D01*
X167925714Y-48617143D01*
X167878095Y-48521905D01*
X167830476Y-48331429D01*
X167830476Y-48093333D01*
X167878095Y-47902857D01*
X167925714Y-47807619D01*
X167973333Y-47760000D01*
X168068571Y-47712381D01*
X166830476Y-50252381D02*
X167449524Y-50252381D01*
X167116190Y-50633333D01*
X167259048Y-50633333D01*
X167354286Y-50680952D01*
X167401905Y-50728571D01*
X167449524Y-50823810D01*
X167449524Y-51061905D01*
X167401905Y-51157143D01*
X167354286Y-51204762D01*
X167259048Y-51252381D01*
X166973333Y-51252381D01*
X166878095Y-51204762D01*
X166830476Y-51157143D01*
X167830476Y-50347619D02*
X167878095Y-50300000D01*
X167973333Y-50252381D01*
X168211429Y-50252381D01*
X168306667Y-50300000D01*
X168354286Y-50347619D01*
X168401905Y-50442857D01*
X168401905Y-50538095D01*
X168354286Y-50680952D01*
X167782857Y-51252381D01*
X168401905Y-51252381D01*
X166830476Y-52792381D02*
X167449524Y-52792381D01*
X167116190Y-53173333D01*
X167259048Y-53173333D01*
X167354286Y-53220952D01*
X167401905Y-53268571D01*
X167449524Y-53363810D01*
X167449524Y-53601905D01*
X167401905Y-53697143D01*
X167354286Y-53744762D01*
X167259048Y-53792381D01*
X166973333Y-53792381D01*
X166878095Y-53744762D01*
X166830476Y-53697143D01*
X168306667Y-53125714D02*
X168306667Y-53792381D01*
X168068571Y-52744762D02*
X167830476Y-53459048D01*
X168449524Y-53459048D01*
X166830476Y-55332381D02*
X167449524Y-55332381D01*
X167116190Y-55713333D01*
X167259048Y-55713333D01*
X167354286Y-55760952D01*
X167401905Y-55808571D01*
X167449524Y-55903810D01*
X167449524Y-56141905D01*
X167401905Y-56237143D01*
X167354286Y-56284762D01*
X167259048Y-56332381D01*
X166973333Y-56332381D01*
X166878095Y-56284762D01*
X166830476Y-56237143D01*
X168306667Y-55332381D02*
X168116190Y-55332381D01*
X168020952Y-55380000D01*
X167973333Y-55427619D01*
X167878095Y-55570476D01*
X167830476Y-55760952D01*
X167830476Y-56141905D01*
X167878095Y-56237143D01*
X167925714Y-56284762D01*
X168020952Y-56332381D01*
X168211429Y-56332381D01*
X168306667Y-56284762D01*
X168354286Y-56237143D01*
X168401905Y-56141905D01*
X168401905Y-55903810D01*
X168354286Y-55808571D01*
X168306667Y-55760952D01*
X168211429Y-55713333D01*
X168020952Y-55713333D01*
X167925714Y-55760952D01*
X167878095Y-55808571D01*
X167830476Y-55903810D01*
X166830476Y-57872381D02*
X167449524Y-57872381D01*
X167116190Y-58253333D01*
X167259048Y-58253333D01*
X167354286Y-58300952D01*
X167401905Y-58348571D01*
X167449524Y-58443810D01*
X167449524Y-58681905D01*
X167401905Y-58777143D01*
X167354286Y-58824762D01*
X167259048Y-58872381D01*
X166973333Y-58872381D01*
X166878095Y-58824762D01*
X166830476Y-58777143D01*
X168020952Y-58300952D02*
X167925714Y-58253333D01*
X167878095Y-58205714D01*
X167830476Y-58110476D01*
X167830476Y-58062857D01*
X167878095Y-57967619D01*
X167925714Y-57920000D01*
X168020952Y-57872381D01*
X168211429Y-57872381D01*
X168306667Y-57920000D01*
X168354286Y-57967619D01*
X168401905Y-58062857D01*
X168401905Y-58110476D01*
X168354286Y-58205714D01*
X168306667Y-58253333D01*
X168211429Y-58300952D01*
X168020952Y-58300952D01*
X167925714Y-58348571D01*
X167878095Y-58396190D01*
X167830476Y-58491429D01*
X167830476Y-58681905D01*
X167878095Y-58777143D01*
X167925714Y-58824762D01*
X168020952Y-58872381D01*
X168211429Y-58872381D01*
X168306667Y-58824762D01*
X168354286Y-58777143D01*
X168401905Y-58681905D01*
X168401905Y-58491429D01*
X168354286Y-58396190D01*
X168306667Y-58348571D01*
X168211429Y-58300952D01*
X167354286Y-60745714D02*
X167354286Y-61412381D01*
X167116190Y-60364762D02*
X166878095Y-61079048D01*
X167497143Y-61079048D01*
X168068571Y-60412381D02*
X168163810Y-60412381D01*
X168259048Y-60460000D01*
X168306667Y-60507619D01*
X168354286Y-60602857D01*
X168401905Y-60793333D01*
X168401905Y-61031429D01*
X168354286Y-61221905D01*
X168306667Y-61317143D01*
X168259048Y-61364762D01*
X168163810Y-61412381D01*
X168068571Y-61412381D01*
X167973333Y-61364762D01*
X167925714Y-61317143D01*
X167878095Y-61221905D01*
X167830476Y-61031429D01*
X167830476Y-60793333D01*
X167878095Y-60602857D01*
X167925714Y-60507619D01*
X167973333Y-60460000D01*
X168068571Y-60412381D01*
X167354286Y-63285714D02*
X167354286Y-63952381D01*
X167116190Y-62904762D02*
X166878095Y-63619048D01*
X167497143Y-63619048D01*
X167830476Y-63047619D02*
X167878095Y-63000000D01*
X167973333Y-62952381D01*
X168211429Y-62952381D01*
X168306667Y-63000000D01*
X168354286Y-63047619D01*
X168401905Y-63142857D01*
X168401905Y-63238095D01*
X168354286Y-63380952D01*
X167782857Y-63952381D01*
X168401905Y-63952381D01*
X167354286Y-65825714D02*
X167354286Y-66492381D01*
X167116190Y-65444762D02*
X166878095Y-66159048D01*
X167497143Y-66159048D01*
X168306667Y-65825714D02*
X168306667Y-66492381D01*
X168068571Y-65444762D02*
X167830476Y-66159048D01*
X168449524Y-66159048D01*
X167354286Y-68365714D02*
X167354286Y-69032381D01*
X167116190Y-67984762D02*
X166878095Y-68699048D01*
X167497143Y-68699048D01*
X168306667Y-68032381D02*
X168116190Y-68032381D01*
X168020952Y-68080000D01*
X167973333Y-68127619D01*
X167878095Y-68270476D01*
X167830476Y-68460952D01*
X167830476Y-68841905D01*
X167878095Y-68937143D01*
X167925714Y-68984762D01*
X168020952Y-69032381D01*
X168211429Y-69032381D01*
X168306667Y-68984762D01*
X168354286Y-68937143D01*
X168401905Y-68841905D01*
X168401905Y-68603810D01*
X168354286Y-68508571D01*
X168306667Y-68460952D01*
X168211429Y-68413333D01*
X168020952Y-68413333D01*
X167925714Y-68460952D01*
X167878095Y-68508571D01*
X167830476Y-68603810D01*
X167354286Y-70905714D02*
X167354286Y-71572381D01*
X167116190Y-70524762D02*
X166878095Y-71239048D01*
X167497143Y-71239048D01*
X168020952Y-71000952D02*
X167925714Y-70953333D01*
X167878095Y-70905714D01*
X167830476Y-70810476D01*
X167830476Y-70762857D01*
X167878095Y-70667619D01*
X167925714Y-70620000D01*
X168020952Y-70572381D01*
X168211429Y-70572381D01*
X168306667Y-70620000D01*
X168354286Y-70667619D01*
X168401905Y-70762857D01*
X168401905Y-70810476D01*
X168354286Y-70905714D01*
X168306667Y-70953333D01*
X168211429Y-71000952D01*
X168020952Y-71000952D01*
X167925714Y-71048571D01*
X167878095Y-71096190D01*
X167830476Y-71191429D01*
X167830476Y-71381905D01*
X167878095Y-71477143D01*
X167925714Y-71524762D01*
X168020952Y-71572381D01*
X168211429Y-71572381D01*
X168306667Y-71524762D01*
X168354286Y-71477143D01*
X168401905Y-71381905D01*
X168401905Y-71191429D01*
X168354286Y-71096190D01*
X168306667Y-71048571D01*
X168211429Y-71000952D01*
X167401905Y-73112381D02*
X166925714Y-73112381D01*
X166878095Y-73588571D01*
X166925714Y-73540952D01*
X167020952Y-73493333D01*
X167259048Y-73493333D01*
X167354286Y-73540952D01*
X167401905Y-73588571D01*
X167449524Y-73683810D01*
X167449524Y-73921905D01*
X167401905Y-74017143D01*
X167354286Y-74064762D01*
X167259048Y-74112381D01*
X167020952Y-74112381D01*
X166925714Y-74064762D01*
X166878095Y-74017143D01*
X168068571Y-73112381D02*
X168163810Y-73112381D01*
X168259048Y-73160000D01*
X168306667Y-73207619D01*
X168354286Y-73302857D01*
X168401905Y-73493333D01*
X168401905Y-73731429D01*
X168354286Y-73921905D01*
X168306667Y-74017143D01*
X168259048Y-74064762D01*
X168163810Y-74112381D01*
X168068571Y-74112381D01*
X167973333Y-74064762D01*
X167925714Y-74017143D01*
X167878095Y-73921905D01*
X167830476Y-73731429D01*
X167830476Y-73493333D01*
X167878095Y-73302857D01*
X167925714Y-73207619D01*
X167973333Y-73160000D01*
X168068571Y-73112381D01*
X171958096Y-80780000D02*
X171862858Y-80732381D01*
X171720001Y-80732381D01*
X171577143Y-80780000D01*
X171481905Y-80875238D01*
X171434286Y-80970476D01*
X171386667Y-81160952D01*
X171386667Y-81303810D01*
X171434286Y-81494286D01*
X171481905Y-81589524D01*
X171577143Y-81684762D01*
X171720001Y-81732381D01*
X171815239Y-81732381D01*
X171958096Y-81684762D01*
X172005715Y-81637143D01*
X172005715Y-81303810D01*
X171815239Y-81303810D01*
X172434286Y-81732381D02*
X172434286Y-80732381D01*
X173005715Y-81732381D01*
X173005715Y-80732381D01*
X173481905Y-81732381D02*
X173481905Y-80732381D01*
X173720000Y-80732381D01*
X173862858Y-80780000D01*
X173958096Y-80875238D01*
X174005715Y-80970476D01*
X174053334Y-81160952D01*
X174053334Y-81303810D01*
X174005715Y-81494286D01*
X173958096Y-81589524D01*
X173862858Y-81684762D01*
X173720000Y-81732381D01*
X173481905Y-81732381D01*
X169418096Y-80780000D02*
X169322858Y-80732381D01*
X169180001Y-80732381D01*
X169037143Y-80780000D01*
X168941905Y-80875238D01*
X168894286Y-80970476D01*
X168846667Y-81160952D01*
X168846667Y-81303810D01*
X168894286Y-81494286D01*
X168941905Y-81589524D01*
X169037143Y-81684762D01*
X169180001Y-81732381D01*
X169275239Y-81732381D01*
X169418096Y-81684762D01*
X169465715Y-81637143D01*
X169465715Y-81303810D01*
X169275239Y-81303810D01*
X169894286Y-81732381D02*
X169894286Y-80732381D01*
X170465715Y-81732381D01*
X170465715Y-80732381D01*
X170941905Y-81732381D02*
X170941905Y-80732381D01*
X171180000Y-80732381D01*
X171322858Y-80780000D01*
X171418096Y-80875238D01*
X171465715Y-80970476D01*
X171513334Y-81160952D01*
X171513334Y-81303810D01*
X171465715Y-81494286D01*
X171418096Y-81589524D01*
X171322858Y-81684762D01*
X171180000Y-81732381D01*
X170941905Y-81732381D01*
X167806667Y-80430476D02*
X167806667Y-79954285D01*
X168092381Y-80525714D02*
X167092381Y-80192381D01*
X168092381Y-79859047D01*
X168092381Y-79525714D02*
X167092381Y-79525714D01*
X167092381Y-79287619D01*
X167140000Y-79144761D01*
X167235238Y-79049523D01*
X167330476Y-79001904D01*
X167520952Y-78954285D01*
X167663810Y-78954285D01*
X167854286Y-79001904D01*
X167949524Y-79049523D01*
X168044762Y-79144761D01*
X168092381Y-79287619D01*
X168092381Y-79525714D01*
X168092381Y-78001904D02*
X168092381Y-78573333D01*
X168092381Y-78287619D02*
X167092381Y-78287619D01*
X167235238Y-78382857D01*
X167330476Y-78478095D01*
X167378095Y-78573333D01*
X167092381Y-77097142D02*
X167092381Y-77573333D01*
X167568571Y-77620952D01*
X167520952Y-77573333D01*
X167473333Y-77478095D01*
X167473333Y-77239999D01*
X167520952Y-77144761D01*
X167568571Y-77097142D01*
X167663810Y-77049523D01*
X167901905Y-77049523D01*
X167997143Y-77097142D01*
X168044762Y-77144761D01*
X168092381Y-77239999D01*
X168092381Y-77478095D01*
X168044762Y-77573333D01*
X167997143Y-77620952D01*
X165266667Y-80430476D02*
X165266667Y-79954285D01*
X165552381Y-80525714D02*
X164552381Y-80192381D01*
X165552381Y-79859047D01*
X165552381Y-79525714D02*
X164552381Y-79525714D01*
X164552381Y-79287619D01*
X164600000Y-79144761D01*
X164695238Y-79049523D01*
X164790476Y-79001904D01*
X164980952Y-78954285D01*
X165123810Y-78954285D01*
X165314286Y-79001904D01*
X165409524Y-79049523D01*
X165504762Y-79144761D01*
X165552381Y-79287619D01*
X165552381Y-79525714D01*
X165552381Y-78001904D02*
X165552381Y-78573333D01*
X165552381Y-78287619D02*
X164552381Y-78287619D01*
X164695238Y-78382857D01*
X164790476Y-78478095D01*
X164838095Y-78573333D01*
X164885714Y-77144761D02*
X165552381Y-77144761D01*
X164504762Y-77382857D02*
X165219048Y-77620952D01*
X165219048Y-77001904D01*
X162726667Y-80430476D02*
X162726667Y-79954285D01*
X163012381Y-80525714D02*
X162012381Y-80192381D01*
X163012381Y-79859047D01*
X163012381Y-79525714D02*
X162012381Y-79525714D01*
X162012381Y-79287619D01*
X162060000Y-79144761D01*
X162155238Y-79049523D01*
X162250476Y-79001904D01*
X162440952Y-78954285D01*
X162583810Y-78954285D01*
X162774286Y-79001904D01*
X162869524Y-79049523D01*
X162964762Y-79144761D01*
X163012381Y-79287619D01*
X163012381Y-79525714D01*
X163012381Y-78001904D02*
X163012381Y-78573333D01*
X163012381Y-78287619D02*
X162012381Y-78287619D01*
X162155238Y-78382857D01*
X162250476Y-78478095D01*
X162298095Y-78573333D01*
X162012381Y-77668571D02*
X162012381Y-77049523D01*
X162393333Y-77382857D01*
X162393333Y-77239999D01*
X162440952Y-77144761D01*
X162488571Y-77097142D01*
X162583810Y-77049523D01*
X162821905Y-77049523D01*
X162917143Y-77097142D01*
X162964762Y-77144761D01*
X163012381Y-77239999D01*
X163012381Y-77525714D01*
X162964762Y-77620952D01*
X162917143Y-77668571D01*
X160186667Y-80430476D02*
X160186667Y-79954285D01*
X160472381Y-80525714D02*
X159472381Y-80192381D01*
X160472381Y-79859047D01*
X160472381Y-79525714D02*
X159472381Y-79525714D01*
X159472381Y-79287619D01*
X159520000Y-79144761D01*
X159615238Y-79049523D01*
X159710476Y-79001904D01*
X159900952Y-78954285D01*
X160043810Y-78954285D01*
X160234286Y-79001904D01*
X160329524Y-79049523D01*
X160424762Y-79144761D01*
X160472381Y-79287619D01*
X160472381Y-79525714D01*
X160472381Y-78001904D02*
X160472381Y-78573333D01*
X160472381Y-78287619D02*
X159472381Y-78287619D01*
X159615238Y-78382857D01*
X159710476Y-78478095D01*
X159758095Y-78573333D01*
X159567619Y-77620952D02*
X159520000Y-77573333D01*
X159472381Y-77478095D01*
X159472381Y-77239999D01*
X159520000Y-77144761D01*
X159567619Y-77097142D01*
X159662857Y-77049523D01*
X159758095Y-77049523D01*
X159900952Y-77097142D01*
X160472381Y-77668571D01*
X160472381Y-77049523D01*
X157646667Y-80430476D02*
X157646667Y-79954285D01*
X157932381Y-80525714D02*
X156932381Y-80192381D01*
X157932381Y-79859047D01*
X157932381Y-79525714D02*
X156932381Y-79525714D01*
X156932381Y-79287619D01*
X156980000Y-79144761D01*
X157075238Y-79049523D01*
X157170476Y-79001904D01*
X157360952Y-78954285D01*
X157503810Y-78954285D01*
X157694286Y-79001904D01*
X157789524Y-79049523D01*
X157884762Y-79144761D01*
X157932381Y-79287619D01*
X157932381Y-79525714D01*
X157932381Y-78001904D02*
X157932381Y-78573333D01*
X157932381Y-78287619D02*
X156932381Y-78287619D01*
X157075238Y-78382857D01*
X157170476Y-78478095D01*
X157218095Y-78573333D01*
X157932381Y-77049523D02*
X157932381Y-77620952D01*
X157932381Y-77335238D02*
X156932381Y-77335238D01*
X157075238Y-77430476D01*
X157170476Y-77525714D01*
X157218095Y-77620952D01*
X155106667Y-80430476D02*
X155106667Y-79954285D01*
X155392381Y-80525714D02*
X154392381Y-80192381D01*
X155392381Y-79859047D01*
X155392381Y-79525714D02*
X154392381Y-79525714D01*
X154392381Y-79287619D01*
X154440000Y-79144761D01*
X154535238Y-79049523D01*
X154630476Y-79001904D01*
X154820952Y-78954285D01*
X154963810Y-78954285D01*
X155154286Y-79001904D01*
X155249524Y-79049523D01*
X155344762Y-79144761D01*
X155392381Y-79287619D01*
X155392381Y-79525714D01*
X155392381Y-78001904D02*
X155392381Y-78573333D01*
X155392381Y-78287619D02*
X154392381Y-78287619D01*
X154535238Y-78382857D01*
X154630476Y-78478095D01*
X154678095Y-78573333D01*
X154392381Y-77382857D02*
X154392381Y-77287618D01*
X154440000Y-77192380D01*
X154487619Y-77144761D01*
X154582857Y-77097142D01*
X154773333Y-77049523D01*
X155011429Y-77049523D01*
X155201905Y-77097142D01*
X155297143Y-77144761D01*
X155344762Y-77192380D01*
X155392381Y-77287618D01*
X155392381Y-77382857D01*
X155344762Y-77478095D01*
X155297143Y-77525714D01*
X155201905Y-77573333D01*
X155011429Y-77620952D01*
X154773333Y-77620952D01*
X154582857Y-77573333D01*
X154487619Y-77525714D01*
X154440000Y-77478095D01*
X154392381Y-77382857D01*
X152566667Y-79954286D02*
X152566667Y-79478095D01*
X152852381Y-80049524D02*
X151852381Y-79716191D01*
X152852381Y-79382857D01*
X152852381Y-79049524D02*
X151852381Y-79049524D01*
X151852381Y-78811429D01*
X151900000Y-78668571D01*
X151995238Y-78573333D01*
X152090476Y-78525714D01*
X152280952Y-78478095D01*
X152423810Y-78478095D01*
X152614286Y-78525714D01*
X152709524Y-78573333D01*
X152804762Y-78668571D01*
X152852381Y-78811429D01*
X152852381Y-79049524D01*
X152852381Y-78001905D02*
X152852381Y-77811429D01*
X152804762Y-77716190D01*
X152757143Y-77668571D01*
X152614286Y-77573333D01*
X152423810Y-77525714D01*
X152042857Y-77525714D01*
X151947619Y-77573333D01*
X151900000Y-77620952D01*
X151852381Y-77716190D01*
X151852381Y-77906667D01*
X151900000Y-78001905D01*
X151947619Y-78049524D01*
X152042857Y-78097143D01*
X152280952Y-78097143D01*
X152376190Y-78049524D01*
X152423810Y-78001905D01*
X152471429Y-77906667D01*
X152471429Y-77716190D01*
X152423810Y-77620952D01*
X152376190Y-77573333D01*
X152280952Y-77525714D01*
X150026667Y-79954286D02*
X150026667Y-79478095D01*
X150312381Y-80049524D02*
X149312381Y-79716191D01*
X150312381Y-79382857D01*
X150312381Y-79049524D02*
X149312381Y-79049524D01*
X149312381Y-78811429D01*
X149360000Y-78668571D01*
X149455238Y-78573333D01*
X149550476Y-78525714D01*
X149740952Y-78478095D01*
X149883810Y-78478095D01*
X150074286Y-78525714D01*
X150169524Y-78573333D01*
X150264762Y-78668571D01*
X150312381Y-78811429D01*
X150312381Y-79049524D01*
X149740952Y-77906667D02*
X149693333Y-78001905D01*
X149645714Y-78049524D01*
X149550476Y-78097143D01*
X149502857Y-78097143D01*
X149407619Y-78049524D01*
X149360000Y-78001905D01*
X149312381Y-77906667D01*
X149312381Y-77716190D01*
X149360000Y-77620952D01*
X149407619Y-77573333D01*
X149502857Y-77525714D01*
X149550476Y-77525714D01*
X149645714Y-77573333D01*
X149693333Y-77620952D01*
X149740952Y-77716190D01*
X149740952Y-77906667D01*
X149788571Y-78001905D01*
X149836190Y-78049524D01*
X149931429Y-78097143D01*
X150121905Y-78097143D01*
X150217143Y-78049524D01*
X150264762Y-78001905D01*
X150312381Y-77906667D01*
X150312381Y-77716190D01*
X150264762Y-77620952D01*
X150217143Y-77573333D01*
X150121905Y-77525714D01*
X149931429Y-77525714D01*
X149836190Y-77573333D01*
X149788571Y-77620952D01*
X149740952Y-77716190D01*
X144946667Y-82494286D02*
X144946667Y-82018095D01*
X145232381Y-82589524D02*
X144232381Y-82256191D01*
X145232381Y-81922857D01*
X145232381Y-81589524D02*
X144232381Y-81589524D01*
X144232381Y-81351429D01*
X144280000Y-81208571D01*
X144375238Y-81113333D01*
X144470476Y-81065714D01*
X144660952Y-81018095D01*
X144803810Y-81018095D01*
X144994286Y-81065714D01*
X145089524Y-81113333D01*
X145184762Y-81208571D01*
X145232381Y-81351429D01*
X145232381Y-81589524D01*
X144660952Y-80446667D02*
X144613333Y-80541905D01*
X144565714Y-80589524D01*
X144470476Y-80637143D01*
X144422857Y-80637143D01*
X144327619Y-80589524D01*
X144280000Y-80541905D01*
X144232381Y-80446667D01*
X144232381Y-80256190D01*
X144280000Y-80160952D01*
X144327619Y-80113333D01*
X144422857Y-80065714D01*
X144470476Y-80065714D01*
X144565714Y-80113333D01*
X144613333Y-80160952D01*
X144660952Y-80256190D01*
X144660952Y-80446667D01*
X144708571Y-80541905D01*
X144756190Y-80589524D01*
X144851429Y-80637143D01*
X145041905Y-80637143D01*
X145137143Y-80589524D01*
X145184762Y-80541905D01*
X145232381Y-80446667D01*
X145232381Y-80256190D01*
X145184762Y-80160952D01*
X145137143Y-80113333D01*
X145041905Y-80065714D01*
X144851429Y-80065714D01*
X144756190Y-80113333D01*
X144708571Y-80160952D01*
X144660952Y-80256190D01*
X141692381Y-81470476D02*
X141692381Y-81946667D01*
X142168571Y-81994286D01*
X142120952Y-81946667D01*
X142073333Y-81851429D01*
X142073333Y-81613333D01*
X142120952Y-81518095D01*
X142168571Y-81470476D01*
X142263810Y-81422857D01*
X142501905Y-81422857D01*
X142597143Y-81470476D01*
X142644762Y-81518095D01*
X142692381Y-81613333D01*
X142692381Y-81851429D01*
X142644762Y-81946667D01*
X142597143Y-81994286D01*
X141692381Y-81137143D02*
X142692381Y-80803810D01*
X141692381Y-80470476D01*
X139200000Y-82041904D02*
X139152381Y-82137142D01*
X139152381Y-82279999D01*
X139200000Y-82422857D01*
X139295238Y-82518095D01*
X139390476Y-82565714D01*
X139580952Y-82613333D01*
X139723810Y-82613333D01*
X139914286Y-82565714D01*
X140009524Y-82518095D01*
X140104762Y-82422857D01*
X140152381Y-82279999D01*
X140152381Y-82184761D01*
X140104762Y-82041904D01*
X140057143Y-81994285D01*
X139723810Y-81994285D01*
X139723810Y-82184761D01*
X140152381Y-81565714D02*
X139152381Y-81565714D01*
X140152381Y-80994285D01*
X139152381Y-80994285D01*
X140152381Y-80518095D02*
X139152381Y-80518095D01*
X139152381Y-80280000D01*
X139200000Y-80137142D01*
X139295238Y-80041904D01*
X139390476Y-79994285D01*
X139580952Y-79946666D01*
X139723810Y-79946666D01*
X139914286Y-79994285D01*
X140009524Y-80041904D01*
X140104762Y-80137142D01*
X140152381Y-80280000D01*
X140152381Y-80518095D01*
X164909524Y-73112381D02*
X164433333Y-73112381D01*
X164385714Y-73588571D01*
X164433333Y-73540952D01*
X164528571Y-73493333D01*
X164766667Y-73493333D01*
X164861905Y-73540952D01*
X164909524Y-73588571D01*
X164957143Y-73683810D01*
X164957143Y-73921905D01*
X164909524Y-74017143D01*
X164861905Y-74064762D01*
X164766667Y-74112381D01*
X164528571Y-74112381D01*
X164433333Y-74064762D01*
X164385714Y-74017143D01*
X165242857Y-73112381D02*
X165576190Y-74112381D01*
X165909524Y-73112381D01*
X162726667Y-70270476D02*
X162726667Y-69794285D01*
X163012381Y-70365714D02*
X162012381Y-70032381D01*
X163012381Y-69699047D01*
X163012381Y-69365714D02*
X162012381Y-69365714D01*
X162012381Y-69127619D01*
X162060000Y-68984761D01*
X162155238Y-68889523D01*
X162250476Y-68841904D01*
X162440952Y-68794285D01*
X162583810Y-68794285D01*
X162774286Y-68841904D01*
X162869524Y-68889523D01*
X162964762Y-68984761D01*
X163012381Y-69127619D01*
X163012381Y-69365714D01*
X163012381Y-67841904D02*
X163012381Y-68413333D01*
X163012381Y-68127619D02*
X162012381Y-68127619D01*
X162155238Y-68222857D01*
X162250476Y-68318095D01*
X162298095Y-68413333D01*
X162345714Y-66984761D02*
X163012381Y-66984761D01*
X161964762Y-67222857D02*
X162679048Y-67460952D01*
X162679048Y-66841904D01*
X158329524Y-66206667D02*
X158805715Y-66206667D01*
X158234286Y-66492381D02*
X158567619Y-65492381D01*
X158900953Y-66492381D01*
X159234286Y-66492381D02*
X159234286Y-65492381D01*
X159472381Y-65492381D01*
X159615239Y-65540000D01*
X159710477Y-65635238D01*
X159758096Y-65730476D01*
X159805715Y-65920952D01*
X159805715Y-66063810D01*
X159758096Y-66254286D01*
X159710477Y-66349524D01*
X159615239Y-66444762D01*
X159472381Y-66492381D01*
X159234286Y-66492381D01*
X160758096Y-66492381D02*
X160186667Y-66492381D01*
X160472381Y-66492381D02*
X160472381Y-65492381D01*
X160377143Y-65635238D01*
X160281905Y-65730476D01*
X160186667Y-65778095D01*
X161615239Y-65825714D02*
X161615239Y-66492381D01*
X161377143Y-65444762D02*
X161139048Y-66159048D01*
X161758096Y-66159048D01*
X159258096Y-73160000D02*
X159162858Y-73112381D01*
X159020001Y-73112381D01*
X158877143Y-73160000D01*
X158781905Y-73255238D01*
X158734286Y-73350476D01*
X158686667Y-73540952D01*
X158686667Y-73683810D01*
X158734286Y-73874286D01*
X158781905Y-73969524D01*
X158877143Y-74064762D01*
X159020001Y-74112381D01*
X159115239Y-74112381D01*
X159258096Y-74064762D01*
X159305715Y-74017143D01*
X159305715Y-73683810D01*
X159115239Y-73683810D01*
X159734286Y-74112381D02*
X159734286Y-73112381D01*
X160305715Y-74112381D01*
X160305715Y-73112381D01*
X160781905Y-74112381D02*
X160781905Y-73112381D01*
X161020000Y-73112381D01*
X161162858Y-73160000D01*
X161258096Y-73255238D01*
X161305715Y-73350476D01*
X161353334Y-73540952D01*
X161353334Y-73683810D01*
X161305715Y-73874286D01*
X161258096Y-73969524D01*
X161162858Y-74064762D01*
X161020000Y-74112381D01*
X160781905Y-74112381D01*
X80780000Y-71881904D02*
X80732381Y-71977142D01*
X80732381Y-72119999D01*
X80780000Y-72262857D01*
X80875238Y-72358095D01*
X80970476Y-72405714D01*
X81160952Y-72453333D01*
X81303810Y-72453333D01*
X81494286Y-72405714D01*
X81589524Y-72358095D01*
X81684762Y-72262857D01*
X81732381Y-72119999D01*
X81732381Y-72024761D01*
X81684762Y-71881904D01*
X81637143Y-71834285D01*
X81303810Y-71834285D01*
X81303810Y-72024761D01*
X81732381Y-71405714D02*
X80732381Y-71405714D01*
X81732381Y-70834285D01*
X80732381Y-70834285D01*
X81732381Y-70358095D02*
X80732381Y-70358095D01*
X80732381Y-70120000D01*
X80780000Y-69977142D01*
X80875238Y-69881904D01*
X80970476Y-69834285D01*
X81160952Y-69786666D01*
X81303810Y-69786666D01*
X81494286Y-69834285D01*
X81589524Y-69881904D01*
X81684762Y-69977142D01*
X81732381Y-70120000D01*
X81732381Y-70358095D01*
X80732381Y-68770476D02*
X80732381Y-69246667D01*
X81208571Y-69294286D01*
X81160952Y-69246667D01*
X81113333Y-69151429D01*
X81113333Y-68913333D01*
X81160952Y-68818095D01*
X81208571Y-68770476D01*
X81303810Y-68722857D01*
X81541905Y-68722857D01*
X81637143Y-68770476D01*
X81684762Y-68818095D01*
X81732381Y-68913333D01*
X81732381Y-69151429D01*
X81684762Y-69246667D01*
X81637143Y-69294286D01*
X80732381Y-68437143D02*
X81732381Y-68103810D01*
X80732381Y-67770476D01*
X80732381Y-66278095D02*
X80732381Y-66754286D01*
X81208571Y-66801905D01*
X81160952Y-66754286D01*
X81113333Y-66659048D01*
X81113333Y-66420952D01*
X81160952Y-66325714D01*
X81208571Y-66278095D01*
X81303810Y-66230476D01*
X81541905Y-66230476D01*
X81637143Y-66278095D01*
X81684762Y-66325714D01*
X81732381Y-66420952D01*
X81732381Y-66659048D01*
X81684762Y-66754286D01*
X81637143Y-66801905D01*
X80827619Y-65849524D02*
X80780000Y-65801905D01*
X80732381Y-65706667D01*
X80732381Y-65468571D01*
X80780000Y-65373333D01*
X80827619Y-65325714D01*
X80922857Y-65278095D01*
X81018095Y-65278095D01*
X81160952Y-65325714D01*
X81732381Y-65897143D01*
X81732381Y-65278095D01*
X126666667Y-80732381D02*
X127333334Y-80732381D01*
X126904762Y-81732381D01*
X129730477Y-80732381D02*
X129540000Y-80732381D01*
X129444762Y-80780000D01*
X129397143Y-80827619D01*
X129301905Y-80970476D01*
X129254286Y-81160952D01*
X129254286Y-81541905D01*
X129301905Y-81637143D01*
X129349524Y-81684762D01*
X129444762Y-81732381D01*
X129635239Y-81732381D01*
X129730477Y-81684762D01*
X129778096Y-81637143D01*
X129825715Y-81541905D01*
X129825715Y-81303810D01*
X129778096Y-81208571D01*
X129730477Y-81160952D01*
X129635239Y-81113333D01*
X129444762Y-81113333D01*
X129349524Y-81160952D01*
X129301905Y-81208571D01*
X129254286Y-81303810D01*
X132318096Y-80732381D02*
X131841905Y-80732381D01*
X131794286Y-81208571D01*
X131841905Y-81160952D01*
X131937143Y-81113333D01*
X132175239Y-81113333D01*
X132270477Y-81160952D01*
X132318096Y-81208571D01*
X132365715Y-81303810D01*
X132365715Y-81541905D01*
X132318096Y-81637143D01*
X132270477Y-81684762D01*
X132175239Y-81732381D01*
X131937143Y-81732381D01*
X131841905Y-81684762D01*
X131794286Y-81637143D01*
X134810477Y-81065714D02*
X134810477Y-81732381D01*
X134572381Y-80684762D02*
X134334286Y-81399048D01*
X134953334Y-81399048D01*
X87082381Y-45688095D02*
X87082381Y-45069047D01*
X87463333Y-45402381D01*
X87463333Y-45259523D01*
X87510952Y-45164285D01*
X87558571Y-45116666D01*
X87653810Y-45069047D01*
X87891905Y-45069047D01*
X87987143Y-45116666D01*
X88034762Y-45164285D01*
X88082381Y-45259523D01*
X88082381Y-45545238D01*
X88034762Y-45640476D01*
X87987143Y-45688095D01*
X87082381Y-44783333D02*
X88082381Y-44450000D01*
X87082381Y-44116666D01*
X87082381Y-43878571D02*
X87082381Y-43259523D01*
X87463333Y-43592857D01*
X87463333Y-43449999D01*
X87510952Y-43354761D01*
X87558571Y-43307142D01*
X87653810Y-43259523D01*
X87891905Y-43259523D01*
X87987143Y-43307142D01*
X88034762Y-43354761D01*
X88082381Y-43449999D01*
X88082381Y-43735714D01*
X88034762Y-43830952D01*
X87987143Y-43878571D01*
X94750000Y-45211904D02*
X94702381Y-45307142D01*
X94702381Y-45449999D01*
X94750000Y-45592857D01*
X94845238Y-45688095D01*
X94940476Y-45735714D01*
X95130952Y-45783333D01*
X95273810Y-45783333D01*
X95464286Y-45735714D01*
X95559524Y-45688095D01*
X95654762Y-45592857D01*
X95702381Y-45449999D01*
X95702381Y-45354761D01*
X95654762Y-45211904D01*
X95607143Y-45164285D01*
X95273810Y-45164285D01*
X95273810Y-45354761D01*
X95702381Y-44735714D02*
X94702381Y-44735714D01*
X95702381Y-44164285D01*
X94702381Y-44164285D01*
X95702381Y-43688095D02*
X94702381Y-43688095D01*
X94702381Y-43450000D01*
X94750000Y-43307142D01*
X94845238Y-43211904D01*
X94940476Y-43164285D01*
X95130952Y-43116666D01*
X95273810Y-43116666D01*
X95464286Y-43164285D01*
X95559524Y-43211904D01*
X95654762Y-43307142D01*
X95702381Y-43450000D01*
X95702381Y-43688095D01*
M02*
