G04 #@! TF.FileFunction,Profile,NP*
%FSLAX46Y46*%
G04 Gerber Fmt 4.6, Leading zero omitted, Abs format (unit mm)*
G04 Created by KiCad (PCBNEW (after 2015-mar-04 BZR unknown)-product) date 4/2/2015 5:06:05 PM*
%MOMM*%
G01*
G04 APERTURE LIST*
%ADD10C,0.100000*%
G04 APERTURE END LIST*
D10*
X76200000Y-86360000D02*
X76200000Y-33020000D01*
X175260000Y-86360000D02*
X76200000Y-86360000D01*
X175260000Y-83820000D02*
X175260000Y-86360000D01*
X87630000Y-86360000D02*
X76200000Y-86360000D01*
X76200000Y-73660000D02*
X88900000Y-73660000D01*
X88900000Y-86360000D02*
X88900000Y-73660000D01*
X87630000Y-86360000D02*
X88900000Y-86360000D01*
X106979806Y-81280000D02*
G75*
G03X106979806Y-81280000I-2839806J0D01*
G01*
X99359806Y-81280000D02*
G75*
G03X99359806Y-81280000I-2839806J0D01*
G01*
X153199806Y-58420000D02*
G75*
G03X153199806Y-58420000I-2839806J0D01*
G01*
X138430000Y-62230000D02*
X142240000Y-62230000D01*
X138430000Y-54610000D02*
X138430000Y-62230000D01*
X143510000Y-54610000D02*
X138430000Y-54610000D01*
X143510000Y-62230000D02*
X143510000Y-54610000D01*
X138430000Y-62230000D02*
X143510000Y-62230000D01*
X86360000Y-54610000D02*
X76200000Y-54610000D01*
X76200000Y-41910000D02*
X86360000Y-41910000D01*
X76200000Y-33020000D02*
X76200000Y-41910000D01*
X173990000Y-33020000D02*
X76200000Y-33020000D01*
X177800000Y-81280000D02*
X175260000Y-83820000D01*
X177800000Y-48260000D02*
X177800000Y-81280000D01*
X175260000Y-45720000D02*
X177800000Y-48260000D01*
X175260000Y-34290000D02*
X175260000Y-45720000D01*
X173990000Y-33020000D02*
X175260000Y-34290000D01*
X86360000Y-54610000D02*
X86360000Y-41910000D01*
M02*
