M48
;DRILL file {kicad (after 2015-mar-04 BZR unknown)-product} date 4/2/2015 5:06:07 PM
;FORMAT={-:-/ absolute / inch / decimal}
FMAT,2
INCH,TZ
T1C0.016
T2C0.040
T3C0.125
%
G90
G05
M72
T1
X4.05Y-2.9
X4.5Y-1.7
X4.7Y-1.65
X4.8Y-1.75
X4.9Y-1.75
X5.Y-1.75
X5.Y-2.95
X5.1Y-1.75
X5.1Y-2.95
X5.2Y-1.9
X5.2Y-2.95
X5.25Y-1.65
X5.3Y-2.95
X6.6Y-3.05
T2
X3.1Y-2.6
X3.1Y-2.7
X3.1Y-2.8
X3.15Y-1.45
X3.15Y-1.55
X3.25Y-1.45
X3.25Y-1.55
X3.35Y-1.45
X3.35Y-1.55
X3.45Y-1.45
X3.45Y-1.55
X3.55Y-1.7539
X3.55Y-1.8539
X3.55Y-1.9539
X3.55Y-2.0539
X3.65Y-1.7539
X3.65Y-1.8539
X3.65Y-1.9539
X3.65Y-2.0539
X3.94Y-1.4
X3.95Y-1.55
X3.95Y-1.65
X4.04Y-1.4
X4.05Y-1.55
X4.05Y-1.65
X4.14Y-1.4
X4.15Y-1.55
X4.15Y-1.65
X4.24Y-1.4
X4.25Y-1.55
X4.25Y-1.65
X4.3Y-3.3
X4.34Y-1.4
X4.3508Y-2.7
X4.3508Y-2.8
X4.3508Y-2.9
X4.3508Y-3.
X4.3508Y-3.1
X4.4Y-3.3
X4.44Y-1.4
X4.5Y-3.3
X4.54Y-1.4
X4.5472Y-1.5724
X4.5472Y-2.4
X4.6Y-3.3
X4.64Y-1.4
X4.7Y-3.3
X4.8Y-1.4
X4.8Y-3.3
X4.9Y-1.4
X5.Y-1.4
X5.0039Y-3.3
X5.1Y-1.4
X5.1Y-3.3
X5.2Y-1.4
X5.2Y-3.3
X5.3Y-1.4
X5.3Y-3.3
X5.4Y-1.4
X5.5Y-1.4
X5.5Y-3.3
X5.6Y-3.3
X5.7Y-1.4
X5.7Y-3.3
X5.8Y-1.4
X5.9Y-1.4
X5.9Y-3.3
X6.Y-1.4
X6.Y-3.3
X6.1Y-1.4
X6.1Y-3.3
X6.2Y-1.4
X6.2Y-3.3
X6.3Y-1.4
X6.3Y-2.6591
X6.3Y-2.8591
X6.3Y-3.3
X6.4Y-1.4
X6.4Y-1.5724
X6.4Y-2.4
X6.4Y-3.3
X6.5Y-2.7
X6.5Y-2.8
X6.5Y-3.3
X6.6Y-3.3
X6.7Y-1.4
X6.7Y-1.5
X6.7Y-1.6
X6.7Y-1.7
X6.7Y-1.8
X6.7Y-1.9
X6.7Y-2.
X6.7Y-2.1
X6.7Y-2.2
X6.7Y-2.2
X6.7Y-2.3
X6.7Y-2.3
X6.7Y-2.4
X6.7Y-2.4
X6.7Y-2.5
X6.7Y-2.5
X6.7Y-2.6
X6.7Y-2.6
X6.7Y-2.6
X6.7Y-2.6
X6.7Y-2.7
X6.7Y-2.7
X6.7Y-2.7
X6.7Y-2.7
X6.7Y-2.8
X6.7Y-2.8
X6.7Y-2.8
X6.7Y-2.8
X6.7Y-2.9
X6.7Y-2.9
X6.7Y-2.9
X6.7Y-2.9
X6.7Y-3.
X6.7Y-3.
X6.7Y-3.1
X6.7Y-3.1
X6.8Y-1.4
X6.8Y-1.5
X6.8Y-1.6
X6.8Y-1.7
X6.8Y-1.8
X6.8Y-1.9
X6.8Y-2.
X6.8Y-2.1
X6.8Y-2.2
X6.8Y-2.2
X6.8Y-2.3
X6.8Y-2.3
X6.8Y-2.4
X6.8Y-2.4
X6.8Y-2.5
X6.8Y-2.5
X6.8Y-2.6
X6.8Y-2.6
X6.8Y-2.7
X6.8Y-2.7
X6.8Y-2.8
X6.8Y-2.8
X6.8Y-2.9
X6.8Y-2.9
X6.8Y-3.
X6.8Y-3.
X6.8Y-3.1
X6.8Y-3.1
T3
X3.55Y-3.3
X3.6Y-1.4
X6.55Y-1.4
X6.8Y-3.3
T0
M30
