G04 #@! TF.FileFunction,Soldermask,Top*
%FSLAX46Y46*%
G04 Gerber Fmt 4.6, Leading zero omitted, Abs format (unit mm)*
G04 Created by KiCad (PCBNEW (after 2015-mar-04 BZR unknown)-product) date 4/2/2015 5:06:05 PM*
%MOMM*%
G01*
G04 APERTURE LIST*
%ADD10C,0.100000*%
%ADD11C,1.524000*%
%ADD12O,1.524000X2.540000*%
%ADD13C,3.937000*%
G04 APERTURE END LIST*
D10*
D11*
X85090000Y-39370000D03*
X85090000Y-36830000D03*
X87630000Y-36830000D03*
X87630000Y-39370000D03*
X82550000Y-39370000D03*
X82550000Y-36830000D03*
X80010000Y-36830000D03*
X80010000Y-39370000D03*
X92710000Y-49630000D03*
X92710000Y-44550000D03*
X92710000Y-47090000D03*
X92710000Y-52170000D03*
X90170000Y-49630000D03*
X90170000Y-52170000D03*
X90170000Y-47090000D03*
X90170000Y-44550000D03*
X127100000Y-83820000D03*
X129540000Y-83820000D03*
X132080000Y-83820000D03*
X134620000Y-83820000D03*
X170180000Y-73660000D03*
X170180000Y-71120000D03*
X170180000Y-68580000D03*
X170180000Y-66040000D03*
X170180000Y-66040000D03*
X170180000Y-68580000D03*
X170180000Y-71120000D03*
X170180000Y-73660000D03*
X160020000Y-72620000D03*
X160020000Y-67540000D03*
X165100000Y-68580000D03*
X165100000Y-71120000D03*
X115500000Y-60960000D03*
X115500000Y-39940000D03*
X162560000Y-39940000D03*
X162560000Y-60960000D03*
X110510000Y-68580000D03*
X110510000Y-71120000D03*
X110510000Y-73660000D03*
X110510000Y-76200000D03*
X110510000Y-78740000D03*
X144780000Y-83820000D03*
X142240000Y-83820000D03*
X139700000Y-83820000D03*
X78740000Y-71120000D03*
X78740000Y-68580000D03*
X78740000Y-66040000D03*
X100330000Y-41910000D03*
X100330000Y-39370000D03*
X105410000Y-39370000D03*
X105410000Y-41910000D03*
X102870000Y-39370000D03*
X102870000Y-41910000D03*
X107950000Y-41910000D03*
X107950000Y-39370000D03*
X172720000Y-78740000D03*
X170180000Y-78740000D03*
X172720000Y-76200000D03*
X170180000Y-76200000D03*
X172720000Y-73660000D03*
X170180000Y-73660000D03*
X172720000Y-71120000D03*
X170180000Y-71120000D03*
X172720000Y-68580000D03*
X170180000Y-68580000D03*
X172720000Y-66040000D03*
X170180000Y-66040000D03*
X172720000Y-63500000D03*
X170180000Y-63500000D03*
X172720000Y-60960000D03*
X170180000Y-60960000D03*
X172720000Y-58420000D03*
X170180000Y-58420000D03*
X172720000Y-55880000D03*
X170180000Y-55880000D03*
D12*
X144780000Y-35560000D03*
X147320000Y-35560000D03*
X149860000Y-35560000D03*
X152400000Y-35560000D03*
X154940000Y-35560000D03*
X157480000Y-35560000D03*
X160020000Y-35560000D03*
X162560000Y-35560000D03*
X167640000Y-83820000D03*
X165100000Y-83820000D03*
X162560000Y-83820000D03*
X160020000Y-83820000D03*
X149860000Y-83820000D03*
X152400000Y-83820000D03*
X154940000Y-83820000D03*
X157480000Y-83820000D03*
X121920000Y-83820000D03*
X119380000Y-83820000D03*
X116840000Y-83820000D03*
X111760000Y-83820000D03*
X109220000Y-83820000D03*
X139700000Y-35560000D03*
X137160000Y-35560000D03*
X134620000Y-35560000D03*
X132080000Y-35560000D03*
X129540000Y-35560000D03*
X127000000Y-35560000D03*
X124460000Y-35560000D03*
X121920000Y-35560000D03*
X117856000Y-35560000D03*
X115316000Y-35560000D03*
X112776000Y-35560000D03*
X110236000Y-35560000D03*
X107696000Y-35560000D03*
X105156000Y-35560000D03*
X102616000Y-35560000D03*
X100076000Y-35560000D03*
X114300000Y-83820000D03*
D13*
X172720000Y-83820000D03*
X166370000Y-35560000D03*
X91440000Y-35560000D03*
X90170000Y-83820000D03*
D11*
X170180000Y-38100000D03*
X172720000Y-38100000D03*
X170180000Y-40640000D03*
X172720000Y-40640000D03*
X170180000Y-43180000D03*
X172720000Y-43180000D03*
X170180000Y-45720000D03*
X172720000Y-45720000D03*
X170180000Y-35560000D03*
X172720000Y-35560000D03*
X172720000Y-48260000D03*
X170180000Y-48260000D03*
X170180000Y-50800000D03*
X172720000Y-50800000D03*
X170180000Y-53340000D03*
X172720000Y-53340000D03*
X170180000Y-55880000D03*
X172720000Y-55880000D03*
X170180000Y-58420000D03*
X172720000Y-58420000D03*
X170180000Y-60960000D03*
X172720000Y-60960000D03*
X170180000Y-63500000D03*
X172720000Y-63500000D03*
X170180000Y-66040000D03*
X172720000Y-66040000D03*
X170180000Y-68580000D03*
X172720000Y-68580000D03*
X170180000Y-71120000D03*
X172720000Y-71120000D03*
X170180000Y-73660000D03*
X172720000Y-73660000D03*
X170180000Y-76200000D03*
X172720000Y-76200000D03*
X170180000Y-78740000D03*
X172720000Y-78740000D03*
M02*
